SplineFontDB: 3.0
FontName: RisingSun-DemiBold
FullName: Rising Sun DemiBold
FamilyName: Rising Sun DemiBold
Weight: DemiBold
Copyright: Copyright (c) 2010 - 2013, Matt McInerney (matt@pixelspread.com), Pablo Impallari (impallari@gmail.com), Rodrigo Fuenzalida (hello@rfuenzalida.com) with Reserved Font Name RALEWAY.\nCopyright (c) 2016, Cristiano Sobral (cssobral2013@gmail.com), with Reserved Font Name RISING SUN.
Version: 1.000
ItalicAngle: 0
UnderlinePosition: -100
UnderlineWidth: 50
Ascent: 800
Descent: 200
InvalidEm: 0
sfntRevision: 0x00010000
LayerCount: 2
Layer: 0 1 "Back" 1
Layer: 1 1 "Fore" 0
XUID: [1021 368 144034212 8438]
StyleMap: 0x0020
FSType: 4
OS2Version: 3
OS2_WeightWidthSlopeOnly: 0
OS2_UseTypoMetrics: 0
CreationTime: 1380014460
ModificationTime: 1466169271
PfmFamily: 17
TTFWeight: 600
TTFWidth: 5
LineGap: 0
VLineGap: 0
Panose: 2 11 7 3 3 1 1 6 0 3
OS2TypoAscent: 800
OS2TypoAOffset: 0
OS2TypoDescent: -200
OS2TypoDOffset: 0
OS2TypoLinegap: 0
OS2WinAscent: 927
OS2WinAOffset: 0
OS2WinDescent: 247
OS2WinDOffset: 0
HheadAscent: 927
HheadAOffset: 0
HheadDescent: -247
HheadDOffset: 0
OS2SubXSize: 700
OS2SubYSize: 650
OS2SubXOff: 0
OS2SubYOff: 140
OS2SupXSize: 700
OS2SupYSize: 650
OS2SupXOff: 0
OS2SupYOff: 477
OS2StrikeYSize: 50
OS2StrikeYPos: 250
OS2CapHeight: 710
OS2XHeight: 523
OS2Vendor: 'pyrs'
OS2CodePages: 20000097.00000000
OS2UnicodeRanges: a00002ff.5000205b.00000000.00000000
Lookup: 1 0 0 "'aalt' Access All Alternates in Latin lookup 0" { "'aalt' Access All Alternates in Latin lookup 0 subtable"  } ['aalt' ('latn' <'dflt' > ) ]
Lookup: 3 0 0 "'aalt' Access All Alternates in Latin lookup 1" { "'aalt' Access All Alternates in Latin lookup 1 subtable"  } ['aalt' ('latn' <'dflt' > ) ]
Lookup: 1 0 0 "'smcp' Lowercase to Small Capitals in Latin lookup 2" { "'smcp' Lowercase to Small Capitals in Latin lookup 2 subtable"  } ['smcp' ('latn' <'dflt' > ) ]

StartChar: exclam
Encoding: 33 33 5
Width: 284
GlyphClass: 2
Flags: W
LayerCount: 2
Fore
SplineSet
87 253 m 1,0,-1
 87 717 l 1,1,-1
 197 717 l 1,2,-1
 197 253 l 1,3,-1
 87 253 l 1,0,-1
87 0 m 1,4,-1
 87 137 l 1,5,-1
 197 137 l 1,6,-1
 197 0 l 1,7,-1
 87 0 l 1,4,-1
EndSplineSet
EndChar

StartChar: quotedbl
Encoding: 34 34 6
Width: 357
GlyphClass: 2
Flags: W
LayerCount: 2
Fore
SplineSet
64 501 m 1,0,-1
 64 721 l 1,1,-1
 158 721 l 1,2,-1
 158 501 l 1,3,-1
 64 501 l 1,0,-1
199 501 m 1,4,-1
 199 721 l 1,5,-1
 293 721 l 1,6,-1
 293 501 l 1,7,-1
 199 501 l 1,4,-1
EndSplineSet
EndChar

StartChar: numbersign
Encoding: 35 35 7
Width: 706
GlyphClass: 2
Flags: W
LayerCount: 2
Fore
SplineSet
669 436 m 1,0,-1
 530 436 l 1,1,-1
 492 278 l 1,2,-1
 624 278 l 1,3,-1
 624 194 l 1,4,-1
 472 194 l 1,5,-1
 425 0 l 1,6,-1
 335 0 l 1,7,-1
 383 194 l 1,8,-1
 238 194 l 1,9,-1
 191 0 l 1,10,-1
 101 0 l 1,11,-1
 150 194 l 1,12,-1
 37 194 l 1,13,-1
 37 278 l 1,14,-1
 169 278 l 1,15,-1
 207 436 l 1,16,-1
 82 436 l 1,17,-1
 82 514 l 1,18,-1
 227 514 l 1,19,-1
 274 710 l 1,20,-1
 364 710 l 1,21,-1
 316 514 l 1,22,-1
 460 514 l 1,23,-1
 508 710 l 1,24,-1
 598 710 l 1,25,-1
 549 514 l 1,26,-1
 669 514 l 1,27,-1
 669 436 l 1,0,-1
403 278 m 1,28,-1
 441 436 l 1,29,-1
 296 436 l 1,30,-1
 258 278 l 1,31,-1
 403 278 l 1,28,-1
EndSplineSet
EndChar

StartChar: dollar
Encoding: 36 36 8
Width: 628
GlyphClass: 2
Flags: W
LayerCount: 2
Fore
SplineSet
509 543 m 1,0,1
 500 553 500 553 482.5 564.5 c 128,-1,2
 465 576 465 576 442 586.5 c 128,-1,3
 419 597 419 597 391.5 604.5 c 128,-1,4
 364 612 364 612 335 614 c 1,5,-1
 335 407 l 1,6,-1
 354 403 l 2,7,8
 408 390 408 390 451.5 374 c 128,-1,9
 495 358 495 358 525 335 c 128,-1,10
 555 312 555 312 571.5 278.5 c 128,-1,11
 588 245 588 245 588 197 c 0,12,13
 588 144 588 144 569 106.5 c 128,-1,14
 550 69 550 69 516.5 44 c 128,-1,15
 483 19 483 19 438.5 6.5 c 128,-1,16
 394 -6 394 -6 343 -7 c 1,17,-1
 343 -112 l 1,18,-1
 291 -112 l 1,19,-1
 291 -5 l 1,20,21
 219 0 219 0 154 23.5 c 128,-1,22
 89 47 89 47 35 89 c 1,23,-1
 86 185 l 1,24,25
 97 173 97 173 118 159 c 128,-1,26
 139 145 139 145 167 132 c 128,-1,27
 195 119 195 119 228.5 109 c 128,-1,28
 262 99 262 99 298 95 c 1,29,-1
 298 302 l 1,30,31
 292 304 292 304 285.5 305.5 c 128,-1,32
 279 307 279 307 273 309 c 0,33,34
 220 323 220 323 180.5 338.5 c 128,-1,35
 141 354 141 354 115 376 c 128,-1,36
 89 398 89 398 75.5 427.5 c 128,-1,37
 62 457 62 457 62 499 c 0,38,39
 62 548 62 548 79 586 c 128,-1,40
 96 624 96 624 127 651.5 c 128,-1,41
 158 679 158 679 199.5 694.5 c 128,-1,42
 241 710 241 710 291 714 c 1,43,-1
 291 815 l 1,44,-1
 343 815 l 1,45,-1
 343 714 l 1,46,47
 408 710 408 710 463 688 c 128,-1,48
 518 666 518 666 560 635 c 1,49,-1
 509 543 l 1,0,1
468 185 m 256,50,51
 468 229 468 229 433 251.5 c 128,-1,52
 398 274 398 274 335 292 c 1,53,-1
 335 94 l 1,54,55
 399 95 399 95 433.5 118 c 128,-1,56
 468 141 468 141 468 185 c 256,50,51
179 517 m 0,57,58
 179 475 179 475 208.5 454 c 128,-1,59
 238 433 238 433 298 417 c 1,60,-1
 298 614 l 1,61,62
 237 611 237 611 208 585.5 c 128,-1,63
 179 560 179 560 179 517 c 0,57,58
EndSplineSet
EndChar

StartChar: percent
Encoding: 37 37 9
Width: 758
GlyphClass: 2
Flags: W
LayerCount: 2
Fore
SplineSet
195 423 m 256,0,1
 162 423 162 423 133 434.5 c 128,-1,2
 104 446 104 446 82.5 466 c 128,-1,3
 61 486 61 486 48.5 513 c 128,-1,4
 36 540 36 540 36 571 c 256,5,6
 36 602 36 602 48.5 629 c 128,-1,7
 61 656 61 656 82.5 676.5 c 128,-1,8
 104 697 104 697 133 708.5 c 128,-1,9
 162 720 162 720 195 720 c 256,10,11
 228 720 228 720 257 708.5 c 128,-1,12
 286 697 286 697 307.5 676.5 c 128,-1,13
 329 656 329 656 341.5 629 c 128,-1,14
 354 602 354 602 354 571 c 256,15,16
 354 540 354 540 341.5 513 c 128,-1,17
 329 486 329 486 307.5 466 c 128,-1,18
 286 446 286 446 257 434.5 c 128,-1,19
 228 423 228 423 195 423 c 256,0,1
195 480 m 256,20,21
 212 480 212 480 226.5 487.5 c 128,-1,22
 241 495 241 495 252 507.5 c 128,-1,23
 263 520 263 520 269.5 536.5 c 128,-1,24
 276 553 276 553 276 571 c 0,25,26
 276 590 276 590 269.5 607 c 128,-1,27
 263 624 263 624 252 636.5 c 128,-1,28
 241 649 241 649 226 656 c 128,-1,29
 211 663 211 663 195 663 c 0,30,31
 161 663 161 663 137.5 635.5 c 128,-1,32
 114 608 114 608 114 571 c 0,33,34
 114 552 114 552 120.5 535.5 c 128,-1,35
 127 519 127 519 138 506.5 c 128,-1,36
 149 494 149 494 163.5 487 c 128,-1,37
 178 480 178 480 195 480 c 256,20,21
563 -10 m 256,38,39
 530 -10 530 -10 501 1.5 c 128,-1,40
 472 13 472 13 450.5 33.5 c 128,-1,41
 429 54 429 54 416.5 81 c 128,-1,42
 404 108 404 108 404 139 c 256,43,44
 404 170 404 170 416.5 197 c 128,-1,45
 429 224 429 224 450.5 244 c 128,-1,46
 472 264 472 264 501 275.5 c 128,-1,47
 530 287 530 287 563 287 c 256,48,49
 596 287 596 287 625 275.5 c 128,-1,50
 654 264 654 264 675.5 244 c 128,-1,51
 697 224 697 224 709.5 197 c 128,-1,52
 722 170 722 170 722 139 c 256,53,54
 722 108 722 108 709.5 81 c 128,-1,55
 697 54 697 54 675.5 33.5 c 128,-1,56
 654 13 654 13 625 1.5 c 128,-1,57
 596 -10 596 -10 563 -10 c 256,38,39
563 47 m 0,58,59
 597 47 597 47 620.5 74 c 128,-1,60
 644 101 644 101 644 139 c 0,61,62
 644 158 644 158 637.5 174.5 c 128,-1,63
 631 191 631 191 619.5 203.5 c 128,-1,64
 608 216 608 216 593.5 223 c 128,-1,65
 579 230 579 230 563 230 c 0,66,67
 546 230 546 230 531.5 222.5 c 128,-1,68
 517 215 517 215 506 202.5 c 128,-1,69
 495 190 495 190 488.5 173.5 c 128,-1,70
 482 157 482 157 482 139 c 0,71,72
 482 120 482 120 488.5 103 c 128,-1,73
 495 86 495 86 506 73.5 c 128,-1,74
 517 61 517 61 531.5 54 c 128,-1,75
 546 47 546 47 563 47 c 0,58,59
81 40 m 1,76,-1
 362 373 l 1,77,-1
 626 716 l 1,78,-1
 678 671 l 1,79,-1
 402 342 l 1,80,-1
 132 -6 l 1,81,-1
 81 40 l 1,76,-1
EndSplineSet
EndChar

StartChar: ampersand
Encoding: 38 38 10
Width: 696
GlyphClass: 2
Flags: W
LayerCount: 2
Fore
SplineSet
548 0 m 1,0,-1
 483 68 l 1,1,2
 439 30 439 30 386.5 10 c 128,-1,3
 334 -10 334 -10 277 -10 c 0,4,5
 225 -10 225 -10 182 6 c 128,-1,6
 139 22 139 22 108 49.5 c 128,-1,7
 77 77 77 77 60 114.5 c 128,-1,8
 43 152 43 152 43 194 c 0,9,10
 43 228 43 228 53.5 257 c 128,-1,11
 64 286 64 286 82 311 c 128,-1,12
 100 336 100 336 124 357 c 128,-1,13
 148 378 148 378 174 396 c 1,14,15
 151 421 151 421 135.5 442 c 128,-1,16
 120 463 120 463 110.5 481.5 c 128,-1,17
 101 500 101 500 96.5 517.5 c 128,-1,18
 92 535 92 535 92 554 c 0,19,20
 92 590 92 590 106.5 620.5 c 128,-1,21
 121 651 121 651 146 673 c 128,-1,22
 171 695 171 695 205.5 707 c 128,-1,23
 240 719 240 719 280 719 c 0,24,25
 316 719 316 719 349 709 c 128,-1,26
 382 699 382 699 407 680 c 128,-1,27
 432 661 432 661 446.5 632.5 c 128,-1,28
 461 604 461 604 461 568 c 0,29,30
 461 538 461 538 450.5 513 c 128,-1,31
 440 488 440 488 422 465.5 c 128,-1,32
 404 443 404 443 379.5 422.5 c 128,-1,33
 355 402 355 402 327 383 c 1,34,-1
 487 215 l 1,35,36
 504 250 504 250 513.5 290.5 c 128,-1,37
 523 331 523 331 523 377 c 1,38,-1
 613 377 l 1,39,40
 612 309 612 309 596 251.5 c 128,-1,41
 580 194 580 194 551 148 c 1,42,-1
 693 0 l 1,43,-1
 548 0 l 1,0,-1
289 77 m 0,44,45
 326 77 326 77 360.5 91 c 128,-1,46
 395 105 395 105 424 131 c 1,47,-1
 240 326 l 1,48,49
 199 297 199 297 174 265 c 128,-1,50
 149 233 149 233 149 193 c 0,51,52
 149 167 149 167 160 145.5 c 128,-1,53
 171 124 171 124 190.5 109 c 128,-1,54
 210 94 210 94 235 85.5 c 128,-1,55
 260 77 260 77 289 77 c 0,44,45
193 557 m 0,56,57
 193 547 193 547 196 537.5 c 128,-1,58
 199 528 199 528 206.5 516 c 128,-1,59
 214 504 214 504 227.5 489 c 128,-1,60
 241 474 241 474 261 452 c 1,61,62
 307 481 307 481 333.5 507.5 c 128,-1,63
 360 534 360 534 360 566 c 256,64,65
 360 598 360 598 337.5 617.5 c 128,-1,66
 315 637 315 637 280 637 c 0,67,68
 242 637 242 637 217.5 613.5 c 128,-1,69
 193 590 193 590 193 557 c 0,56,57
EndSplineSet
EndChar

StartChar: quotesingle
Encoding: 39 39 11
Width: 222
GlyphClass: 2
Flags: W
LayerCount: 2
Fore
SplineSet
64 500 m 1,0,-1
 64 721 l 1,1,-1
 158 721 l 1,2,-1
 158 500 l 1,3,-1
 64 500 l 1,0,-1
EndSplineSet
EndChar

StartChar: parenleft
Encoding: 40 40 12
Width: 296
GlyphClass: 2
Flags: W
LayerCount: 2
Fore
SplineSet
38 346 m 0,0,1
 38 397 38 397 49.5 447 c 128,-1,2
 61 497 61 497 80.5 547.5 c 128,-1,3
 100 598 100 598 126.5 648.5 c 128,-1,4
 153 699 153 699 183 750 c 1,5,-1
 268 714 l 1,6,7
 250 688 250 688 228 645.5 c 128,-1,8
 206 603 206 603 186.5 552.5 c 128,-1,9
 167 502 167 502 154 447.5 c 128,-1,10
 141 393 141 393 141 343 c 0,11,12
 141 264 141 264 174.5 175 c 128,-1,13
 208 86 208 86 265 -6 c 1,14,-1
 185 -47 l 1,15,16
 122 47 122 47 80 146.5 c 128,-1,17
 38 246 38 246 38 346 c 0,0,1
EndSplineSet
EndChar

StartChar: parenright
Encoding: 41 41 13
Width: 296
GlyphClass: 2
Flags: W
LayerCount: 2
Fore
SplineSet
257 346 m 0,0,1
 257 246 257 246 215.5 146.5 c 128,-1,2
 174 47 174 47 111 -47 c 1,3,-1
 30 -6 l 1,4,5
 87 86 87 86 121 175 c 128,-1,6
 155 264 155 264 155 343 c 0,7,8
 155 393 155 393 141.5 447.5 c 128,-1,9
 128 502 128 502 108.5 552.5 c 128,-1,10
 89 603 89 603 67 645.5 c 128,-1,11
 45 688 45 688 28 714 c 1,12,-1
 112 750 l 1,13,14
 142 699 142 699 168.5 648.5 c 128,-1,15
 195 598 195 598 214.5 547.5 c 128,-1,16
 234 497 234 497 245.5 447 c 128,-1,17
 257 397 257 397 257 346 c 0,0,1
EndSplineSet
EndChar

StartChar: asterisk
Encoding: 42 42 14
Width: 337
GlyphClass: 2
Flags: W
LayerCount: 2
Fore
SplineSet
80 530 m 1,0,-1
 125 597 l 1,1,-1
 55 619 l 1,2,-1
 71 669 l 1,3,-1
 142 640 l 1,4,-1
 138 716 l 1,5,-1
 199 716 l 1,6,-1
 195 640 l 1,7,-1
 266 669 l 1,8,-1
 281 619 l 1,9,-1
 212 597 l 1,10,-1
 257 530 l 1,11,-1
 213 500 l 1,12,-1
 169 571 l 1,13,-1
 124 500 l 1,14,-1
 80 530 l 1,0,-1
EndSplineSet
EndChar

StartChar: plus
Encoding: 43 43 15
Width: 419
GlyphClass: 2
Flags: W
LayerCount: 2
Fore
SplineSet
370 399 m 1,0,-1
 370 311 l 1,1,-1
 259 311 l 1,2,-1
 259 190 l 1,3,-1
 160 190 l 1,4,-1
 160 311 l 1,5,-1
 49 311 l 1,6,-1
 49 399 l 1,7,-1
 160 399 l 1,8,-1
 160 520 l 1,9,-1
 259 520 l 1,10,-1
 259 399 l 1,11,-1
 370 399 l 1,0,-1
EndSplineSet
EndChar

StartChar: comma
Encoding: 44 44 16
Width: 221
GlyphClass: 2
Flags: W
LayerCount: 2
Fore
SplineSet
73 -97 m 1,0,-1
 97 6 l 1,1,-1
 61 6 l 1,2,-1
 61 128 l 1,3,-1
 160 128 l 1,4,-1
 160 6 l 1,5,-1
 125 -97 l 1,6,-1
 73 -97 l 1,0,-1
EndSplineSet
EndChar

StartChar: hyphen
Encoding: 45 45 17
Width: 421
GlyphClass: 2
Flags: W
LayerCount: 2
Fore
SplineSet
61 224 m 1,0,-1
 61 323 l 1,1,-1
 360 323 l 1,2,-1
 360 224 l 1,3,-1
 61 224 l 1,0,-1
EndSplineSet
EndChar

StartChar: period
Encoding: 46 46 18
Width: 213
GlyphClass: 2
Flags: W
LayerCount: 2
Fore
SplineSet
61 0 m 1,0,-1
 61 128 l 1,1,-1
 152 128 l 1,2,-1
 152 0 l 1,3,-1
 61 0 l 1,0,-1
EndSplineSet
EndChar

StartChar: slash
Encoding: 47 47 19
Width: 664
GlyphClass: 2
Flags: W
LayerCount: 2
Fore
SplineSet
636 710 m 1,0,-1
 149 0 l 1,1,-1
 27 0 l 1,2,-1
 514 710 l 1,3,-1
 636 710 l 1,0,-1
EndSplineSet
EndChar

StartChar: zero
Encoding: 48 48 20
Width: 695
GlyphClass: 2
Flags: W
LayerCount: 2
Fore
SplineSet
348 -10 m 0,0,1
 273 -9 273 -9 216 25 c 128,-1,2
 159 59 159 59 121 111 c 128,-1,3
 83 163 83 163 63.5 226.5 c 128,-1,4
 44 290 44 290 44 350 c 0,5,6
 44 414 44 414 65 478.5 c 128,-1,7
 86 543 86 543 125.5 594.5 c 128,-1,8
 165 646 165 646 221 678 c 128,-1,9
 277 710 277 710 348 710 c 0,10,11
 423 710 423 710 479.5 675.5 c 128,-1,12
 536 641 536 641 574.5 588 c 128,-1,13
 613 535 613 535 632 471.5 c 128,-1,14
 651 408 651 408 651 350 c 0,15,16
 651 285 651 285 630 221 c 128,-1,17
 609 157 609 157 569.5 106 c 128,-1,18
 530 55 530 55 474 23 c 128,-1,19
 418 -9 418 -9 348 -10 c 0,0,1
158 350 m 0,20,21
 159 305 159 305 171.5 258.5 c 128,-1,22
 184 212 184 212 207.5 175 c 128,-1,23
 231 138 231 138 266 114.5 c 128,-1,24
 301 91 301 91 348 91 c 0,25,26
 397 91 397 91 432.5 116 c 128,-1,27
 468 141 468 141 491 179 c 128,-1,28
 514 217 514 217 525.5 263 c 128,-1,29
 537 309 537 309 537 350 c 0,30,31
 537 395 537 395 524.5 441.5 c 128,-1,32
 512 488 512 488 488 525 c 128,-1,33
 464 562 464 562 429 585.5 c 128,-1,34
 394 609 394 609 348 609 c 0,35,36
 299 609 299 609 263 584 c 128,-1,37
 227 559 227 559 204 520.5 c 128,-1,38
 181 482 181 482 169.5 436.5 c 128,-1,39
 158 391 158 391 158 350 c 0,20,21
EndSplineSet
Substitution2: "'lnum' Lining Figures in Latin lookup 3 subtable" zero.lnum
Substitution2: "'aalt' Access All Alternates in Latin lookup 0 subtable" zero.lnum
EndChar

StartChar: one
Encoding: 49 49 21
Width: 465
GlyphClass: 2
Flags: W
LayerCount: 2
Fore
SplineSet
443 99 m 1,0,-1
 443 0 l 1,1,-1
 66 0 l 1,2,-1
 66 99 l 1,3,-1
 203 99 l 1,4,-1
 203 605 l 1,5,6
 195 593 195 593 176.5 578.5 c 128,-1,7
 158 564 158 564 135 550.5 c 128,-1,8
 112 537 112 537 87.5 528 c 128,-1,9
 63 519 63 519 43 519 c 1,10,-1
 43 621 l 1,11,12
 70 621 70 621 98 635.5 c 128,-1,13
 126 650 126 650 149 667.5 c 128,-1,14
 172 685 172 685 187 700 c 128,-1,15
 202 715 202 715 203 717 c 2,16,-1
 316 717 l 1,17,-1
 316 99 l 1,18,-1
 443 99 l 1,0,-1
EndSplineSet
Substitution2: "'lnum' Lining Figures in Latin lookup 3 subtable" one.lnum
Substitution2: "'aalt' Access All Alternates in Latin lookup 0 subtable" one.lnum
EndChar

StartChar: two
Encoding: 50 50 22
Width: 599
GlyphClass: 2
Flags: W
LayerCount: 2
Fore
SplineSet
44 0 m 1,0,1
 44 70 44 70 55 121 c 128,-1,2
 66 172 66 172 88.5 210.5 c 128,-1,3
 111 249 111 249 146 277.5 c 128,-1,4
 181 306 181 306 230 330 c 0,5,6
 263 346 263 346 297 361 c 128,-1,7
 331 376 331 376 358.5 395 c 128,-1,8
 386 414 386 414 403.5 440 c 128,-1,9
 421 466 421 466 421 505 c 0,10,11
 421 554 421 554 390.5 586 c 128,-1,12
 360 618 360 618 300 618 c 0,13,14
 268 618 268 618 240.5 609.5 c 128,-1,15
 213 601 213 601 189.5 587.5 c 128,-1,16
 166 574 166 574 148 558 c 128,-1,17
 130 542 130 542 118 527 c 1,18,-1
 48 600 l 1,19,20
 58 613 58 613 80.5 633 c 128,-1,21
 103 653 103 653 136.5 672 c 128,-1,22
 170 691 170 691 214.5 705 c 128,-1,23
 259 719 259 719 313 719 c 0,24,25
 370 719 370 719 413.5 702.5 c 128,-1,26
 457 686 457 686 486 657.5 c 128,-1,27
 515 629 515 629 530 590.5 c 128,-1,28
 545 552 545 552 545 507 c 0,29,30
 545 459 545 459 529 424.5 c 128,-1,31
 513 390 513 390 486.5 364.5 c 128,-1,32
 460 339 460 339 426 319.5 c 128,-1,33
 392 300 392 300 356 282 c 0,34,35
 311 261 311 261 280 241 c 128,-1,36
 249 221 249 221 229.5 199.5 c 128,-1,37
 210 178 210 178 201.5 153.5 c 128,-1,38
 193 129 193 129 193 99 c 1,39,-1
 546 99 l 1,40,-1
 546 0 l 1,41,-1
 44 0 l 1,0,1
EndSplineSet
Substitution2: "'lnum' Lining Figures in Latin lookup 3 subtable" two.lnum
Substitution2: "'aalt' Access All Alternates in Latin lookup 0 subtable" two.lnum
EndChar

StartChar: three
Encoding: 51 51 23
Width: 585
GlyphClass: 2
Flags: W
LayerCount: 2
Fore
SplineSet
277 -9 m 0,0,1
 187 -9 187 -9 125 30.5 c 128,-1,2
 63 70 63 70 44 139 c 1,3,-1
 104 209 l 1,4,5
 106 191 106 191 118.5 170.5 c 128,-1,6
 131 150 131 150 152.5 133 c 128,-1,7
 174 116 174 116 205 104.5 c 128,-1,8
 236 93 236 93 275 93 c 0,9,10
 306 93 306 93 333 100.5 c 128,-1,11
 360 108 360 108 380 122.5 c 128,-1,12
 400 137 400 137 411.5 157 c 128,-1,13
 423 177 423 177 423 203 c 0,14,15
 423 260 423 260 366.5 289 c 128,-1,16
 310 318 310 318 210 318 c 2,17,-1
 176 318 l 1,18,-1
 176 411 l 1,19,-1
 210 411 l 2,20,21
 297 411 297 411 351 437 c 128,-1,22
 405 463 405 463 405 518 c 0,23,24
 405 543 405 543 394 562.5 c 128,-1,25
 383 582 383 582 365 595.5 c 128,-1,26
 347 609 347 609 324.5 615.5 c 128,-1,27
 302 622 302 622 279 622 c 0,28,29
 216 622 216 622 174.5 594.5 c 128,-1,30
 133 567 133 567 116 533 c 1,31,-1
 44 612 l 1,32,33
 60 637 60 637 85.5 657 c 128,-1,34
 111 677 111 677 142 690.5 c 128,-1,35
 173 704 173 704 208 711.5 c 128,-1,36
 243 719 243 719 278 719 c 0,37,38
 330 719 330 719 375 704 c 128,-1,39
 420 689 420 689 452 662.5 c 128,-1,40
 484 636 484 636 502.5 600.5 c 128,-1,41
 521 565 521 565 521 523 c 0,42,43
 521 463 521 463 485.5 424 c 128,-1,44
 450 385 450 385 385 370 c 1,45,46
 420 364 420 364 448 347 c 128,-1,47
 476 330 476 330 496 306 c 128,-1,48
 516 282 516 282 526.5 251.5 c 128,-1,49
 537 221 537 221 537 188 c 0,50,51
 537 140 537 140 515 103 c 128,-1,52
 493 66 493 66 457 41 c 128,-1,53
 421 16 421 16 374 3.5 c 128,-1,54
 327 -9 327 -9 277 -9 c 0,0,1
EndSplineSet
Substitution2: "'lnum' Lining Figures in Latin lookup 3 subtable" three.lnum
Substitution2: "'aalt' Access All Alternates in Latin lookup 0 subtable" three.lnum
EndChar

StartChar: four
Encoding: 52 52 24
Width: 581
GlyphClass: 2
Flags: W
LayerCount: 2
Fore
SplineSet
344 0 m 1,0,-1
 344 172 l 1,1,-1
 27 172 l 1,2,-1
 27 270 l 1,3,-1
 378 710 l 1,4,-1
 454 710 l 1,5,-1
 454 271 l 1,6,-1
 542 271 l 1,7,-1
 542 172 l 1,8,-1
 454 172 l 1,9,-1
 454 0 l 1,10,-1
 344 0 l 1,0,-1
139 271 m 1,11,-1
 356 271 l 1,12,-1
 356 543 l 1,13,-1
 139 271 l 1,11,-1
EndSplineSet
Substitution2: "'lnum' Lining Figures in Latin lookup 3 subtable" four.lnum
Substitution2: "'aalt' Access All Alternates in Latin lookup 0 subtable" four.lnum
EndChar

StartChar: five
Encoding: 53 53 25
Width: 563
GlyphClass: 2
Flags: W
LayerCount: 2
Fore
SplineSet
291 456 m 0,0,1
 341 456 341 456 383.5 439 c 128,-1,2
 426 422 426 422 457.5 392 c 128,-1,3
 489 362 489 362 506.5 320.5 c 128,-1,4
 524 279 524 279 524 229 c 0,5,6
 524 176 524 176 504.5 132 c 128,-1,7
 485 88 485 88 450.5 56.5 c 128,-1,8
 416 25 416 25 369.5 7.5 c 128,-1,9
 323 -10 323 -10 268 -10 c 0,10,11
 191 -10 191 -10 130 24.5 c 128,-1,12
 69 59 69 59 37 119 c 1,13,-1
 103 182 l 1,14,15
 131 139 131 139 175 113.5 c 128,-1,16
 219 88 219 88 269 88 c 0,17,18
 300 88 300 88 326 98 c 128,-1,19
 352 108 352 108 371 126 c 128,-1,20
 390 144 390 144 400.5 169.5 c 128,-1,21
 411 195 411 195 411 226 c 0,22,23
 411 256 411 256 400.5 281 c 128,-1,24
 390 306 390 306 372 323.5 c 128,-1,25
 354 341 354 341 329.5 351 c 128,-1,26
 305 361 305 361 277 361 c 0,27,28
 239 361 239 361 205.5 344 c 128,-1,29
 172 327 172 327 152 296 c 1,30,-1
 54 296 l 1,31,32
 55 300 55 300 58.5 320 c 128,-1,33
 62 340 62 340 68 370 c 128,-1,34
 74 400 74 400 81 437 c 128,-1,35
 88 474 88 474 96 512 c 0,36,37
 114 601 114 601 135 710 c 1,38,-1
 482 710 l 1,39,-1
 482 609 l 1,40,-1
 215 609 l 1,41,-1
 179 416 l 1,42,43
 196 435 196 435 224.5 445.5 c 128,-1,44
 253 456 253 456 291 456 c 0,0,1
EndSplineSet
Substitution2: "'lnum' Lining Figures in Latin lookup 3 subtable" five.lnum
Substitution2: "'aalt' Access All Alternates in Latin lookup 0 subtable" five.lnum
EndChar

StartChar: six
Encoding: 54 54 26
Width: 607
GlyphClass: 2
Flags: W
LayerCount: 2
Fore
SplineSet
564 236 m 0,0,1
 564 185 564 185 544.5 140 c 128,-1,2
 525 95 525 95 490.5 61.5 c 128,-1,3
 456 28 456 28 409 9 c 128,-1,4
 362 -10 362 -10 308 -10 c 0,5,6
 249 -10 249 -10 201 11.5 c 128,-1,7
 153 33 153 33 119 73.5 c 128,-1,8
 85 114 85 114 66.5 172.5 c 128,-1,9
 48 231 48 231 48 305 c 0,10,11
 48 407 48 407 67.5 483.5 c 128,-1,12
 87 560 87 560 122 611.5 c 128,-1,13
 157 663 157 663 207 689 c 128,-1,14
 257 715 257 715 319 715 c 0,15,16
 387 715 387 715 443.5 684 c 128,-1,17
 500 653 500 653 535 596 c 1,18,-1
 470 528 l 1,19,20
 447 570 447 570 406.5 594.5 c 128,-1,21
 366 619 366 619 317 619 c 0,22,23
 242 619 242 619 197.5 555.5 c 128,-1,24
 153 492 153 492 151 377 c 1,25,26
 173 422 173 422 217 448 c 128,-1,27
 261 474 261 474 318 474 c 0,28,29
 370 474 370 474 415 455.5 c 128,-1,30
 460 437 460 437 493 405 c 128,-1,31
 526 373 526 373 545 329.5 c 128,-1,32
 564 286 564 286 564 236 c 0,0,1
308 84 m 256,33,34
 339 84 339 84 366.5 96 c 128,-1,35
 394 108 394 108 414.5 129 c 128,-1,36
 435 150 435 150 447 177.5 c 128,-1,37
 459 205 459 205 459 236 c 256,38,39
 459 267 459 267 447 294 c 128,-1,40
 435 321 435 321 414.5 341.5 c 128,-1,41
 394 362 394 362 366.5 374 c 128,-1,42
 339 386 339 386 308 386 c 256,43,44
 277 386 277 386 249.5 374 c 128,-1,45
 222 362 222 362 201.5 341.5 c 128,-1,46
 181 321 181 321 169 294 c 128,-1,47
 157 267 157 267 157 236 c 256,48,49
 157 205 157 205 169 177.5 c 128,-1,50
 181 150 181 150 201.5 129 c 128,-1,51
 222 108 222 108 249.5 96 c 128,-1,52
 277 84 277 84 308 84 c 256,33,34
EndSplineSet
Substitution2: "'lnum' Lining Figures in Latin lookup 3 subtable" six.lnum
Substitution2: "'aalt' Access All Alternates in Latin lookup 0 subtable" six.lnum
EndChar

StartChar: seven
Encoding: 55 55 27
Width: 548
GlyphClass: 2
Flags: W
LayerCount: 2
Fore
SplineSet
377 609 m 1,0,-1
 33 609 l 1,1,-1
 33 710 l 1,2,-1
 551 710 l 1,3,-1
 195 0 l 1,4,-1
 71 0 l 1,5,-1
 377 609 l 1,0,-1
EndSplineSet
Substitution2: "'lnum' Lining Figures in Latin lookup 3 subtable" seven.lnum
Substitution2: "'aalt' Access All Alternates in Latin lookup 0 subtable" seven.lnum
EndChar

StartChar: eight
Encoding: 56 56 28
Width: 601
GlyphClass: 2
Flags: W
LayerCount: 2
Fore
SplineSet
554 205 m 0,0,1
 554 157 554 157 533.5 117.5 c 128,-1,2
 513 78 513 78 478 50 c 128,-1,3
 443 22 443 22 397 7 c 128,-1,4
 351 -8 351 -8 299 -8 c 0,5,6
 246 -8 246 -8 199.5 8.5 c 128,-1,7
 153 25 153 25 119 54 c 128,-1,8
 85 83 85 83 65.5 123 c 128,-1,9
 46 163 46 163 46 210 c 0,10,11
 46 241 46 241 57 268 c 128,-1,12
 68 295 68 295 85.5 316.5 c 128,-1,13
 103 338 103 338 125 354 c 128,-1,14
 147 370 147 370 169 380 c 1,15,16
 128 398 128 398 99 435 c 128,-1,17
 70 472 70 472 70 519 c 0,18,19
 70 565 70 565 91 600.5 c 128,-1,20
 112 636 112 636 145 660.5 c 128,-1,21
 178 685 178 685 219 697.5 c 128,-1,22
 260 710 260 710 300 710 c 256,23,24
 340 710 340 710 381.5 697.5 c 128,-1,25
 423 685 423 685 456.5 661 c 128,-1,26
 490 637 490 637 511 601.5 c 128,-1,27
 532 566 532 566 532 520 c 0,28,29
 532 473 532 473 502.5 435.5 c 128,-1,30
 473 398 473 398 431 380 c 1,31,32
 455 369 455 369 477.5 352.5 c 128,-1,33
 500 336 500 336 517 313.5 c 128,-1,34
 534 291 534 291 544 264 c 128,-1,35
 554 237 554 237 554 205 c 0,0,1
443 212 m 0,36,37
 443 241 443 241 430.5 263.5 c 128,-1,38
 418 286 418 286 397.5 302 c 128,-1,39
 377 318 377 318 351.5 326 c 128,-1,40
 326 334 326 334 300 334 c 0,41,42
 273 334 273 334 247.5 325.5 c 128,-1,43
 222 317 222 317 202.5 301 c 128,-1,44
 183 285 183 285 171 262.5 c 128,-1,45
 159 240 159 240 159 212 c 256,46,47
 159 184 159 184 171.5 161.5 c 128,-1,48
 184 139 184 139 204 123.5 c 128,-1,49
 224 108 224 108 249.5 99.5 c 128,-1,50
 275 91 275 91 301 91 c 0,51,52
 328 91 328 91 353.5 100 c 128,-1,53
 379 109 379 109 399 125 c 128,-1,54
 419 141 419 141 431 163 c 128,-1,55
 443 185 443 185 443 212 c 0,36,37
181 515 m 0,56,57
 181 491 181 491 192 473 c 128,-1,58
 203 455 203 455 220 443 c 128,-1,59
 237 431 237 431 258 424.5 c 128,-1,60
 279 418 279 418 300 418 c 256,61,62
 321 418 321 418 342.5 424.5 c 128,-1,63
 364 431 364 431 381 443.5 c 128,-1,64
 398 456 398 456 409 474.5 c 128,-1,65
 420 493 420 493 420 517 c 0,66,67
 420 539 420 539 410 556.5 c 128,-1,68
 400 574 400 574 383.5 586.5 c 128,-1,69
 367 599 367 599 345.5 605.5 c 128,-1,70
 324 612 324 612 300 612 c 256,71,72
 276 612 276 612 254.5 605 c 128,-1,73
 233 598 233 598 216.5 585.5 c 128,-1,74
 200 573 200 573 190.5 555 c 128,-1,75
 181 537 181 537 181 515 c 0,56,57
EndSplineSet
Substitution2: "'lnum' Lining Figures in Latin lookup 3 subtable" eight.lnum
Substitution2: "'aalt' Access All Alternates in Latin lookup 0 subtable" eight.lnum
EndChar

StartChar: nine
Encoding: 57 57 29
Width: 606
GlyphClass: 2
Flags: W
LayerCount: 2
Fore
SplineSet
42 469 m 0,0,1
 42 521 42 521 62 566 c 128,-1,2
 82 611 82 611 116.5 644 c 128,-1,3
 151 677 151 677 198 696 c 128,-1,4
 245 715 245 715 299 715 c 0,5,6
 358 715 358 715 406 693.5 c 128,-1,7
 454 672 454 672 487.5 631.5 c 128,-1,8
 521 591 521 591 539.5 533 c 128,-1,9
 558 475 558 475 558 401 c 0,10,11
 558 299 558 299 539 222.5 c 128,-1,12
 520 146 520 146 484.5 94 c 128,-1,13
 449 42 449 42 399 16 c 128,-1,14
 349 -10 349 -10 288 -10 c 0,15,16
 219 -10 219 -10 162.5 21.5 c 128,-1,17
 106 53 106 53 71 110 c 1,18,-1
 136 178 l 1,19,20
 159 136 159 136 200 111.5 c 128,-1,21
 241 87 241 87 289 87 c 0,22,23
 364 87 364 87 409 150 c 128,-1,24
 454 213 454 213 455 328 c 1,25,26
 434 283 434 283 389.5 257 c 128,-1,27
 345 231 345 231 288 231 c 0,28,29
 236 231 236 231 191 249.5 c 128,-1,30
 146 268 146 268 113 300 c 128,-1,31
 80 332 80 332 61 375.5 c 128,-1,32
 42 419 42 419 42 469 c 0,0,1
298 622 m 256,33,34
 267 622 267 622 240 610 c 128,-1,35
 213 598 213 598 192.5 577 c 128,-1,36
 172 556 172 556 160 528.5 c 128,-1,37
 148 501 148 501 148 470 c 256,38,39
 148 439 148 439 160 412 c 128,-1,40
 172 385 172 385 192.5 364.5 c 128,-1,41
 213 344 213 344 240.5 332 c 128,-1,42
 268 320 268 320 299 320 c 256,43,44
 330 320 330 320 357.5 332 c 128,-1,45
 385 344 385 344 405.5 364 c 128,-1,46
 426 384 426 384 438 411.5 c 128,-1,47
 450 439 450 439 450 469 c 0,48,49
 450 500 450 500 438 528 c 128,-1,50
 426 556 426 556 405 577 c 128,-1,51
 384 598 384 598 356.5 610 c 128,-1,52
 329 622 329 622 298 622 c 256,33,34
EndSplineSet
Substitution2: "'lnum' Lining Figures in Latin lookup 3 subtable" nine.lnum
Substitution2: "'aalt' Access All Alternates in Latin lookup 0 subtable" nine.lnum
EndChar

StartChar: colon
Encoding: 58 58 30
Width: 223
GlyphClass: 2
Flags: W
LayerCount: 2
Fore
SplineSet
66 391 m 1,0,-1
 66 518 l 1,1,-1
 157 518 l 1,2,-1
 157 391 l 1,3,-1
 66 391 l 1,0,-1
66 0 m 1,4,-1
 66 128 l 1,5,-1
 157 128 l 1,6,-1
 157 0 l 1,7,-1
 66 0 l 1,4,-1
EndSplineSet
EndChar

StartChar: semicolon
Encoding: 59 59 31
Width: 239
GlyphClass: 2
Flags: W
LayerCount: 2
Fore
SplineSet
71 391 m 1,0,-1
 71 518 l 1,1,-1
 161 518 l 1,2,-1
 161 391 l 1,3,-1
 71 391 l 1,0,-1
82 -97 m 1,4,-1
 106 6 l 1,5,-1
 70 6 l 1,6,-1
 70 128 l 1,7,-1
 169 128 l 1,8,-1
 169 6 l 1,9,-1
 134 -97 l 1,10,-1
 82 -97 l 1,4,-1
EndSplineSet
EndChar

StartChar: less
Encoding: 60 60 32
Width: 512
GlyphClass: 2
Flags: W
LayerCount: 2
Fore
SplineSet
33 284 m 1,0,-1
 453 538 l 1,1,-1
 453 421 l 1,2,-1
 192 259 l 1,3,-1
 453 101 l 1,4,-1
 453 -21 l 1,5,-1
 33 229 l 1,6,-1
 33 284 l 1,0,-1
EndSplineSet
EndChar

StartChar: equal
Encoding: 61 61 33
Width: 438
GlyphClass: 2
Flags: W
LayerCount: 2
Fore
SplineSet
64 162 m 1,0,-1
 64 235 l 1,1,-1
 373 235 l 1,2,-1
 373 162 l 1,3,-1
 64 162 l 1,0,-1
64 317 m 1,4,-1
 64 390 l 1,5,-1
 373 390 l 1,6,-1
 373 317 l 1,7,-1
 64 317 l 1,4,-1
EndSplineSet
EndChar

StartChar: greater
Encoding: 62 62 34
Width: 512
GlyphClass: 2
Flags: W
LayerCount: 2
Fore
SplineSet
480 229 m 1,0,-1
 59 -21 l 1,1,-1
 59 101 l 1,2,-1
 320 259 l 1,3,-1
 59 421 l 1,4,-1
 59 538 l 1,5,-1
 480 284 l 1,6,-1
 480 229 l 1,0,-1
EndSplineSet
EndChar

StartChar: question
Encoding: 63 63 35
Width: 482
GlyphClass: 2
Flags: W
LayerCount: 2
Fore
SplineSet
133 221 m 1,0,1
 133 273 133 273 150.5 313 c 128,-1,2
 168 353 168 353 216 382 c 0,3,4
 233 392 233 392 256 404.5 c 128,-1,5
 279 417 279 417 300 434 c 128,-1,6
 321 451 321 451 335.5 474 c 128,-1,7
 350 497 350 497 350 528 c 0,8,9
 350 552 350 552 340.5 571 c 128,-1,10
 331 590 331 590 316 603 c 128,-1,11
 301 616 301 616 281 622.5 c 128,-1,12
 261 629 261 629 240 629 c 0,13,14
 216 629 216 629 196 621.5 c 128,-1,15
 176 614 176 614 159 601.5 c 128,-1,16
 142 589 142 589 128.5 573 c 128,-1,17
 115 557 115 557 106 541 c 1,18,-1
 34 590 l 1,19,20
 61 652 61 652 118 685.5 c 128,-1,21
 175 719 175 719 243 719 c 0,22,23
 280 719 280 719 316.5 707.5 c 128,-1,24
 353 696 353 696 382 672.5 c 128,-1,25
 411 649 411 649 428.5 612 c 128,-1,26
 446 575 446 575 446 524 c 0,27,28
 446 489 446 489 437 463.5 c 128,-1,29
 428 438 428 438 412.5 417.5 c 128,-1,30
 397 397 397 397 375.5 381.5 c 128,-1,31
 354 366 354 366 330 353 c 0,32,33
 310 342 310 342 291 330.5 c 128,-1,34
 272 319 272 319 257.5 304 c 128,-1,35
 243 289 243 289 234 269 c 128,-1,36
 225 249 225 249 225 221 c 1,37,-1
 133 221 l 1,0,1
133 0 m 1,38,-1
 133 126 l 1,39,-1
 225 126 l 1,40,-1
 225 0 l 1,41,-1
 133 0 l 1,38,-1
EndSplineSet
EndChar

StartChar: at
Encoding: 64 64 36
Width: 843
GlyphClass: 2
Flags: W
LayerCount: 2
Fore
SplineSet
420 603 m 256,0,1
 494 603 494 603 561 577 c 128,-1,2
 628 551 628 551 679 502.5 c 128,-1,3
 730 454 730 454 760.5 383 c 128,-1,4
 791 312 791 312 791 222 c 0,5,6
 791 208 791 208 789.5 184.5 c 128,-1,7
 788 161 788 161 783 135 c 128,-1,8
 778 109 778 109 768 82 c 128,-1,9
 758 55 758 55 741 33 c 128,-1,10
 724 11 724 11 699 -2.5 c 128,-1,11
 674 -16 674 -16 639 -16 c 0,12,13
 613 -16 613 -16 596 -8.5 c 128,-1,14
 579 -1 579 -1 569 11 c 128,-1,15
 559 23 559 23 554.5 38.5 c 128,-1,16
 550 54 550 54 548 70 c 1,17,18
 519 39 519 39 474.5 19.5 c 128,-1,19
 430 0 430 0 378 0 c 0,20,21
 304 0 304 0 265 39 c 128,-1,22
 226 78 226 78 226 138 c 0,23,24
 226 178 226 178 242.5 205.5 c 128,-1,25
 259 233 259 233 285.5 249.5 c 128,-1,26
 312 266 312 266 345.5 273 c 128,-1,27
 379 280 379 280 412 280 c 0,28,29
 454 280 454 280 485 272 c 128,-1,30
 516 264 516 264 531 258 c 1,31,32
 531 288 531 288 526 313 c 128,-1,33
 521 338 521 338 507.5 356 c 128,-1,34
 494 374 494 374 471 384 c 128,-1,35
 448 394 448 394 413 394 c 0,36,37
 372 394 372 394 337.5 382 c 128,-1,38
 303 370 303 370 277 349 c 1,39,-1
 255 409 l 1,40,41
 292 433 292 433 334 446 c 128,-1,42
 376 459 376 459 423 459 c 0,43,44
 484 459 484 459 519.5 439.5 c 128,-1,45
 555 420 555 420 572.5 390 c 128,-1,46
 590 360 590 360 594.5 323 c 128,-1,47
 599 286 599 286 599 252 c 2,48,-1
 599 144 l 2,49,50
 599 122 599 122 600.5 102.5 c 128,-1,51
 602 83 602 83 607 68 c 128,-1,52
 612 53 612 53 622 44.5 c 128,-1,53
 632 36 632 36 649 36 c 0,54,55
 677 36 677 36 695.5 56.5 c 128,-1,56
 714 77 714 77 724 106.5 c 128,-1,57
 734 136 734 136 738 168.5 c 128,-1,58
 742 201 742 201 742 224 c 0,59,60
 742 295 742 295 718 356 c 128,-1,61
 694 417 694 417 651 461.5 c 128,-1,62
 608 506 608 506 548 531.5 c 128,-1,63
 488 557 488 557 417 557 c 0,64,65
 347 557 347 557 288 532.5 c 128,-1,66
 229 508 229 508 185.5 464.5 c 128,-1,67
 142 421 142 421 117.5 361 c 128,-1,68
 93 301 93 301 93 230 c 0,69,70
 93 162 93 162 116 102 c 128,-1,71
 139 42 139 42 180.5 -3 c 128,-1,72
 222 -48 222 -48 280 -74 c 128,-1,73
 338 -100 338 -100 408 -100 c 0,74,75
 455 -100 455 -100 490.5 -89.5 c 128,-1,76
 526 -79 526 -79 563 -62 c 1,77,-1
 579 -106 l 1,78,79
 537 -126 537 -126 494 -136 c 128,-1,80
 451 -146 451 -146 407 -146 c 0,81,82
 332 -146 332 -146 266 -118.5 c 128,-1,83
 200 -91 200 -91 150.5 -41 c 128,-1,84
 101 9 101 9 72.5 78 c 128,-1,85
 44 147 44 147 44 230 c 0,86,87
 44 317 44 317 75 386.5 c 128,-1,88
 106 456 106 456 158 504 c 128,-1,89
 210 552 210 552 278 577.5 c 128,-1,90
 346 603 346 603 420 603 c 256,0,1
474 81 m 0,91,92
 507 97 507 97 518.5 119.5 c 128,-1,93
 530 142 530 142 530 166 c 2,94,-1
 530 204 l 1,95,96
 516 207 516 207 485 216 c 128,-1,97
 454 225 454 225 412 225 c 0,98,99
 363 225 363 225 328.5 206 c 128,-1,100
 294 187 294 187 294 141 c 0,101,102
 294 106 294 106 318 83 c 128,-1,103
 342 60 342 60 384 60 c 0,104,105
 406 60 406 60 430 66 c 128,-1,106
 454 72 454 72 474 81 c 0,91,92
EndSplineSet
EndChar

StartChar: A
Encoding: 65 65 37
Width: 675
GlyphClass: 2
Flags: W
LayerCount: 2
Fore
SplineSet
289 710 m 1,0,-1
 387 710 l 1,1,-1
 667 0 l 1,2,-1
 549 0 l 1,3,-1
 474 193 l 1,4,-1
 200 193 l 1,5,-1
 126 0 l 1,6,-1
 7 0 l 1,7,-1
 289 710 l 1,0,-1
452 276 m 1,8,-1
 338 581 l 1,9,-1
 220 276 l 1,10,-1
 452 276 l 1,8,-1
EndSplineSet
EndChar

StartChar: B
Encoding: 66 66 38
Width: 675
GlyphClass: 2
Flags: W
LayerCount: 2
Fore
SplineSet
638 183 m 0,0,1
 638 140 638 140 620.5 106 c 128,-1,2
 603 72 603 72 573.5 48.5 c 128,-1,3
 544 25 544 25 504 12.5 c 128,-1,4
 464 0 464 0 419 0 c 2,5,-1
 80 0 l 1,6,-1
 80 710 l 1,7,-1
 446 710 l 2,8,9
 483 710 483 710 513 694 c 128,-1,10
 543 678 543 678 564 652.5 c 128,-1,11
 585 627 585 627 596.5 594.5 c 128,-1,12
 608 562 608 562 608 529 c 0,13,14
 608 477 608 477 581.5 431.5 c 128,-1,15
 555 386 555 386 506 364 c 1,16,17
 567 346 567 346 602.5 298.5 c 128,-1,18
 638 251 638 251 638 183 c 0,0,1
523 204 m 256,19,20
 523 226 523 226 515.5 246 c 128,-1,21
 508 266 508 266 495.5 281 c 128,-1,22
 483 296 483 296 465 305 c 128,-1,23
 447 314 447 314 426 314 c 2,24,-1
 192 314 l 1,25,-1
 192 97 l 1,26,-1
 419 97 l 2,27,28
 441 97 441 97 460 105.5 c 128,-1,29
 479 114 479 114 493 128.5 c 128,-1,30
 507 143 507 143 515 162.5 c 128,-1,31
 523 182 523 182 523 204 c 256,19,20
192 613 m 1,32,-1
 192 404 l 1,33,-1
 398 404 l 2,34,35
 419 404 419 404 436.5 412 c 128,-1,36
 454 420 454 420 467.5 433.5 c 128,-1,37
 481 447 481 447 488.5 466 c 128,-1,38
 496 485 496 485 496 508 c 0,39,40
 496 554 496 554 470 583.5 c 128,-1,41
 444 613 444 613 404 613 c 2,42,-1
 192 613 l 1,32,-1
EndSplineSet
EndChar

StartChar: C
Encoding: 67 67 39
Width: 684
GlyphClass: 2
Flags: W
LayerCount: 2
Fore
SplineSet
35 360 m 0,0,1
 35 424 35 424 58 487.5 c 128,-1,2
 81 551 81 551 125.5 601.5 c 128,-1,3
 170 652 170 652 234 683 c 128,-1,4
 298 714 298 714 379 714 c 0,5,6
 476 714 476 714 545 671 c 128,-1,7
 614 628 614 628 649 559 c 1,8,-1
 561 500 l 1,9,10
 546 532 546 532 525 554 c 128,-1,11
 504 576 504 576 479 589 c 128,-1,12
 454 602 454 602 427 607.5 c 128,-1,13
 400 613 400 613 375 613 c 0,14,15
 319 613 319 613 277 590.5 c 128,-1,16
 235 568 235 568 206.5 531 c 128,-1,17
 178 494 178 494 163.5 448 c 128,-1,18
 149 402 149 402 149 356 c 0,19,20
 149 304 149 304 166 257 c 128,-1,21
 183 210 183 210 213.5 174 c 128,-1,22
 244 138 244 138 286 116.5 c 128,-1,23
 328 95 328 95 378 95 c 0,24,25
 404 95 404 95 431.5 101.5 c 128,-1,26
 459 108 459 108 484.5 122.5 c 128,-1,27
 510 137 510 137 531.5 159 c 128,-1,28
 553 181 553 181 567 212 c 1,29,-1
 660 159 l 1,30,31
 643 119 643 119 612 88.5 c 128,-1,32
 581 58 581 58 542 37 c 128,-1,33
 503 16 503 16 459.5 5 c 128,-1,34
 416 -6 416 -6 374 -6 c 0,35,36
 299 -6 299 -6 237 26 c 128,-1,37
 175 58 175 58 130 109.5 c 128,-1,38
 85 161 85 161 60 226.5 c 128,-1,39
 35 292 35 292 35 360 c 0,0,1
EndSplineSet
EndChar

StartChar: D
Encoding: 68 68 40
Width: 716
GlyphClass: 2
Flags: W
LayerCount: 2
Fore
SplineSet
80 0 m 1,0,-1
 80 710 l 1,1,-1
 332 710 l 2,2,3
 418 710 418 710 482.5 682 c 128,-1,4
 547 654 547 654 590.5 606 c 128,-1,5
 634 558 634 558 656 493.5 c 128,-1,6
 678 429 678 429 678 356 c 0,7,8
 678 275 678 275 653.5 209.5 c 128,-1,9
 629 144 629 144 584 97.5 c 128,-1,10
 539 51 539 51 475 25.5 c 128,-1,11
 411 0 411 0 332 0 c 2,12,-1
 80 0 l 1,0,-1
564 356 m 0,13,14
 564 412 564 412 548.5 459 c 128,-1,15
 533 506 533 506 503 539.5 c 128,-1,16
 473 573 473 573 430 592 c 128,-1,17
 387 611 387 611 332 611 c 2,18,-1
 192 611 l 1,19,-1
 192 99 l 1,20,-1
 332 99 l 2,21,22
 388 99 388 99 431.5 118.5 c 128,-1,23
 475 138 475 138 504.5 172.5 c 128,-1,24
 534 207 534 207 549 254 c 128,-1,25
 564 301 564 301 564 356 c 0,13,14
EndSplineSet
EndChar

StartChar: E
Encoding: 69 69 41
Width: 603
GlyphClass: 2
Flags: W
LayerCount: 2
Fore
SplineSet
567 99 m 1,0,-1
 567 0 l 1,1,-1
 80 0 l 1,2,-1
 80 710 l 1,3,-1
 558 710 l 1,4,-1
 558 611 l 1,5,-1
 192 611 l 1,6,-1
 192 409 l 1,7,-1
 509 409 l 1,8,-1
 509 316 l 1,9,-1
 192 316 l 1,10,-1
 192 99 l 1,11,-1
 567 99 l 1,0,-1
EndSplineSet
EndChar

StartChar: F
Encoding: 70 70 42
Width: 579
GlyphClass: 2
Flags: W
LayerCount: 2
Fore
SplineSet
80 0 m 1,0,-1
 80 710 l 1,1,-1
 553 710 l 1,2,-1
 553 611 l 1,3,-1
 192 611 l 1,4,-1
 192 399 l 1,5,-1
 494 399 l 1,6,-1
 494 306 l 1,7,-1
 192 306 l 1,8,-1
 192 0 l 1,9,-1
 80 0 l 1,0,-1
EndSplineSet
EndChar

StartChar: G
Encoding: 71 71 43
Width: 719
GlyphClass: 2
Flags: W
LayerCount: 2
Fore
SplineSet
577 88 m 1,0,1
 487 -5 487 -5 370 -5 c 0,2,3
 299 -5 299 -5 238 24.5 c 128,-1,4
 177 54 177 54 132 104 c 128,-1,5
 87 154 87 154 61.5 220 c 128,-1,6
 36 286 36 286 36 358 c 256,7,8
 36 430 36 430 61.5 495 c 128,-1,9
 87 560 87 560 132 609 c 128,-1,10
 177 658 177 658 239 686.5 c 128,-1,11
 301 715 301 715 374 715 c 0,12,13
 476 715 476 715 545 672.5 c 128,-1,14
 614 630 614 630 649 560 c 1,15,-1
 563 498 l 1,16,17
 534 556 534 556 483 585 c 128,-1,18
 432 614 432 614 371 614 c 0,19,20
 321 614 321 614 280 592.5 c 128,-1,21
 239 571 239 571 210 535.5 c 128,-1,22
 181 500 181 500 165.5 453 c 128,-1,23
 150 406 150 406 150 355 c 0,24,25
 150 301 150 301 167.5 254 c 128,-1,26
 185 207 185 207 215.5 172 c 128,-1,27
 246 137 246 137 288 116.5 c 128,-1,28
 330 96 330 96 379 96 c 0,29,30
 433 96 433 96 482.5 121 c 128,-1,31
 532 146 532 146 577 200 c 1,32,-1
 577 276 l 1,33,-1
 428 276 l 1,34,-1
 428 359 l 1,35,-1
 671 359 l 1,36,-1
 671 0 l 1,37,-1
 577 0 l 1,38,-1
 577 88 l 1,0,1
EndSplineSet
Substitution2: "'ss01' Style Set 1 in Latin lookup 8 subtable" G.alt
Substitution2: "'salt' Stylistic Alternatives in Latin lookup 5 subtable" G.alt
Substitution2: "'aalt' Access All Alternates in Latin lookup 0 subtable" G.alt
EndChar

StartChar: H
Encoding: 72 72 44
Width: 743
GlyphClass: 2
Flags: W
LayerCount: 2
Fore
SplineSet
663 710 m 1,0,-1
 663 0 l 1,1,-1
 550 0 l 1,2,-1
 550 313 l 1,3,-1
 192 313 l 1,4,-1
 192 0 l 1,5,-1
 80 0 l 1,6,-1
 80 710 l 1,7,-1
 192 710 l 1,8,-1
 192 413 l 1,9,-1
 550 413 l 1,10,-1
 550 710 l 1,11,-1
 663 710 l 1,0,-1
EndSplineSet
EndChar

StartChar: I
Encoding: 73 73 45
Width: 272
GlyphClass: 2
Flags: W
LayerCount: 2
Fore
SplineSet
80 0 m 1,0,-1
 80 710 l 1,1,-1
 192 710 l 1,2,-1
 192 0 l 1,3,-1
 80 0 l 1,0,-1
EndSplineSet
EndChar

StartChar: J
Encoding: 74 74 46
Width: 488
GlyphClass: 2
Flags: W
LayerCount: 2
Fore
SplineSet
37 125 m 1,0,1
 54 113 54 113 87.5 101.5 c 128,-1,2
 121 90 121 90 164 90 c 0,3,4
 210 90 210 90 237.5 106.5 c 128,-1,5
 265 123 265 123 279.5 155.5 c 128,-1,6
 294 188 294 188 298.5 236.5 c 128,-1,7
 303 285 303 285 303 349 c 2,8,-1
 303 710 l 1,9,-1
 416 710 l 1,10,-1
 416 349 l 2,11,12
 416 268 416 268 408 201.5 c 128,-1,13
 400 135 400 135 374 88 c 128,-1,14
 348 41 348 41 298 15 c 128,-1,15
 248 -11 248 -11 164 -11 c 0,16,17
 74 -11 74 -11 10 33 c 1,18,-1
 37 125 l 1,0,1
EndSplineSet
EndChar

StartChar: K
Encoding: 75 75 47
Width: 660
GlyphClass: 2
Flags: W
LayerCount: 2
Fore
SplineSet
80 0 m 1,0,-1
 80 709 l 1,1,-1
 192 709 l 1,2,-1
 192 344 l 1,3,-1
 526 710 l 1,4,-1
 650 710 l 1,5,-1
 370 396 l 1,6,-1
 666 0 l 1,7,-1
 541 0 l 1,8,-1
 301 327 l 1,9,-1
 192 214 l 1,10,-1
 192 0 l 1,11,-1
 80 0 l 1,0,-1
EndSplineSet
EndChar

StartChar: L
Encoding: 76 76 48
Width: 584
GlyphClass: 2
Flags: W
LayerCount: 2
Fore
SplineSet
80 0 m 1,0,-1
 80 710 l 1,1,-1
 192 710 l 1,2,-1
 192 99 l 1,3,-1
 573 99 l 1,4,-1
 573 0 l 1,5,-1
 80 0 l 1,0,-1
EndSplineSet
EndChar

StartChar: M
Encoding: 77 77 49
Width: 870
GlyphClass: 2
Flags: W
LayerCount: 2
Fore
SplineSet
677 0 m 1,0,-1
 677 511 l 1,1,-1
 466 124 l 1,2,-1
 404 124 l 1,3,-1
 192 511 l 1,4,-1
 192 0 l 1,5,-1
 80 0 l 1,6,-1
 80 710 l 1,7,-1
 200 710 l 1,8,-1
 435 276 l 1,9,-1
 670 710 l 1,10,-1
 790 710 l 1,11,-1
 790 0 l 1,12,-1
 677 0 l 1,0,-1
EndSplineSet
EndChar

StartChar: N
Encoding: 78 78 50
Width: 767
GlyphClass: 2
Flags: W
LayerCount: 2
Fore
SplineSet
192 500 m 1,0,-1
 192 0 l 1,1,-1
 80 0 l 1,2,-1
 80 710 l 1,3,-1
 168 710 l 1,4,-1
 574 198 l 1,5,-1
 574 709 l 1,6,-1
 687 709 l 1,7,-1
 687 0 l 1,8,-1
 594 0 l 1,9,-1
 192 500 l 1,0,-1
EndSplineSet
EndChar

StartChar: O
Encoding: 79 79 51
Width: 752
GlyphClass: 2
Flags: W
LayerCount: 2
Fore
SplineSet
375 -5 m 0,0,1
 299 -5 299 -5 236.5 25.5 c 128,-1,2
 174 56 174 56 129 106.5 c 128,-1,3
 84 157 84 157 59.5 222 c 128,-1,4
 35 287 35 287 35 355 c 0,5,6
 35 426 35 426 61 491 c 128,-1,7
 87 556 87 556 132.5 606 c 128,-1,8
 178 656 178 656 240.5 685.5 c 128,-1,9
 303 715 303 715 377 715 c 0,10,11
 453 715 453 715 515.5 683.5 c 128,-1,12
 578 652 578 652 622.5 601 c 128,-1,13
 667 550 667 550 691.5 485.5 c 128,-1,14
 716 421 716 421 716 354 c 0,15,16
 716 283 716 283 690.5 218 c 128,-1,17
 665 153 665 153 619 103.5 c 128,-1,18
 573 54 573 54 510.5 24.5 c 128,-1,19
 448 -5 448 -5 375 -5 c 0,0,1
149 355 m 0,20,21
 149 305 149 305 165 258 c 128,-1,22
 181 211 181 211 210.5 175 c 128,-1,23
 240 139 240 139 282 117.5 c 128,-1,24
 324 96 324 96 376 96 c 0,25,26
 430 96 430 96 471.5 118.5 c 128,-1,27
 513 141 513 141 542 178 c 128,-1,28
 571 215 571 215 586 261 c 128,-1,29
 601 307 601 307 601 355 c 0,30,31
 601 406 601 406 585 452.5 c 128,-1,32
 569 499 569 499 539.5 534.5 c 128,-1,33
 510 570 510 570 468.5 591.5 c 128,-1,34
 427 613 427 613 376 613 c 0,35,36
 322 613 322 613 280 590.5 c 128,-1,37
 238 568 238 568 209 532 c 128,-1,38
 180 496 180 496 164.5 449.5 c 128,-1,39
 149 403 149 403 149 355 c 0,20,21
EndSplineSet
EndChar

StartChar: P
Encoding: 80 80 52
Width: 623
GlyphClass: 2
Flags: W
LayerCount: 2
Fore
SplineSet
80 0 m 1,0,-1
 80 710 l 1,1,-1
 378 710 l 2,2,3
 426 710 426 710 466.5 690 c 128,-1,4
 507 670 507 670 536 637.5 c 128,-1,5
 565 605 565 605 581.5 563.5 c 128,-1,6
 598 522 598 522 598 479 c 0,7,8
 598 434 598 434 582.5 392.5 c 128,-1,9
 567 351 567 351 539 318.5 c 128,-1,10
 511 286 511 286 471.5 266.5 c 128,-1,11
 432 247 432 247 384 247 c 2,12,-1
 192 247 l 1,13,-1
 192 0 l 1,14,-1
 80 0 l 1,0,-1
192 346 m 1,15,-1
 377 346 l 2,16,17
 401 346 401 346 420.5 356 c 128,-1,18
 440 366 440 366 454 384 c 128,-1,19
 468 402 468 402 476 426 c 128,-1,20
 484 450 484 450 484 479 c 0,21,22
 484 509 484 509 475 533 c 128,-1,23
 466 557 466 557 450 574.5 c 128,-1,24
 434 592 434 592 413.5 601.5 c 128,-1,25
 393 611 393 611 371 611 c 2,26,-1
 192 611 l 1,27,-1
 192 346 l 1,15,-1
EndSplineSet
EndChar

StartChar: Q
Encoding: 81 81 53
Width: 750
GlyphClass: 2
Flags: W
LayerCount: 2
Fore
SplineSet
560 52 m 1,0,1
 520 25 520 25 473.5 10 c 128,-1,2
 427 -5 427 -5 375 -5 c 0,3,4
 299 -5 299 -5 236.5 26 c 128,-1,5
 174 57 174 57 129 107 c 128,-1,6
 84 157 84 157 59.5 222 c 128,-1,7
 35 287 35 287 35 355 c 0,8,9
 35 426 35 426 61 491 c 128,-1,10
 87 556 87 556 132.5 606 c 128,-1,11
 178 656 178 656 240.5 685.5 c 128,-1,12
 303 715 303 715 377 715 c 0,13,14
 453 715 453 715 515.5 683.5 c 128,-1,15
 578 652 578 652 622.5 601 c 128,-1,16
 667 550 667 550 691.5 485.5 c 128,-1,17
 716 421 716 421 716 354 c 0,18,19
 716 283 716 283 691 219.5 c 128,-1,20
 666 156 666 156 621 106 c 1,21,-1
 714 0 l 1,22,-1
 606 0 l 1,23,-1
 560 52 l 1,0,1
376 96 m 0,24,25
 409 96 409 96 438 105 c 128,-1,26
 467 114 467 114 491 130 c 1,27,-1
 390 247 l 1,28,-1
 498 247 l 1,29,-1
 549 188 l 1,30,31
 575 223 575 223 588 266.5 c 128,-1,32
 601 310 601 310 601 355 c 0,33,34
 601 406 601 406 585 452.5 c 128,-1,35
 569 499 569 499 539.5 535 c 128,-1,36
 510 571 510 571 468.5 592.5 c 128,-1,37
 427 614 427 614 376 614 c 0,38,39
 322 614 322 614 280 591.5 c 128,-1,40
 238 569 238 569 209 532.5 c 128,-1,41
 180 496 180 496 164.5 449.5 c 128,-1,42
 149 403 149 403 149 355 c 0,43,44
 149 305 149 305 165 258 c 128,-1,45
 181 211 181 211 210.5 175 c 128,-1,46
 240 139 240 139 282 117.5 c 128,-1,47
 324 96 324 96 376 96 c 0,24,25
EndSplineSet
EndChar

StartChar: R
Encoding: 82 82 54
Width: 661
GlyphClass: 2
Flags: W
LayerCount: 2
Fore
SplineSet
80 0 m 1,0,-1
 80 710 l 1,1,-1
 389 710 l 2,2,3
 437 710 437 710 477.5 690 c 128,-1,4
 518 670 518 670 547 637.5 c 128,-1,5
 576 605 576 605 592.5 563.5 c 128,-1,6
 609 522 609 522 609 479 c 0,7,8
 609 443 609 443 599 410 c 128,-1,9
 589 377 589 377 571 349 c 128,-1,10
 553 321 553 321 527 300.5 c 128,-1,11
 501 280 501 280 470 270 c 1,12,-1
 637 0 l 1,13,-1
 510 0 l 1,14,-1
 356 247 l 1,15,-1
 192 247 l 1,16,-1
 192 0 l 1,17,-1
 80 0 l 1,0,-1
192 346 m 1,18,-1
 388 346 l 2,19,20
 412 346 412 346 431.5 356.5 c 128,-1,21
 451 367 451 367 465 385.5 c 128,-1,22
 479 404 479 404 487 428 c 128,-1,23
 495 452 495 452 495 479 c 256,24,25
 495 506 495 506 485.5 530 c 128,-1,26
 476 554 476 554 460.5 572 c 128,-1,27
 445 590 445 590 424.5 600.5 c 128,-1,28
 404 611 404 611 382 611 c 2,29,-1
 192 611 l 1,30,-1
 192 346 l 1,18,-1
EndSplineSet
EndChar

StartChar: S
Encoding: 83 83 55
Width: 611
GlyphClass: 2
Flags: W
LayerCount: 2
Fore
SplineSet
500 543 m 1,0,1
 490 554 490 554 471 566.5 c 128,-1,2
 452 579 452 579 426.5 590 c 128,-1,3
 401 601 401 601 370.5 608 c 128,-1,4
 340 615 340 615 308 615 c 0,5,6
 237 615 237 615 203.5 589 c 128,-1,7
 170 563 170 563 170 517 c 0,8,9
 170 491 170 491 180.5 474.5 c 128,-1,10
 191 458 191 458 213 445.5 c 128,-1,11
 235 433 235 433 268 423.5 c 128,-1,12
 301 414 301 414 345 403 c 0,13,14
 399 390 399 390 442.5 374 c 128,-1,15
 486 358 486 358 516 335 c 128,-1,16
 546 312 546 312 562.5 278.5 c 128,-1,17
 579 245 579 245 579 197 c 0,18,19
 579 143 579 143 558.5 104 c 128,-1,20
 538 65 538 65 502.5 40.5 c 128,-1,21
 467 16 467 16 420 4.5 c 128,-1,22
 373 -7 373 -7 319 -7 c 0,23,24
 238 -7 238 -7 162.5 17.5 c 128,-1,25
 87 42 87 42 26 89 c 1,26,-1
 77 185 l 1,27,28
 90 172 90 172 114.5 156 c 128,-1,29
 139 140 139 140 171.5 126.5 c 128,-1,30
 204 113 204 113 242 103.5 c 128,-1,31
 280 94 280 94 321 94 c 0,32,33
 387 94 387 94 423 117 c 128,-1,34
 459 140 459 140 459 185 c 0,35,36
 459 212 459 212 445.5 230 c 128,-1,37
 432 248 432 248 407 261.5 c 128,-1,38
 382 275 382 275 346 286 c 128,-1,39
 310 297 310 297 264 309 c 0,40,41
 211 323 211 323 171.5 338.5 c 128,-1,42
 132 354 132 354 106 376 c 128,-1,43
 80 398 80 398 66.5 427.5 c 128,-1,44
 53 457 53 457 53 499 c 0,45,46
 53 551 53 551 73 591.5 c 128,-1,47
 93 632 93 632 127.5 659.5 c 128,-1,48
 162 687 162 687 209 701 c 128,-1,49
 256 715 256 715 311 715 c 0,50,51
 383 715 383 715 444 692 c 128,-1,52
 505 669 505 669 551 635 c 1,53,-1
 500 543 l 1,0,1
EndSplineSet
EndChar

StartChar: T
Encoding: 84 84 56
Width: 616
GlyphClass: 2
Flags: W
LayerCount: 2
Fore
SplineSet
601 611 m 1,0,-1
 365 611 l 1,1,-1
 365 0 l 1,2,-1
 252 0 l 1,3,-1
 252 611 l 1,4,-1
 15 611 l 1,5,-1
 15 710 l 1,6,-1
 601 710 l 1,7,-1
 601 611 l 1,0,-1
EndSplineSet
EndChar

StartChar: U
Encoding: 85 85 57
Width: 752
GlyphClass: 2
Flags: W
LayerCount: 2
Fore
SplineSet
376 96 m 0,0,1
 432 96 432 96 469 118 c 128,-1,2
 506 140 506 140 528.5 175.5 c 128,-1,3
 551 211 551 211 560.5 256.5 c 128,-1,4
 570 302 570 302 570 350 c 2,5,-1
 570 710 l 1,6,-1
 683 710 l 1,7,-1
 683 350 l 2,8,9
 683 277 683 277 666 212.5 c 128,-1,10
 649 148 649 148 612 99.5 c 128,-1,11
 575 51 575 51 516.5 23 c 128,-1,12
 458 -5 458 -5 376 -5 c 0,13,14
 291 -5 291 -5 232.5 24.5 c 128,-1,15
 174 54 174 54 138 103.5 c 128,-1,16
 102 153 102 153 86 217 c 128,-1,17
 70 281 70 281 70 350 c 2,18,-1
 70 710 l 1,19,-1
 182 710 l 1,20,-1
 182 350 l 2,21,22
 182 301 182 301 191.5 255.5 c 128,-1,23
 201 210 201 210 223.5 174.5 c 128,-1,24
 246 139 246 139 283.5 117.5 c 128,-1,25
 321 96 321 96 376 96 c 0,0,1
EndSplineSet
EndChar

StartChar: V
Encoding: 86 86 58
Width: 678
GlyphClass: 2
Flags: W
LayerCount: 2
Fore
SplineSet
125 710 m 1,0,-1
 339 141 l 1,1,-1
 552 710 l 1,2,-1
 671 710 l 1,3,-1
 387 0 l 1,4,-1
 291 0 l 1,5,-1
 6 710 l 1,6,-1
 125 710 l 1,0,-1
EndSplineSet
EndChar

StartChar: W
Encoding: 87 87 59
Width: 1051
GlyphClass: 2
Flags: W
LayerCount: 2
Fore
SplineSet
332 707 m 1,0,-1
 438 707 l 1,1,-1
 525 466 l 1,2,-1
 613 707 l 1,3,-1
 718 707 l 1,4,-1
 597 391 l 1,5,-1
 703 130 l 1,6,-1
 924 710 l 1,7,-1
 1047 710 l 1,8,-1
 754 0 l 1,9,-1
 658 0 l 1,10,-1
 526 318 l 1,11,-1
 393 0 l 1,12,-1
 297 0 l 1,13,-1
 4 710 l 1,14,-1
 126 710 l 1,15,-1
 348 130 l 1,16,-1
 454 391 l 1,17,-1
 332 707 l 1,0,-1
EndSplineSet
Substitution2: "'ss01' Style Set 1 in Latin lookup 8 subtable" W.alt
Substitution2: "'salt' Stylistic Alternatives in Latin lookup 5 subtable" W.alt
Substitution2: "'aalt' Access All Alternates in Latin lookup 0 subtable" W.alt
EndChar

StartChar: X
Encoding: 88 88 60
Width: 641
GlyphClass: 2
Flags: W
LayerCount: 2
Fore
SplineSet
124 710 m 1,0,-1
 321 430 l 1,1,-1
 518 710 l 1,2,-1
 641 710 l 1,3,-1
 381 350 l 1,4,-1
 633 0 l 1,5,-1
 510 0 l 1,6,-1
 321 270 l 1,7,-1
 132 0 l 1,8,-1
 8 0 l 1,9,-1
 261 350 l 1,10,-1
 0 710 l 1,11,-1
 124 710 l 1,0,-1
EndSplineSet
EndChar

StartChar: Y
Encoding: 89 89 61
Width: 657
GlyphClass: 2
Flags: W
LayerCount: 2
Fore
SplineSet
132 710 m 1,0,-1
 328 354 l 1,1,-1
 526 710 l 1,2,-1
 649 710 l 1,3,-1
 384 254 l 1,4,-1
 384 0 l 1,5,-1
 272 0 l 1,6,-1
 272 256 l 1,7,-1
 9 710 l 1,8,-1
 132 710 l 1,0,-1
EndSplineSet
EndChar

StartChar: Z
Encoding: 90 90 62
Width: 629
GlyphClass: 2
Flags: W
LayerCount: 2
Fore
SplineSet
31 86 m 1,0,-1
 462 611 l 1,1,-1
 41 611 l 1,2,-1
 41 710 l 1,3,-1
 593 710 l 1,4,-1
 593 624 l 1,5,-1
 172 99 l 1,6,-1
 594 99 l 1,7,-1
 594 0 l 1,8,-1
 31 0 l 1,9,-1
 31 86 l 1,0,-1
EndSplineSet
EndChar

StartChar: bracketleft
Encoding: 91 91 63
Width: 292
GlyphClass: 2
Flags: W
LayerCount: 2
Fore
SplineSet
83 -40 m 1,0,-1
 83 740 l 1,1,-1
 246 740 l 1,2,-1
 246 651 l 1,3,-1
 185 651 l 1,4,-1
 185 49 l 1,5,-1
 246 49 l 1,6,-1
 246 -40 l 1,7,-1
 83 -40 l 1,0,-1
EndSplineSet
EndChar

StartChar: backslash
Encoding: 92 92 64
Width: 612
GlyphClass: 2
Flags: W
LayerCount: 2
Fore
SplineSet
150 710 m 1,0,-1
 585 0 l 1,1,-1
 463 0 l 1,2,-1
 27 710 l 1,3,-1
 150 710 l 1,0,-1
EndSplineSet
EndChar

StartChar: bracketright
Encoding: 93 93 65
Width: 292
GlyphClass: 2
Flags: W
LayerCount: 2
Fore
SplineSet
46 -40 m 1,0,-1
 46 49 l 1,1,-1
 107 49 l 1,2,-1
 107 651 l 1,3,-1
 46 651 l 1,4,-1
 46 740 l 1,5,-1
 209 740 l 1,6,-1
 209 -40 l 1,7,-1
 46 -40 l 1,0,-1
EndSplineSet
EndChar

StartChar: asciicircum
Encoding: 94 94 66
Width: 569
GlyphClass: 2
Flags: W
LayerCount: 2
Fore
SplineSet
41 303 m 1,0,-1
 239 710 l 1,1,-1
 331 710 l 1,2,-1
 528 303 l 1,3,-1
 436 303 l 1,4,-1
 285 615 l 1,5,-1
 131 303 l 1,6,-1
 41 303 l 1,0,-1
EndSplineSet
EndChar

StartChar: underscore
Encoding: 95 95 67
Width: 490
GlyphClass: 2
Flags: W
LayerCount: 2
Fore
SplineSet
59 -99 m 1,0,-1
 59 0 l 1,1,-1
 431 0 l 1,2,-1
 431 -99 l 1,3,-1
 59 -99 l 1,0,-1
EndSplineSet
EndChar

StartChar: grave
Encoding: 96 96 68
Width: 243
GlyphClass: 2
Flags: W
LayerCount: 2
Fore
SplineSet
47 730 m 1,0,-1
 152 730 l 1,1,-1
 209 620 l 1,2,-1
 139 598 l 1,3,-1
 47 730 l 1,0,-1
EndSplineSet
EndChar

StartChar: a
Encoding: 97 97 69
Width: 564
GlyphClass: 2
Flags: W
LayerCount: 2
Fore
SplineSet
205 -10 m 0,0,1
 167 -10 167 -10 134.5 2.5 c 128,-1,2
 102 15 102 15 78.5 37 c 128,-1,3
 55 59 55 59 41.5 89 c 128,-1,4
 28 119 28 119 28 154 c 0,5,6
 28 191 28 191 44 221 c 128,-1,7
 60 251 60 251 89.5 273 c 128,-1,8
 119 295 119 295 159.5 307 c 128,-1,9
 200 319 200 319 249 319 c 0,10,11
 286 319 286 319 322 312.5 c 128,-1,12
 358 306 358 306 387 295 c 1,13,-1
 387 331 l 2,14,15
 387 389 387 389 354 421.5 c 128,-1,16
 321 454 321 454 259 454 c 0,17,18
 217 454 217 454 176.5 438.5 c 128,-1,19
 136 423 136 423 93 394 c 1,20,-1
 59 464 l 1,21,22
 160 532 160 532 269 532 c 0,23,24
 377 532 377 532 437 477 c 128,-1,25
 497 422 497 422 497 319 c 2,26,-1
 497 130 l 2,27,28
 497 95 497 95 526 94 c 1,29,-1
 526 0 l 1,30,31
 510 -3 510 -3 498.5 -4 c 128,-1,32
 487 -5 487 -5 476 -5 c 0,33,34
 444 -5 444 -5 426.5 11 c 128,-1,35
 409 27 409 27 405 52 c 2,36,-1
 402 85 l 1,37,38
 367 39 367 39 315.5 14.5 c 128,-1,39
 264 -10 264 -10 205 -10 c 0,0,1
235 71 m 0,40,41
 275 71 275 71 310.5 85.5 c 128,-1,42
 346 100 346 100 366 126 c 1,43,44
 387 144 387 144 387 164 c 2,45,-1
 387 233 l 1,46,47
 359 244 359 244 327.5 250 c 128,-1,48
 296 256 296 256 266 256 c 0,49,50
 207 256 207 256 169.5 230.5 c 128,-1,51
 132 205 132 205 132 163 c 0,52,53
 132 124 132 124 161 97.5 c 128,-1,54
 190 71 190 71 235 71 c 0,40,41
EndSplineSet
Substitution2: "'ss02' Style Set 2 in Latin lookup 9 subtable" a.alt2
Substitution2: "'ss01' Style Set 1 in Latin lookup 8 subtable" a.alt
Substitution2: "'salt' Stylistic Alternatives in Latin lookup 5 subtable" a.alt
Substitution2: "'smcp' Lowercase to Small Capitals in Latin lookup 2 subtable" A.sc
AlternateSubs2: "'aalt' Access All Alternates in Latin lookup 1 subtable" A.sc a.alt a.alt2
EndChar

StartChar: b
Encoding: 98 98 70
Width: 628
GlyphClass: 2
Flags: W
LayerCount: 2
Fore
SplineSet
348 -10 m 0,0,1
 288 -10 288 -10 239.5 18.5 c 128,-1,2
 191 47 191 47 163 95 c 1,3,-1
 163 0 l 1,4,-1
 66 0 l 1,5,-1
 66 730 l 1,6,-1
 176 730 l 1,7,-1
 176 424 l 1,8,9
 207 474 207 474 253.5 503 c 128,-1,10
 300 532 300 532 363 532 c 0,11,12
 415 532 415 532 458 509.5 c 128,-1,13
 501 487 501 487 531.5 449.5 c 128,-1,14
 562 412 562 412 578.5 362.5 c 128,-1,15
 595 313 595 313 595 259 c 0,16,17
 595 203 595 203 576 154 c 128,-1,18
 557 105 557 105 524 68.5 c 128,-1,19
 491 32 491 32 445.5 11 c 128,-1,20
 400 -10 400 -10 348 -10 c 0,0,1
319 84 m 0,21,22
 355 84 355 84 385 98.5 c 128,-1,23
 415 113 415 113 436.5 137 c 128,-1,24
 458 161 458 161 470 192.5 c 128,-1,25
 482 224 482 224 482 259 c 256,26,27
 482 294 482 294 470.5 326.5 c 128,-1,28
 459 359 459 359 438.5 383.5 c 128,-1,29
 418 408 418 408 389.5 423 c 128,-1,30
 361 438 361 438 327 438 c 0,31,32
 276 438 276 438 236.5 405 c 128,-1,33
 197 372 197 372 176 325 c 1,34,-1
 176 187 l 1,35,36
 182 164 182 164 197 145.5 c 128,-1,37
 212 127 212 127 232 113 c 128,-1,38
 252 99 252 99 275 91.5 c 128,-1,39
 298 84 298 84 319 84 c 0,21,22
EndSplineSet
Substitution2: "'smcp' Lowercase to Small Capitals in Latin lookup 2 subtable" B.sc
Substitution2: "'aalt' Access All Alternates in Latin lookup 0 subtable" B.sc
EndChar

StartChar: c
Encoding: 99 99 71
Width: 559
GlyphClass: 2
Flags: W
LayerCount: 2
Fore
SplineSet
32 262 m 256,0,1
 32 317 32 317 51 366 c 128,-1,2
 70 415 70 415 105.5 452 c 128,-1,3
 141 489 141 489 191 510.5 c 128,-1,4
 241 532 241 532 303 532 c 0,5,6
 384 532 384 532 442.5 496.5 c 128,-1,7
 501 461 501 461 530 402 c 1,8,-1
 423 368 l 1,9,10
 404 401 404 401 372 419.5 c 128,-1,11
 340 438 340 438 301 438 c 0,12,13
 268 438 268 438 239.5 425 c 128,-1,14
 211 412 211 412 190 388.5 c 128,-1,15
 169 365 169 365 157 333 c 128,-1,16
 145 301 145 301 145 262 c 0,17,18
 145 224 145 224 157.5 191.5 c 128,-1,19
 170 159 170 159 191.5 135 c 128,-1,20
 213 111 213 111 241.5 97.5 c 128,-1,21
 270 84 270 84 302 84 c 0,22,23
 322 84 322 84 342 89.5 c 128,-1,24
 362 95 362 95 378.5 105 c 128,-1,25
 395 115 395 115 407.5 128 c 128,-1,26
 420 141 420 141 426 156 c 1,27,-1
 534 124 l 1,28,29
 508 65 508 65 447 27.5 c 128,-1,30
 386 -10 386 -10 303 -10 c 0,31,32
 242 -10 242 -10 192 12 c 128,-1,33
 142 34 142 34 106.5 71.5 c 128,-1,34
 71 109 71 109 51.5 158 c 128,-1,35
 32 207 32 207 32 262 c 256,0,1
EndSplineSet
Substitution2: "'smcp' Lowercase to Small Capitals in Latin lookup 2 subtable" C.sc
Substitution2: "'aalt' Access All Alternates in Latin lookup 0 subtable" C.sc
EndChar

StartChar: d
Encoding: 100 100 72
Width: 637
GlyphClass: 2
Flags: W
LayerCount: 2
Fore
SplineSet
279 -10 m 0,0,1
 226 -10 226 -10 181 11.5 c 128,-1,2
 136 33 136 33 103 70 c 128,-1,3
 70 107 70 107 51.5 156.5 c 128,-1,4
 33 206 33 206 33 263 c 0,5,6
 33 318 33 318 50.5 366.5 c 128,-1,7
 68 415 68 415 99.5 452 c 128,-1,8
 131 489 131 489 173.5 510.5 c 128,-1,9
 216 532 216 532 267 532 c 0,10,11
 330 532 330 532 378 501.5 c 128,-1,12
 426 471 426 471 453 424 c 1,13,-1
 453 730 l 1,14,-1
 563 730 l 1,15,-1
 563 130 l 2,16,17
 563 111 563 111 569.5 103 c 128,-1,18
 576 95 576 95 593 94 c 1,19,-1
 593 0 l 1,20,21
 576 -3 576 -3 565.5 -4 c 128,-1,22
 555 -5 555 -5 548 -5 c 0,23,24
 515 -5 515 -5 494 12 c 128,-1,25
 473 29 473 29 471 56 c 2,26,-1
 469 95 l 1,27,28
 440 46 440 46 390 18 c 128,-1,29
 340 -10 340 -10 279 -10 c 0,0,1
306 84 m 0,30,31
 330 84 330 84 354 92 c 128,-1,32
 378 100 378 100 398 114 c 128,-1,33
 418 128 418 128 432.5 147 c 128,-1,34
 447 166 447 166 453 188 c 1,35,-1
 453 325 l 1,36,37
 444 350 444 350 427.5 371 c 128,-1,38
 411 392 411 392 390 407 c 128,-1,39
 369 422 369 422 345.5 430 c 128,-1,40
 322 438 322 438 298 438 c 0,41,42
 265 438 265 438 237.5 423 c 128,-1,43
 210 408 210 408 190 383 c 128,-1,44
 170 358 170 358 158.5 326 c 128,-1,45
 147 294 147 294 147 260 c 0,46,47
 147 224 147 224 159.5 192 c 128,-1,48
 172 160 172 160 194 136 c 128,-1,49
 216 112 216 112 244.5 98 c 128,-1,50
 273 84 273 84 306 84 c 0,30,31
EndSplineSet
Substitution2: "'ss01' Style Set 1 in Latin lookup 8 subtable" d.alt
Substitution2: "'salt' Stylistic Alternatives in Latin lookup 5 subtable" d.alt
Substitution2: "'smcp' Lowercase to Small Capitals in Latin lookup 2 subtable" D.sc
AlternateSubs2: "'aalt' Access All Alternates in Latin lookup 1 subtable" D.sc d.alt
EndChar

StartChar: e
Encoding: 101 101 73
Width: 595
GlyphClass: 2
Flags: W
LayerCount: 2
Fore
SplineSet
303 -10 m 0,0,1
 242 -10 242 -10 192 11.5 c 128,-1,2
 142 33 142 33 106.5 70 c 128,-1,3
 71 107 71 107 51.5 156 c 128,-1,4
 32 205 32 205 32 260 c 256,5,6
 32 315 32 315 51.5 364.5 c 128,-1,7
 71 414 71 414 106.5 451.5 c 128,-1,8
 142 489 142 489 192 510.5 c 128,-1,9
 242 532 242 532 304 532 c 0,10,11
 365 532 365 532 414.5 510 c 128,-1,12
 464 488 464 488 499 451.5 c 128,-1,13
 534 415 534 415 552.5 366.5 c 128,-1,14
 571 318 571 318 571 265 c 0,15,16
 571 253 571 253 570 242.5 c 128,-1,17
 569 232 569 232 568 225 c 1,18,-1
 149 225 l 1,19,20
 152 190 152 190 165.5 162 c 128,-1,21
 179 134 179 134 200.5 113.5 c 128,-1,22
 222 93 222 93 249.5 82 c 128,-1,23
 277 71 277 71 307 71 c 0,24,25
 329 71 329 71 350.5 76.5 c 128,-1,26
 372 82 372 82 390 92.5 c 128,-1,27
 408 103 408 103 422 118 c 128,-1,28
 436 133 436 133 444 151 c 1,29,-1
 538 124 l 1,30,31
 511 65 511 65 448.5 27.5 c 128,-1,32
 386 -10 386 -10 303 -10 c 0,0,1
462 301 m 1,33,34
 459 334 459 334 445.5 362 c 128,-1,35
 432 390 432 390 411 409.5 c 128,-1,36
 390 429 390 429 362 440 c 128,-1,37
 334 451 334 451 303 451 c 256,38,39
 272 451 272 451 244.5 440 c 128,-1,40
 217 429 217 429 196 409.5 c 128,-1,41
 175 390 175 390 162 362 c 128,-1,42
 149 334 149 334 146 301 c 1,43,-1
 462 301 l 1,33,34
EndSplineSet
Substitution2: "'smcp' Lowercase to Small Capitals in Latin lookup 2 subtable" E.sc
Substitution2: "'aalt' Access All Alternates in Latin lookup 0 subtable" E.sc
EndChar

StartChar: f
Encoding: 102 102 74
Width: 356
GlyphClass: 2
Flags: W
LayerCount: 2
Fore
SplineSet
96 0 m 1,0,-1
 96 425 l 1,1,-1
 26 425 l 1,2,-1
 26 510 l 1,3,-1
 96 510 l 1,4,-1
 96 531 l 2,5,6
 96 628 96 628 141 684 c 128,-1,7
 186 740 186 740 263 740 c 0,8,9
 295 740 295 740 326 731.5 c 128,-1,10
 357 723 357 723 385 708 c 1,11,-1
 361 626 l 1,12,13
 346 635 346 635 325.5 641 c 128,-1,14
 305 647 305 647 286 647 c 0,15,16
 247 647 247 647 226.5 618 c 128,-1,17
 206 589 206 589 206 534 c 2,18,-1
 206 510 l 1,19,-1
 340 510 l 1,20,-1
 340 425 l 1,21,-1
 206 425 l 1,22,-1
 206 0 l 1,23,-1
 96 0 l 1,0,-1
EndSplineSet
Substitution2: "'smcp' Lowercase to Small Capitals in Latin lookup 2 subtable" F.sc
Substitution2: "'aalt' Access All Alternates in Latin lookup 0 subtable" F.sc
EndChar

StartChar: g
Encoding: 103 103 75
Width: 629
GlyphClass: 2
Flags: W
LayerCount: 2
Fore
SplineSet
273 -5 m 0,0,1
 220 -5 220 -5 176 16.5 c 128,-1,2
 132 38 132 38 100.5 75 c 128,-1,3
 69 112 69 112 51.5 160 c 128,-1,4
 34 208 34 208 34 261 c 0,5,6
 34 317 34 317 52 366.5 c 128,-1,7
 70 416 70 416 102 452.5 c 128,-1,8
 134 489 134 489 178.5 510.5 c 128,-1,9
 223 532 223 532 277 532 c 0,10,11
 340 532 340 532 387.5 502 c 128,-1,12
 435 472 435 472 466 424 c 1,13,-1
 466 523 l 1,14,-1
 563 523 l 1,15,-1
 563 15 l 2,16,17
 563 -42 563 -42 542 -86 c 128,-1,18
 521 -130 521 -130 483.5 -160.5 c 128,-1,19
 446 -191 446 -191 395 -207 c 128,-1,20
 344 -223 344 -223 285 -223 c 0,21,22
 198 -223 198 -223 140.5 -193.5 c 128,-1,23
 83 -164 83 -164 44 -111 c 1,24,-1
 106 -53 l 1,25,26
 136 -95 136 -95 183.5 -117 c 128,-1,27
 231 -139 231 -139 285 -139 c 0,28,29
 319 -139 319 -139 349.5 -130 c 128,-1,30
 380 -121 380 -121 403 -102 c 128,-1,31
 426 -83 426 -83 439.5 -54 c 128,-1,32
 453 -25 453 -25 453 15 c 2,33,-1
 453 95 l 1,34,35
 425 47 425 47 376 21 c 128,-1,36
 327 -5 327 -5 273 -5 c 0,0,1
309 84 m 0,37,38
 334 84 334 84 357 92.5 c 128,-1,39
 380 101 380 101 399.5 115.5 c 128,-1,40
 419 130 419 130 433 148.5 c 128,-1,41
 447 167 447 167 453 188 c 1,42,-1
 453 325 l 1,43,44
 443 350 443 350 427 370.5 c 128,-1,45
 411 391 411 391 390.5 406 c 128,-1,46
 370 421 370 421 347 429.5 c 128,-1,47
 324 438 324 438 301 438 c 0,48,49
 265 438 265 438 236.5 422.5 c 128,-1,50
 208 407 208 407 188 381.5 c 128,-1,51
 168 356 168 356 157 324 c 128,-1,52
 146 292 146 292 146 258 c 0,53,54
 146 222 146 222 158.5 190.5 c 128,-1,55
 171 159 171 159 193 135.5 c 128,-1,56
 215 112 215 112 244.5 98 c 128,-1,57
 274 84 274 84 309 84 c 0,37,38
EndSplineSet
Substitution2: "'smcp' Lowercase to Small Capitals in Latin lookup 2 subtable" G.sc
Substitution2: "'aalt' Access All Alternates in Latin lookup 0 subtable" G.sc
EndChar

StartChar: h
Encoding: 104 104 76
Width: 597
GlyphClass: 2
Flags: W
LayerCount: 2
Fore
SplineSet
535 0 m 1,0,-1
 425 0 l 1,1,-1
 425 293 l 2,2,3
 425 365 425 365 399.5 399.5 c 128,-1,4
 374 434 374 434 326 434 c 0,5,6
 303 434 303 434 280 425 c 128,-1,7
 257 416 257 416 236.5 399.5 c 128,-1,8
 216 383 216 383 200 360.5 c 128,-1,9
 184 338 184 338 176 311 c 1,10,-1
 176 0 l 1,11,-1
 66 0 l 1,12,-1
 66 730 l 1,13,-1
 176 730 l 1,14,-1
 176 418 l 1,15,16
 206 472 206 472 257.5 502 c 128,-1,17
 309 532 309 532 370 532 c 0,18,19
 419 532 419 532 450.5 514.5 c 128,-1,20
 482 497 482 497 501 468 c 128,-1,21
 520 439 520 439 527.5 400.5 c 128,-1,22
 535 362 535 362 535 319 c 2,23,-1
 535 0 l 1,0,-1
EndSplineSet
Substitution2: "'smcp' Lowercase to Small Capitals in Latin lookup 2 subtable" H.sc
Substitution2: "'aalt' Access All Alternates in Latin lookup 0 subtable" H.sc
EndChar

StartChar: i
Encoding: 105 105 77
Width: 242
GlyphClass: 2
Flags: W
LayerCount: 2
Fore
SplineSet
66 0 m 1,0,-1
 66 523 l 1,1,-1
 176 523 l 1,2,-1
 176 0 l 1,3,-1
 66 0 l 1,0,-1
66 609 m 1,4,-1
 66 730 l 1,5,-1
 176 730 l 1,6,-1
 176 609 l 1,7,-1
 66 609 l 1,4,-1
EndSplineSet
Substitution2: "'smcp' Lowercase to Small Capitals in Latin lookup 2 subtable" I.sc
Substitution2: "'aalt' Access All Alternates in Latin lookup 0 subtable" I.sc
EndChar

StartChar: j
Encoding: 106 106 78
Width: 248
GlyphClass: 2
Flags: W
LayerCount: 2
Fore
SplineSet
11 -191 m 0,0,1
 -25 -191 -25 -191 -57 -180 c 128,-1,2
 -89 -169 -89 -169 -115 -146 c 1,3,-1
 -66 -72 l 1,4,5
 -53 -84 -53 -84 -36 -89.5 c 128,-1,6
 -19 -95 -19 -95 -2 -95 c 0,7,8
 27 -95 27 -95 49.5 -73.5 c 128,-1,9
 72 -52 72 -52 72 -19 c 2,10,-1
 72 523 l 1,11,-1
 182 523 l 1,12,-1
 182 -11 l 2,13,14
 182 -51 182 -51 168.5 -84 c 128,-1,15
 155 -117 155 -117 131.5 -141 c 128,-1,16
 108 -165 108 -165 77 -178 c 128,-1,17
 46 -191 46 -191 11 -191 c 0,0,1
72 609 m 1,18,-1
 72 730 l 1,19,-1
 182 730 l 1,20,-1
 182 609 l 1,21,-1
 72 609 l 1,18,-1
EndSplineSet
Substitution2: "'ss01' Style Set 1 in Latin lookup 8 subtable" j.alt
Substitution2: "'salt' Stylistic Alternatives in Latin lookup 5 subtable" j.alt
Substitution2: "'smcp' Lowercase to Small Capitals in Latin lookup 2 subtable" J.sc
AlternateSubs2: "'aalt' Access All Alternates in Latin lookup 1 subtable" J.sc j.alt
EndChar

StartChar: k
Encoding: 107 107 79
Width: 548
GlyphClass: 2
Flags: W
LayerCount: 2
Fore
SplineSet
430 0 m 1,0,-1
 263 241 l 1,1,-1
 176 159 l 1,2,-1
 176 0 l 1,3,-1
 66 0 l 1,4,-1
 66 730 l 1,5,-1
 176 730 l 1,6,-1
 176 267 l 1,7,-1
 416 522 l 1,8,-1
 536 522 l 1,9,-1
 333 303 l 1,10,-1
 547 0 l 1,11,-1
 430 0 l 1,0,-1
EndSplineSet
Substitution2: "'smcp' Lowercase to Small Capitals in Latin lookup 2 subtable" K.sc
Substitution2: "'aalt' Access All Alternates in Latin lookup 0 subtable" K.sc
EndChar

StartChar: l
Encoding: 108 108 80
Width: 301
GlyphClass: 2
Flags: W
LayerCount: 2
Fore
SplineSet
67 730 m 1,0,-1
 177 730 l 1,1,-1
 177 151 l 2,2,3
 177 122 177 122 192 105.5 c 128,-1,4
 207 89 207 89 234 89 c 0,5,6
 245 89 245 89 259.5 93 c 128,-1,7
 274 97 274 97 287 102 c 1,8,-1
 303 16 l 1,9,10
 279 5 279 5 246 -1.5 c 128,-1,11
 213 -8 213 -8 187 -8 c 0,12,13
 130 -8 130 -8 98.5 23 c 128,-1,14
 67 54 67 54 67 111 c 2,15,-1
 67 730 l 1,0,-1
EndSplineSet
Substitution2: "'ss01' Style Set 1 in Latin lookup 8 subtable" l.alt
Substitution2: "'salt' Stylistic Alternatives in Latin lookup 5 subtable" l.alt
Substitution2: "'smcp' Lowercase to Small Capitals in Latin lookup 2 subtable" L.sc
AlternateSubs2: "'aalt' Access All Alternates in Latin lookup 1 subtable" L.sc l.alt
EndChar

StartChar: m
Encoding: 109 109 81
Width: 927
GlyphClass: 2
Flags: W
LayerCount: 2
Fore
SplineSet
866 0 m 1,0,-1
 756 0 l 1,1,-1
 756 293 l 2,2,3
 756 366 756 366 732 400 c 128,-1,4
 708 434 708 434 662 434 c 0,5,6
 615 434 615 434 576.5 399.5 c 128,-1,7
 538 365 538 365 521 310 c 1,8,-1
 521 0 l 1,9,-1
 411 0 l 1,10,-1
 411 293 l 2,11,12
 411 367 411 367 387 400.5 c 128,-1,13
 363 434 363 434 318 434 c 0,14,15
 271 434 271 434 232 400 c 128,-1,16
 193 366 193 366 176 311 c 1,17,-1
 176 0 l 1,18,-1
 66 0 l 1,19,-1
 66 523 l 1,20,-1
 166 523 l 1,21,-1
 166 418 l 1,22,23
 197 473 197 473 247.5 502.5 c 128,-1,24
 298 532 298 532 363 532 c 256,25,26
 428 532 428 532 465.5 498 c 128,-1,27
 503 464 503 464 512 413 c 1,28,29
 545 471 545 471 595 501.5 c 128,-1,30
 645 532 645 532 709 532 c 0,31,32
 755 532 755 532 785.5 514.5 c 128,-1,33
 816 497 816 497 834 468 c 128,-1,34
 852 439 852 439 859 400.5 c 128,-1,35
 866 362 866 362 866 319 c 2,36,-1
 866 0 l 1,0,-1
EndSplineSet
Substitution2: "'smcp' Lowercase to Small Capitals in Latin lookup 2 subtable" M.sc
Substitution2: "'aalt' Access All Alternates in Latin lookup 0 subtable" M.sc
EndChar

StartChar: n
Encoding: 110 110 82
Width: 597
GlyphClass: 2
Flags: W
LayerCount: 2
Fore
SplineSet
535 0 m 1,0,-1
 425 0 l 1,1,-1
 425 293 l 2,2,3
 425 367 425 367 401.5 400.5 c 128,-1,4
 378 434 378 434 332 434 c 0,5,6
 308 434 308 434 284 425 c 128,-1,7
 260 416 260 416 239 399.5 c 128,-1,8
 218 383 218 383 201.5 360.5 c 128,-1,9
 185 338 185 338 176 311 c 1,10,-1
 176 0 l 1,11,-1
 66 0 l 1,12,-1
 66 523 l 1,13,-1
 166 523 l 1,14,-1
 166 418 l 1,15,16
 196 471 196 471 253 501.5 c 128,-1,17
 310 532 310 532 379 532 c 0,18,19
 426 532 426 532 456 515 c 128,-1,20
 486 498 486 498 503.5 468.5 c 128,-1,21
 521 439 521 439 528 400.5 c 128,-1,22
 535 362 535 362 535 319 c 2,23,-1
 535 0 l 1,0,-1
EndSplineSet
Substitution2: "'smcp' Lowercase to Small Capitals in Latin lookup 2 subtable" N.sc
Substitution2: "'aalt' Access All Alternates in Latin lookup 0 subtable" N.sc
EndChar

StartChar: o
Encoding: 111 111 83
Width: 602
GlyphClass: 2
Flags: W
LayerCount: 2
Fore
SplineSet
301 -10 m 0,0,1
 239 -10 239 -10 189.5 12 c 128,-1,2
 140 34 140 34 105 71 c 128,-1,3
 70 108 70 108 51 157.5 c 128,-1,4
 32 207 32 207 32 261 c 256,5,6
 32 315 32 315 51 364.5 c 128,-1,7
 70 414 70 414 105.5 451 c 128,-1,8
 141 488 141 488 190.5 510 c 128,-1,9
 240 532 240 532 301 532 c 256,10,11
 362 532 362 532 411.5 510 c 128,-1,12
 461 488 461 488 496.5 451 c 128,-1,13
 532 414 532 414 551 364.5 c 128,-1,14
 570 315 570 315 570 261 c 256,15,16
 570 207 570 207 551 157.5 c 128,-1,17
 532 108 532 108 496.5 71 c 128,-1,18
 461 34 461 34 411.5 12 c 128,-1,19
 362 -10 362 -10 301 -10 c 0,0,1
145 260 m 0,20,21
 145 222 145 222 157 190 c 128,-1,22
 169 158 169 158 190 134.5 c 128,-1,23
 211 111 211 111 239.5 97.5 c 128,-1,24
 268 84 268 84 301 84 c 256,25,26
 334 84 334 84 362.5 97.5 c 128,-1,27
 391 111 391 111 412 135 c 128,-1,28
 433 159 433 159 445 191 c 128,-1,29
 457 223 457 223 457 261 c 0,30,31
 457 298 457 298 445 330.5 c 128,-1,32
 433 363 433 363 412 387 c 128,-1,33
 391 411 391 411 362.5 424.5 c 128,-1,34
 334 438 334 438 301 438 c 0,35,36
 269 438 269 438 240.5 424 c 128,-1,37
 212 410 212 410 191 386 c 128,-1,38
 170 362 170 362 157.5 329.5 c 128,-1,39
 145 297 145 297 145 260 c 0,20,21
EndSplineSet
Substitution2: "'smcp' Lowercase to Small Capitals in Latin lookup 2 subtable" O.sc
Substitution2: "'aalt' Access All Alternates in Latin lookup 0 subtable" O.sc
EndChar

StartChar: p
Encoding: 112 112 84
Width: 628
GlyphClass: 2
Flags: W
LayerCount: 2
Fore
SplineSet
363 -10 m 0,0,1
 300 -10 300 -10 252 20 c 128,-1,2
 204 50 204 50 176 98 c 1,3,-1
 176 -213 l 1,4,-1
 66 -213 l 1,5,-1
 66 523 l 1,6,-1
 163 523 l 1,7,-1
 163 429 l 1,8,9
 193 476 193 476 240.5 504 c 128,-1,10
 288 532 288 532 348 532 c 0,11,12
 402 532 402 532 447 510 c 128,-1,13
 492 488 492 488 525 451 c 128,-1,14
 558 414 558 414 576.5 365 c 128,-1,15
 595 316 595 316 595 262 c 0,16,17
 595 205 595 205 578 155.5 c 128,-1,18
 561 106 561 106 530 69.5 c 128,-1,19
 499 33 499 33 456.5 11.5 c 128,-1,20
 414 -10 414 -10 363 -10 c 0,0,1
327 84 m 0,21,22
 362 84 362 84 390.5 99 c 128,-1,23
 419 114 419 114 439.5 139 c 128,-1,24
 460 164 460 164 471 196 c 128,-1,25
 482 228 482 228 482 262 c 0,26,27
 482 298 482 298 469.5 330 c 128,-1,28
 457 362 457 362 435.5 386 c 128,-1,29
 414 410 414 410 384 424 c 128,-1,30
 354 438 354 438 319 438 c 0,31,32
 298 438 298 438 275 430 c 128,-1,33
 252 422 252 422 232 408 c 128,-1,34
 212 394 212 394 197 375.5 c 128,-1,35
 182 357 182 357 176 335 c 1,36,-1
 176 198 l 1,37,38
 186 174 186 174 202 153 c 128,-1,39
 218 132 218 132 237.5 117 c 128,-1,40
 257 102 257 102 280 93 c 128,-1,41
 303 84 303 84 327 84 c 0,21,22
EndSplineSet
Substitution2: "'smcp' Lowercase to Small Capitals in Latin lookup 2 subtable" P.sc
Substitution2: "'aalt' Access All Alternates in Latin lookup 0 subtable" P.sc
EndChar

StartChar: q
Encoding: 113 113 85
Width: 628
GlyphClass: 2
Flags: W
LayerCount: 2
Fore
SplineSet
265 -10 m 0,0,1
 214 -10 214 -10 171.5 12 c 128,-1,2
 129 34 129 34 98.5 71 c 128,-1,3
 68 108 68 108 51 157.5 c 128,-1,4
 34 207 34 207 34 262 c 0,5,6
 34 318 34 318 52.5 367 c 128,-1,7
 71 416 71 416 104 453 c 128,-1,8
 137 490 137 490 182 511 c 128,-1,9
 227 532 227 532 280 532 c 0,10,11
 340 532 340 532 388 503 c 128,-1,12
 436 474 436 474 465 428 c 1,13,-1
 465 523 l 1,14,-1
 562 523 l 1,15,-1
 562 -78 l 2,16,17
 562 -97 562 -97 569.5 -104.5 c 128,-1,18
 577 -112 577 -112 594 -114 c 1,19,-1
 594 -208 l 1,20,21
 579 -210 579 -210 563.5 -211 c 128,-1,22
 548 -212 548 -212 535 -212 c 0,23,24
 501 -212 501 -212 476.5 -189 c 128,-1,25
 452 -166 452 -166 452 -132 c 2,26,-1
 452 98 l 1,27,28
 420 44 420 44 372.5 17 c 128,-1,29
 325 -10 325 -10 265 -10 c 0,0,1
305 84 m 0,30,31
 355 84 355 84 391.5 112.5 c 128,-1,32
 428 141 428 141 452 184 c 1,33,-1
 452 322 l 1,34,35
 447 346 447 346 432 367 c 128,-1,36
 417 388 417 388 396.5 403.5 c 128,-1,37
 376 419 376 419 352 428.5 c 128,-1,38
 328 438 328 438 305 438 c 0,39,40
 270 438 270 438 241 423 c 128,-1,41
 212 408 212 408 191 383 c 128,-1,42
 170 358 170 358 158 325.5 c 128,-1,43
 146 293 146 293 146 259 c 0,44,45
 146 223 146 223 158 191 c 128,-1,46
 170 159 170 159 191 135.5 c 128,-1,47
 212 112 212 112 241 98 c 128,-1,48
 270 84 270 84 305 84 c 0,30,31
EndSplineSet
Substitution2: "'ss01' Style Set 1 in Latin lookup 8 subtable" q.alt
Substitution2: "'salt' Stylistic Alternatives in Latin lookup 5 subtable" q.alt
Substitution2: "'smcp' Lowercase to Small Capitals in Latin lookup 2 subtable" Q.sc
AlternateSubs2: "'aalt' Access All Alternates in Latin lookup 1 subtable" Q.sc q.alt
EndChar

StartChar: r
Encoding: 114 114 86
Width: 374
GlyphClass: 2
Flags: W
LayerCount: 2
Fore
SplineSet
360 428 m 1,0,1
 296 426 296 426 246.5 398.5 c 128,-1,2
 197 371 197 371 176 320 c 1,3,-1
 176 0 l 1,4,-1
 66 0 l 1,5,-1
 66 523 l 1,6,-1
 168 523 l 1,7,-1
 168 406 l 1,8,9
 195 460 195 460 238.5 492.5 c 128,-1,10
 282 525 282 525 332 528 c 0,11,12
 342 528 342 528 348.5 528 c 128,-1,13
 355 528 355 528 360 527 c 1,14,-1
 360 428 l 1,0,1
EndSplineSet
Substitution2: "'smcp' Lowercase to Small Capitals in Latin lookup 2 subtable" R.sc
Substitution2: "'aalt' Access All Alternates in Latin lookup 0 subtable" R.sc
EndChar

StartChar: s
Encoding: 115 115 87
Width: 496
GlyphClass: 2
Flags: W
LayerCount: 2
Fore
SplineSet
256 -10 m 0,0,1
 193 -10 193 -10 130.5 10.5 c 128,-1,2
 68 31 68 31 23 69 c 1,3,-1
 67 139 l 1,4,5
 114 105 114 105 160 87.5 c 128,-1,6
 206 70 206 70 254 70 c 0,7,8
 303 70 303 70 331.5 89 c 128,-1,9
 360 108 360 108 360 143 c 0,10,11
 360 176 360 176 328 191 c 128,-1,12
 296 206 296 206 228 224 c 0,13,14
 179 237 179 237 144 249 c 128,-1,15
 109 261 109 261 87 277 c 128,-1,16
 65 293 65 293 55 314 c 128,-1,17
 45 335 45 335 45 365 c 0,18,19
 45 405 45 405 60.5 436 c 128,-1,20
 76 467 76 467 103.5 488.5 c 128,-1,21
 131 510 131 510 168 521 c 128,-1,22
 205 532 205 532 248 532 c 0,23,24
 307 532 307 532 358 514 c 128,-1,25
 409 496 409 496 449 462 c 1,26,-1
 402 396 l 1,27,28
 329 454 329 454 247 454 c 0,29,30
 205 454 205 454 176.5 436.5 c 128,-1,31
 148 419 148 419 148 381 c 0,32,33
 148 365 148 365 154 354 c 128,-1,34
 160 343 160 343 173.5 335 c 128,-1,35
 187 327 187 327 208.5 320.5 c 128,-1,36
 230 314 230 314 262 306 c 0,37,38
 315 293 315 293 353.5 280 c 128,-1,39
 392 267 392 267 417 249.5 c 128,-1,40
 442 232 442 232 454 208.5 c 128,-1,41
 466 185 466 185 466 152 c 0,42,43
 466 77 466 77 409.5 33.5 c 128,-1,44
 353 -10 353 -10 256 -10 c 0,0,1
EndSplineSet
Substitution2: "'smcp' Lowercase to Small Capitals in Latin lookup 2 subtable" S.sc
Substitution2: "'aalt' Access All Alternates in Latin lookup 0 subtable" S.sc
EndChar

StartChar: t
Encoding: 116 116 88
Width: 367
GlyphClass: 2
Flags: W
LayerCount: 2
Fore
SplineSet
357 27 m 1,0,1
 336 17 336 17 299 4.5 c 128,-1,2
 262 -8 262 -8 220 -8 c 0,3,4
 194 -8 194 -8 171 -1 c 128,-1,5
 148 6 148 6 130.5 20 c 128,-1,6
 113 34 113 34 103 56.5 c 128,-1,7
 93 79 93 79 93 111 c 2,8,-1
 93 438 l 1,9,-1
 24 438 l 1,10,-1
 24 523 l 1,11,-1
 93 523 l 1,12,-1
 93 695 l 1,13,-1
 203 695 l 1,14,-1
 203 523 l 1,15,-1
 317 523 l 1,16,-1
 317 438 l 1,17,-1
 203 438 l 1,18,-1
 203 146 l 2,19,20
 205 118 205 118 220.5 105.5 c 128,-1,21
 236 93 236 93 259 93 c 256,22,23
 282 93 282 93 303 101 c 128,-1,24
 324 109 324 109 334 114 c 1,25,-1
 357 27 l 1,0,1
EndSplineSet
Substitution2: "'ss01' Style Set 1 in Latin lookup 8 subtable" t.alt
Substitution2: "'salt' Stylistic Alternatives in Latin lookup 5 subtable" t.alt
Substitution2: "'smcp' Lowercase to Small Capitals in Latin lookup 2 subtable" T.sc
AlternateSubs2: "'aalt' Access All Alternates in Latin lookup 1 subtable" T.sc t.alt
EndChar

StartChar: u
Encoding: 117 117 89
Width: 609
GlyphClass: 2
Flags: W
LayerCount: 2
Fore
SplineSet
227 -10 m 0,0,1
 145 -10 145 -10 103 43.5 c 128,-1,2
 61 97 61 97 61 203 c 2,3,-1
 61 523 l 1,4,-1
 171 523 l 1,5,-1
 171 225 l 2,6,7
 171 84 171 84 271 84 c 0,8,9
 318 84 318 84 360 113 c 128,-1,10
 402 142 402 142 425 197 c 1,11,-1
 425 523 l 1,12,-1
 535 523 l 1,13,-1
 535 130 l 2,14,15
 535 111 535 111 541.5 103 c 128,-1,16
 548 95 548 95 565 94 c 1,17,-1
 565 0 l 1,18,19
 548 -3 548 -3 537 -4 c 128,-1,20
 526 -5 526 -5 516 -5 c 0,21,22
 486 -5 486 -5 465 11.5 c 128,-1,23
 444 28 444 28 443 54 c 2,24,-1
 441 106 l 1,25,26
 406 49 406 49 350 19.5 c 128,-1,27
 294 -10 294 -10 227 -10 c 0,0,1
EndSplineSet
Substitution2: "'smcp' Lowercase to Small Capitals in Latin lookup 2 subtable" U.sc
Substitution2: "'aalt' Access All Alternates in Latin lookup 0 subtable" U.sc
EndChar

StartChar: v
Encoding: 118 118 90
Width: 543
GlyphClass: 2
Flags: W
LayerCount: 2
Fore
SplineSet
213 0 m 1,0,-1
 13 523 l 1,1,-1
 126 523 l 1,2,-1
 276 93 l 1,3,-1
 427 523 l 1,4,-1
 531 523 l 1,5,-1
 331 0 l 1,6,-1
 213 0 l 1,0,-1
EndSplineSet
Substitution2: "'smcp' Lowercase to Small Capitals in Latin lookup 2 subtable" V.sc
Substitution2: "'aalt' Access All Alternates in Latin lookup 0 subtable" V.sc
EndChar

StartChar: w
Encoding: 119 119 91
Width: 830
GlyphClass: 2
Flags: W
LayerCount: 2
Fore
SplineSet
718 523 m 1,0,-1
 823 523 l 1,1,-1
 603 0 l 1,2,-1
 512 0 l 1,3,-1
 415 243 l 1,4,-1
 318 0 l 1,5,-1
 227 0 l 1,6,-1
 6 523 l 1,7,-1
 111 523 l 1,8,-1
 280 106 l 1,9,-1
 356 300 l 1,10,-1
 265 522 l 1,11,-1
 355 522 l 1,12,-1
 415 358 l 1,13,-1
 474 522 l 1,14,-1
 564 522 l 1,15,-1
 474 300 l 1,16,-1
 550 106 l 1,17,-1
 718 523 l 1,0,-1
EndSplineSet
Substitution2: "'ss01' Style Set 1 in Latin lookup 8 subtable" w.alt
Substitution2: "'salt' Stylistic Alternatives in Latin lookup 5 subtable" w.alt
Substitution2: "'smcp' Lowercase to Small Capitals in Latin lookup 2 subtable" W.sc
AlternateSubs2: "'aalt' Access All Alternates in Latin lookup 1 subtable" W.sc w.alt
EndChar

StartChar: x
Encoding: 120 120 92
Width: 522
GlyphClass: 2
Flags: W
LayerCount: 2
Fore
SplineSet
124 523 m 1,0,-1
 252 344 l 1,1,-1
 261 327 l 1,2,-1
 270 344 l 1,3,-1
 397 523 l 1,4,-1
 512 523 l 1,5,-1
 321 261 l 1,6,-1
 514 0 l 1,7,-1
 399 0 l 1,8,-1
 270 178 l 1,9,-1
 261 194 l 1,10,-1
 252 178 l 1,11,-1
 123 0 l 1,12,-1
 8 0 l 1,13,-1
 201 261 l 1,14,-1
 10 523 l 1,15,-1
 124 523 l 1,0,-1
EndSplineSet
Substitution2: "'smcp' Lowercase to Small Capitals in Latin lookup 2 subtable" X.sc
Substitution2: "'aalt' Access All Alternates in Latin lookup 0 subtable" X.sc
EndChar

StartChar: y
Encoding: 121 121 93
Width: 547
GlyphClass: 2
Flags: W
LayerCount: 2
Fore
SplineSet
84 -123 m 1,0,1
 99 -126 99 -126 113.5 -128 c 128,-1,2
 128 -130 128 -130 137 -130 c 0,3,4
 150 -130 150 -130 159.5 -124.5 c 128,-1,5
 169 -119 169 -119 179 -105 c 128,-1,6
 189 -91 189 -91 199.5 -65.5 c 128,-1,7
 210 -40 210 -40 224 0 c 1,8,-1
 9 523 l 1,9,-1
 122 523 l 1,10,-1
 284 97 l 1,11,-1
 428 523 l 1,12,-1
 532 523 l 1,13,-1
 295 -121 l 2,14,15
 279 -166 279 -166 239.5 -196.5 c 128,-1,16
 200 -227 200 -227 138 -227 c 0,17,18
 126 -227 126 -227 113 -225.5 c 128,-1,19
 100 -224 100 -224 84 -219 c 1,20,-1
 84 -123 l 1,0,1
EndSplineSet
Substitution2: "'ss01' Style Set 1 in Latin lookup 8 subtable" y.alt
Substitution2: "'salt' Stylistic Alternatives in Latin lookup 5 subtable" y.alt
Substitution2: "'smcp' Lowercase to Small Capitals in Latin lookup 2 subtable" Y.sc
AlternateSubs2: "'aalt' Access All Alternates in Latin lookup 1 subtable" Y.sc y.alt
EndChar

StartChar: z
Encoding: 122 122 94
Width: 493
GlyphClass: 2
Flags: W
LayerCount: 2
Fore
SplineSet
28 69 m 1,0,-1
 342 445 l 1,1,-1
 39 445 l 1,2,-1
 39 523 l 1,3,-1
 458 523 l 1,4,-1
 458 454 l 1,5,-1
 146 78 l 1,6,-1
 461 78 l 1,7,-1
 461 0 l 1,8,-1
 28 0 l 1,9,-1
 28 69 l 1,0,-1
EndSplineSet
Substitution2: "'smcp' Lowercase to Small Capitals in Latin lookup 2 subtable" Z.sc
Substitution2: "'aalt' Access All Alternates in Latin lookup 0 subtable" Z.sc
EndChar

StartChar: braceleft
Encoding: 123 123 95
Width: 293
GlyphClass: 2
Flags: W
LayerCount: 2
Fore
SplineSet
190 651 m 1,0,-1
 190 427 l 2,1,2
 190 410 190 410 182 392 c 128,-1,3
 174 374 174 374 158 360 c 1,4,5
 173 346 173 346 181.5 328 c 128,-1,6
 190 310 190 310 190 293 c 2,7,-1
 190 58 l 1,8,-1
 245 58 l 1,9,-1
 245 -31 l 1,10,-1
 113 -31 l 2,11,12
 106 -31 106 -31 98 -24.5 c 128,-1,13
 90 -18 90 -18 90 -1 c 2,14,-1
 90 259 l 2,15,16
 90 283 90 283 77 300.5 c 128,-1,17
 64 318 64 318 44 322 c 1,18,-1
 44 400 l 1,19,20
 54 400 54 400 62.5 406 c 128,-1,21
 71 412 71 412 77 421.5 c 128,-1,22
 83 431 83 431 86.5 441.5 c 128,-1,23
 90 452 90 452 90 461 c 2,24,-1
 90 710 l 2,25,26
 90 729 90 729 99 734.5 c 128,-1,27
 108 740 108 740 113 740 c 2,28,-1
 245 740 l 1,29,-1
 245 651 l 1,30,-1
 190 651 l 1,0,-1
EndSplineSet
EndChar

StartChar: bar
Encoding: 124 124 96
Width: 256
GlyphClass: 2
Flags: W
LayerCount: 2
Fore
SplineSet
81 -130 m 1,0,-1
 81 775 l 1,1,-1
 175 775 l 1,2,-1
 175 -130 l 1,3,-1
 81 -130 l 1,0,-1
EndSplineSet
EndChar

StartChar: braceright
Encoding: 125 125 97
Width: 293
GlyphClass: 2
Flags: W
LayerCount: 2
Fore
SplineSet
49 651 m 1,0,-1
 49 740 l 1,1,-1
 180 740 l 2,2,3
 185 740 185 740 194 734.5 c 128,-1,4
 203 729 203 729 203 710 c 2,5,-1
 203 461 l 2,6,7
 203 452 203 452 206 441.5 c 128,-1,8
 209 431 209 431 215 421.5 c 128,-1,9
 221 412 221 412 229.5 406 c 128,-1,10
 238 400 238 400 249 400 c 1,11,-1
 249 322 l 1,12,13
 229 318 229 318 216 300.5 c 128,-1,14
 203 283 203 283 203 259 c 2,15,-1
 203 -1 l 2,16,17
 203 -18 203 -18 195 -24.5 c 128,-1,18
 187 -31 187 -31 180 -31 c 2,19,-1
 49 -31 l 1,20,-1
 49 58 l 1,21,-1
 104 58 l 1,22,-1
 104 293 l 2,23,24
 104 310 104 310 111.5 328 c 128,-1,25
 119 346 119 346 135 360 c 1,26,27
 119 374 119 374 111.5 392 c 128,-1,28
 104 410 104 410 104 427 c 2,29,-1
 104 651 l 1,30,-1
 49 651 l 1,0,-1
EndSplineSet
EndChar

StartChar: asciitilde
Encoding: 126 126 98
Width: 549
GlyphClass: 2
Flags: W
LayerCount: 2
Fore
SplineSet
61 232 m 1,0,1
 61 239 61 239 67.5 259 c 128,-1,2
 74 279 74 279 89 300 c 128,-1,3
 104 321 104 321 128 337.5 c 128,-1,4
 152 354 152 354 188 354 c 0,5,6
 213 354 213 354 235 345.5 c 128,-1,7
 257 337 257 337 277 326.5 c 128,-1,8
 297 316 297 316 316.5 307.5 c 128,-1,9
 336 299 336 299 358 299 c 0,10,11
 378 299 378 299 391.5 306.5 c 128,-1,12
 405 314 405 314 413 323 c 128,-1,13
 421 332 421 332 424 340 c 128,-1,14
 427 348 427 348 427 350 c 2,15,-1
 490 350 l 1,16,17
 490 346 490 346 483.5 327 c 128,-1,18
 477 308 477 308 461.5 287 c 128,-1,19
 446 266 446 266 420.5 249 c 128,-1,20
 395 232 395 232 357 232 c 0,21,22
 331 232 331 232 308.5 240.5 c 128,-1,23
 286 249 286 249 266 259.5 c 128,-1,24
 246 270 246 270 226.5 278.5 c 128,-1,25
 207 287 207 287 187 287 c 256,26,27
 167 287 167 287 155 278.5 c 128,-1,28
 143 270 143 270 135.5 260 c 128,-1,29
 128 250 128 250 125.5 241.5 c 128,-1,30
 123 233 123 233 123 232 c 2,31,-1
 61 232 l 1,32,-1
 61 232 l 1,0,1
EndSplineSet
EndChar

StartChar: exclamdown
Encoding: 161 161 100
Width: 282
GlyphClass: 2
Flags: W
LayerCount: 2
Fore
SplineSet
196 460 m 1,0,-1
 196 -4 l 1,1,-1
 86 -4 l 1,2,-1
 86 460 l 1,3,-1
 196 460 l 1,0,-1
196 713 m 1,4,-1
 196 576 l 1,5,-1
 86 576 l 1,6,-1
 86 713 l 1,7,-1
 196 713 l 1,4,-1
EndSplineSet
EndChar

StartChar: cent
Encoding: 162 162 101
Width: 580
GlyphClass: 2
Flags: W
LayerCount: 2
Fore
SplineSet
276 -120 m 1,0,-1
 276 -9 l 1,1,2
 224 -5 224 -5 181 19.5 c 128,-1,3
 138 44 138 44 107 81 c 128,-1,4
 76 118 76 118 58.5 164 c 128,-1,5
 41 210 41 210 41 258 c 0,6,7
 41 309 41 309 57 355 c 128,-1,8
 73 401 73 401 103 438 c 128,-1,9
 133 475 133 475 176.5 499.5 c 128,-1,10
 220 524 220 524 276 531 c 1,11,-1
 276 645 l 1,12,-1
 328 645 l 1,13,-1
 328 531 l 1,14,15
 400 529 400 529 454 495.5 c 128,-1,16
 508 462 508 462 539 402 c 1,17,-1
 433 368 l 1,18,19
 415 399 415 399 387.5 415.5 c 128,-1,20
 360 432 360 432 328 434 c 1,21,-1
 328 87 l 1,22,23
 343 89 343 89 360 94.5 c 128,-1,24
 377 100 377 100 392.5 109 c 128,-1,25
 408 118 408 118 419.5 130 c 128,-1,26
 431 142 431 142 436 156 c 1,27,-1
 543 124 l 1,28,29
 529 91 529 91 503.5 65.5 c 128,-1,30
 478 40 478 40 447.5 23.5 c 128,-1,31
 417 7 417 7 385.5 -1.5 c 128,-1,32
 354 -10 354 -10 328 -10 c 1,33,-1
 328 -120 l 1,34,-1
 276 -120 l 1,0,-1
154 258 m 0,35,36
 154 229 154 229 163 201.5 c 128,-1,37
 172 174 172 174 188 152 c 128,-1,38
 204 130 204 130 226.5 114 c 128,-1,39
 249 98 249 98 276 92 c 1,40,-1
 276 430 l 1,41,42
 247 425 247 425 224.5 409 c 128,-1,43
 202 393 202 393 186 369.5 c 128,-1,44
 170 346 170 346 162 317 c 128,-1,45
 154 288 154 288 154 258 c 0,35,36
EndSplineSet
EndChar

StartChar: sterling
Encoding: 163 163 102
Width: 528
GlyphClass: 2
Flags: W
LayerCount: 2
Fore
SplineSet
55 378 m 1,0,-1
 135 378 l 1,1,2
 115 418 115 418 95.5 457 c 128,-1,3
 76 496 76 496 76 540 c 0,4,5
 76 576 76 576 91.5 608 c 128,-1,6
 107 640 107 640 134 664 c 128,-1,7
 161 688 161 688 197 701.5 c 128,-1,8
 233 715 233 715 274 715 c 0,9,10
 332 715 332 715 384 687 c 128,-1,11
 436 659 436 659 471 610 c 1,12,-1
 412 542 l 1,13,14
 388 580 388 580 349 602.5 c 128,-1,15
 310 625 310 625 272 625 c 0,16,17
 230 625 230 625 203 598 c 128,-1,18
 176 571 176 571 176 530 c 0,19,20
 176 511 176 511 182 492.5 c 128,-1,21
 188 474 188 474 197 455.5 c 128,-1,22
 206 437 206 437 216.5 418 c 128,-1,23
 227 399 227 399 236 378 c 1,24,-1
 418 378 l 1,25,-1
 418 294 l 1,26,-1
 259 294 l 1,27,28
 260 288 260 288 260.5 282.5 c 128,-1,29
 261 277 261 277 261 271 c 0,30,31
 261 224 261 224 240 181.5 c 128,-1,32
 219 139 219 139 169 86 c 1,33,34
 189 91 189 91 207.5 94 c 128,-1,35
 226 97 226 97 244 97 c 0,36,37
 282 97 282 97 314.5 88 c 128,-1,38
 347 79 347 79 382 79 c 0,39,40
 401 79 401 79 419.5 83.5 c 128,-1,41
 438 88 438 88 462 96 c 1,42,-1
 489 14 l 1,43,44
 464 0 464 0 434.5 -7.5 c 128,-1,45
 405 -15 405 -15 376 -15 c 0,46,47
 353 -15 353 -15 331.5 -11 c 128,-1,48
 310 -7 310 -7 288 -1.5 c 128,-1,49
 266 4 266 4 244 8 c 128,-1,50
 222 12 222 12 198 12 c 0,51,52
 172 12 172 12 139.5 6.5 c 128,-1,53
 107 1 107 1 78 -8 c 1,54,-1
 52 71 l 1,55,56
 112 124 112 124 138.5 171 c 128,-1,57
 165 218 165 218 165 266 c 0,58,59
 165 273 165 273 164.5 280 c 128,-1,60
 164 287 164 287 163 294 c 1,61,-1
 55 294 l 1,62,-1
 55 378 l 1,0,-1
EndSplineSet
EndChar

StartChar: currency
Encoding: 164 164 103
Width: 545
GlyphClass: 2
Flags: W
LayerCount: 2
Fore
SplineSet
165 491 m 1,0,1
 187 506 187 506 214 514.5 c 128,-1,2
 241 523 241 523 273 523 c 0,3,4
 304 523 304 523 330.5 514.5 c 128,-1,5
 357 506 357 506 380 491 c 1,6,-1
 450 562 l 1,7,-1
 498 515 l 1,8,-1
 427 445 l 1,9,10
 460 398 460 398 460 337 c 0,11,12
 460 277 460 277 426 229 c 1,13,-1
 498 159 l 1,14,-1
 455 117 l 1,15,-1
 382 185 l 1,16,17
 360 170 360 170 332.5 161 c 128,-1,18
 305 152 305 152 273 152 c 0,19,20
 240 152 240 152 212.5 161 c 128,-1,21
 185 170 185 170 162 185 c 1,22,-1
 89 117 l 1,23,-1
 47 159 l 1,24,-1
 118 230 l 1,25,26
 102 253 102 253 93.5 280.5 c 128,-1,27
 85 308 85 308 85 337 c 0,28,29
 85 398 85 398 117 444 c 1,30,-1
 47 515 l 1,31,-1
 94 562 l 1,32,-1
 165 491 l 1,0,1
171 336 m 0,33,34
 171 312 171 312 179 291.5 c 128,-1,35
 187 271 187 271 200.5 256 c 128,-1,36
 214 241 214 241 233 232.5 c 128,-1,37
 252 224 252 224 273 224 c 0,38,39
 316 224 316 224 345.5 256.5 c 128,-1,40
 375 289 375 289 375 338 c 256,41,42
 375 387 375 387 345.5 418.5 c 128,-1,43
 316 450 316 450 273 450 c 256,44,45
 230 450 230 450 200.5 418 c 128,-1,46
 171 386 171 386 171 336 c 0,33,34
EndSplineSet
EndChar

StartChar: yen
Encoding: 165 165 104
Width: 699
GlyphClass: 2
Flags: W
LayerCount: 2
Fore
SplineSet
478 389 m 1,0,-1
 555 389 l 1,1,-1
 555 316 l 1,2,-1
 439 316 l 1,3,-1
 404 254 l 1,4,-1
 404 225 l 1,5,-1
 556 225 l 1,6,-1
 556 152 l 1,7,-1
 404 152 l 1,8,-1
 404 0 l 1,9,-1
 291 0 l 1,10,-1
 291 152 l 1,11,-1
 141 152 l 1,12,-1
 141 225 l 1,13,-1
 291 225 l 1,14,-1
 291 256 l 1,15,-1
 258 316 l 1,16,-1
 141 316 l 1,17,-1
 141 389 l 1,18,-1
 220 389 l 1,19,-1
 29 710 l 1,20,-1
 152 710 l 1,21,-1
 348 354 l 1,22,-1
 546 710 l 1,23,-1
 669 710 l 1,24,-1
 478 389 l 1,0,-1
EndSplineSet
EndChar

StartChar: brokenbar
Encoding: 166 166 105
Width: 258
GlyphClass: 2
Flags: W
LayerCount: 2
Fore
SplineSet
176 269 m 1,0,-1
 176 -130 l 1,1,-1
 82 -130 l 1,2,-1
 82 269 l 1,3,-1
 176 269 l 1,0,-1
176 775 m 1,4,-1
 176 376 l 1,5,-1
 82 376 l 1,6,-1
 82 775 l 1,7,-1
 176 775 l 1,4,-1
EndSplineSet
EndChar

StartChar: section
Encoding: 167 167 106
Width: 524
GlyphClass: 2
Flags: W
LayerCount: 2
Fore
SplineSet
443 208 m 1,0,1
 461 194 461 194 471.5 168.5 c 128,-1,2
 482 143 482 143 482 105 c 0,3,4
 482 54 482 54 461 17 c 128,-1,5
 440 -20 440 -20 408.5 -43 c 128,-1,6
 377 -66 377 -66 339 -77 c 128,-1,7
 301 -88 301 -88 267 -88 c 0,8,9
 229 -88 229 -88 196.5 -78 c 128,-1,10
 164 -68 164 -68 137.5 -53 c 128,-1,11
 111 -38 111 -38 90.5 -21 c 128,-1,12
 70 -4 70 -4 57 11 c 1,13,-1
 128 79 l 1,14,15
 160 46 160 46 193 31.5 c 128,-1,16
 226 17 226 17 262 17 c 0,17,18
 282 17 282 17 301 22.5 c 128,-1,19
 320 28 320 28 335 38.5 c 128,-1,20
 350 49 350 49 359 65 c 128,-1,21
 368 81 368 81 368 101 c 0,22,23
 368 122 368 122 359 135 c 128,-1,24
 350 148 350 148 336 155 c 128,-1,25
 322 162 322 162 305 165 c 128,-1,26
 288 168 288 168 271 169 c 0,27,28
 177 175 177 175 122.5 219.5 c 128,-1,29
 68 264 68 264 68 341 c 0,30,31
 68 370 68 370 75 389 c 128,-1,32
 82 408 82 408 90 419 c 1,33,34
 73 433 73 433 59 462.5 c 128,-1,35
 45 492 45 492 45 532 c 0,36,37
 45 570 45 570 61.5 603.5 c 128,-1,38
 78 637 78 637 106.5 661.5 c 128,-1,39
 135 686 135 686 172 700.5 c 128,-1,40
 209 715 209 715 250 715 c 0,41,42
 292 715 292 715 324 704 c 128,-1,43
 356 693 356 693 380.5 676.5 c 128,-1,44
 405 660 405 660 422.5 640 c 128,-1,45
 440 620 440 620 453 602 c 1,46,-1
 368 562 l 1,47,48
 352 590 352 590 322 603.5 c 128,-1,49
 292 617 292 617 257 617 c 0,50,51
 237 617 237 617 218.5 611 c 128,-1,52
 200 605 200 605 186 594.5 c 128,-1,53
 172 584 172 584 164 568 c 128,-1,54
 156 552 156 552 156 533 c 0,55,56
 156 489 156 489 185 473.5 c 128,-1,57
 214 458 214 458 257 457 c 0,58,59
 294 456 294 456 331.5 447.5 c 128,-1,60
 369 439 369 439 399 419.5 c 128,-1,61
 429 400 429 400 448 369 c 128,-1,62
 467 338 467 338 467 293 c 0,63,64
 467 264 467 264 459.5 241.5 c 128,-1,65
 452 219 452 219 443 208 c 1,0,1
175 327 m 0,66,67
 175 291 175 291 193.5 275.5 c 128,-1,68
 212 260 212 260 238.5 253.5 c 128,-1,69
 265 247 265 247 293 245 c 128,-1,70
 321 243 321 243 340 236 c 1,71,72
 351 244 351 244 357 259.5 c 128,-1,73
 363 275 363 275 363 291 c 0,74,75
 363 313 363 313 353 327.5 c 128,-1,76
 343 342 343 342 328 351 c 128,-1,77
 313 360 313 360 295 364 c 128,-1,78
 277 368 277 368 261 368 c 0,79,80
 242 368 242 368 224 371 c 128,-1,81
 206 374 206 374 195 379 c 1,82,83
 186 371 186 371 180.5 356.5 c 128,-1,84
 175 342 175 342 175 327 c 0,66,67
EndSplineSet
EndChar

StartChar: dieresis
Encoding: 168 168 107
Width: 411
GlyphClass: 2
Flags: W
LayerCount: 2
Fore
SplineSet
71 615 m 1,0,-1
 71 725 l 1,1,-1
 163 725 l 1,2,-1
 163 615 l 1,3,-1
 71 615 l 1,0,-1
248 615 m 1,4,-1
 248 725 l 1,5,-1
 340 725 l 1,6,-1
 340 615 l 1,7,-1
 248 615 l 1,4,-1
EndSplineSet
EndChar

StartChar: copyright
Encoding: 169 169 108
Width: 838
GlyphClass: 2
Flags: W
LayerCount: 2
Fore
SplineSet
417 -7 m 0,0,1
 337 -7 337 -7 268.5 20.5 c 128,-1,2
 200 48 200 48 150.5 96.5 c 128,-1,3
 101 145 101 145 73 211 c 128,-1,4
 45 277 45 277 45 355 c 0,5,6
 45 432 45 432 73 498 c 128,-1,7
 101 564 101 564 150.5 612 c 128,-1,8
 200 660 200 660 268.5 687.5 c 128,-1,9
 337 715 337 715 417 715 c 0,10,11
 498 715 498 715 567 687.5 c 128,-1,12
 636 660 636 660 686.5 612 c 128,-1,13
 737 564 737 564 765.5 498 c 128,-1,14
 794 432 794 432 794 355 c 0,15,16
 794 277 794 277 765.5 211 c 128,-1,17
 737 145 737 145 686.5 96.5 c 128,-1,18
 636 48 636 48 567 20.5 c 128,-1,19
 498 -7 498 -7 417 -7 c 0,0,1
417 37 m 0,20,21
 486 37 486 37 546.5 60 c 128,-1,22
 607 83 607 83 651 125 c 128,-1,23
 695 167 695 167 720.5 225 c 128,-1,24
 746 283 746 283 746 353 c 0,25,26
 746 421 746 421 721 479 c 128,-1,27
 696 537 696 537 652 580 c 128,-1,28
 608 623 608 623 548 647 c 128,-1,29
 488 671 488 671 417 671 c 0,30,31
 347 671 347 671 287.5 647 c 128,-1,32
 228 623 228 623 184.5 580 c 128,-1,33
 141 537 141 537 116.5 479 c 128,-1,34
 92 421 92 421 92 354 c 256,35,36
 92 287 92 287 116.5 229 c 128,-1,37
 141 171 141 171 184.5 128.5 c 128,-1,38
 228 86 228 86 287.5 61.5 c 128,-1,39
 347 37 347 37 417 37 c 0,20,21
425 119 m 0,40,41
 373 119 373 119 328 136.5 c 128,-1,42
 283 154 283 154 250 185.5 c 128,-1,43
 217 217 217 217 198.5 260.5 c 128,-1,44
 180 304 180 304 180 355 c 0,45,46
 180 399 180 399 195 441.5 c 128,-1,47
 210 484 210 484 240 517.5 c 128,-1,48
 270 551 270 551 315.5 571.5 c 128,-1,49
 361 592 361 592 421 592 c 0,50,51
 496 592 496 592 551 559.5 c 128,-1,52
 606 527 606 527 632 470 c 1,53,-1
 526 436 l 1,54,55
 517 454 517 454 504.5 466 c 128,-1,56
 492 478 492 478 478 484.5 c 128,-1,57
 464 491 464 491 449 494 c 128,-1,58
 434 497 434 497 421 497 c 0,59,60
 390 497 390 497 366 485 c 128,-1,61
 342 473 342 473 325.5 453.5 c 128,-1,62
 309 434 309 434 300.5 408 c 128,-1,63
 292 382 292 382 292 355 c 0,64,65
 292 321 292 321 303.5 294.5 c 128,-1,66
 315 268 315 268 334 250 c 128,-1,67
 353 232 353 232 376.5 222.5 c 128,-1,68
 400 213 400 213 423 213 c 0,69,70
 454 213 454 213 485 229.5 c 128,-1,71
 516 246 516 246 530 276 c 1,72,-1
 637 244 l 1,73,74
 627 221 627 221 608 198.5 c 128,-1,75
 589 176 589 176 562 158.5 c 128,-1,76
 535 141 535 141 500.5 130 c 128,-1,77
 466 119 466 119 425 119 c 0,40,41
EndSplineSet
EndChar

StartChar: ordfeminine
Encoding: 170 170 109
Width: 441
GlyphClass: 2
Flags: W
LayerCount: 2
Fore
SplineSet
163 342 m 0,0,1
 137 342 137 342 115.5 350.5 c 128,-1,2
 94 359 94 359 77.5 374 c 128,-1,3
 61 389 61 389 52 409.5 c 128,-1,4
 43 430 43 430 43 454 c 0,5,6
 43 479 43 479 54 500.5 c 128,-1,7
 65 522 65 522 85 537 c 128,-1,8
 105 552 105 552 132 560.5 c 128,-1,9
 159 569 159 569 192 569 c 0,10,11
 244 569 244 569 282 553 c 1,12,-1
 282 575 l 2,13,14
 282 612 282 612 261.5 632.5 c 128,-1,15
 241 653 241 653 200 653 c 0,16,17
 172 653 172 653 145 643 c 128,-1,18
 118 633 118 633 88 613 c 1,19,-1
 62 666 l 1,20,21
 132 712 132 712 208 712 c 0,22,23
 283 712 283 712 324.5 674.5 c 128,-1,24
 366 637 366 637 366 565 c 2,25,-1
 366 447 l 2,26,27
 366 422 366 422 389 421 c 1,28,-1
 389 348 l 1,29,30
 369 344 369 344 352 344 c 0,31,32
 327 344 327 344 313.5 355 c 128,-1,33
 300 366 300 366 297 386 c 2,34,-1
 296 407 l 1,35,36
 271 375 271 375 236.5 358.5 c 128,-1,37
 202 342 202 342 163 342 c 0,0,1
187 404 m 0,38,39
 212 404 212 404 234 413 c 128,-1,40
 256 422 256 422 269 437 c 0,41,42
 282 447 282 447 282 463 c 2,43,-1
 282 506 l 1,44,45
 265 514 265 514 245.5 517 c 128,-1,46
 226 520 226 520 207 520 c 0,47,48
 169 520 169 520 145.5 503.5 c 128,-1,49
 122 487 122 487 122 461 c 0,50,51
 122 437 122 437 140.5 420.5 c 128,-1,52
 159 404 159 404 187 404 c 0,38,39
EndSplineSet
EndChar

StartChar: guillemotleft
Encoding: 171 171 110
Width: 621
GlyphClass: 2
Flags: W
LayerCount: 2
Fore
SplineSet
38 284 m 1,0,-1
 296 469 l 1,1,-1
 296 378 l 1,2,-1
 126 259 l 1,3,-1
 296 144 l 1,4,-1
 296 54 l 1,5,-1
 38 229 l 1,6,-1
 38 284 l 1,0,-1
303 284 m 1,7,-1
 562 469 l 1,8,-1
 562 378 l 1,9,-1
 391 259 l 1,10,-1
 562 144 l 1,11,-1
 562 54 l 1,12,-1
 303 229 l 1,13,-1
 303 284 l 1,7,-1
EndSplineSet
EndChar

StartChar: logicalnot
Encoding: 172 172 111
Width: 601
GlyphClass: 2
Flags: W
LayerCount: 2
Fore
SplineSet
533 387 m 1,0,-1
 533 113 l 1,1,-1
 439 113 l 1,2,-1
 439 288 l 1,3,-1
 63 288 l 1,4,-1
 63 387 l 1,5,-1
 533 387 l 1,0,-1
EndSplineSet
EndChar

StartChar: uni00AD
Encoding: 173 173 112
Width: 592
GlyphClass: 2
Flags: W
LayerCount: 2
Fore
SplineSet
61 224 m 1,0,-1
 61 323 l 1,1,-1
 531 323 l 1,2,-1
 531 224 l 1,3,-1
 61 224 l 1,0,-1
EndSplineSet
EndChar

StartChar: registered
Encoding: 174 174 113
Width: 838
GlyphClass: 2
Flags: W
LayerCount: 2
Fore
SplineSet
418 -7 m 256,0,1
 337 -7 337 -7 269 20.5 c 128,-1,2
 201 48 201 48 151 96.5 c 128,-1,3
 101 145 101 145 73 211 c 128,-1,4
 45 277 45 277 45 355 c 0,5,6
 45 432 45 432 73 498 c 128,-1,7
 101 564 101 564 151 612 c 128,-1,8
 201 660 201 660 269 687.5 c 128,-1,9
 337 715 337 715 418 715 c 256,10,11
 499 715 499 715 567.5 687.5 c 128,-1,12
 636 660 636 660 686.5 612 c 128,-1,13
 737 564 737 564 765.5 498 c 128,-1,14
 794 432 794 432 794 355 c 0,15,16
 794 277 794 277 765.5 211 c 128,-1,17
 737 145 737 145 686.5 96.5 c 128,-1,18
 636 48 636 48 567.5 20.5 c 128,-1,19
 499 -7 499 -7 418 -7 c 256,0,1
418 36 m 0,20,21
 487 36 487 36 546.5 59 c 128,-1,22
 606 82 606 82 650.5 124 c 128,-1,23
 695 166 695 166 720 224.5 c 128,-1,24
 745 283 745 283 745 354 c 0,25,26
 745 421 745 421 720.5 479 c 128,-1,27
 696 537 696 537 652 579.5 c 128,-1,28
 608 622 608 622 548 646.5 c 128,-1,29
 488 671 488 671 418 671 c 0,30,31
 347 671 347 671 288 646.5 c 128,-1,32
 229 622 229 622 185.5 579.5 c 128,-1,33
 142 537 142 537 118 479.5 c 128,-1,34
 94 422 94 422 94 355 c 0,35,36
 94 287 94 287 118 229 c 128,-1,37
 142 171 142 171 185.5 128 c 128,-1,38
 229 85 229 85 288 60.5 c 128,-1,39
 347 36 347 36 418 36 c 0,20,21
260 577 m 1,40,-1
 453 577 l 2,41,42
 483 577 483 577 508.5 564.5 c 128,-1,43
 534 552 534 552 552 531.5 c 128,-1,44
 570 511 570 511 580.5 485 c 128,-1,45
 591 459 591 459 591 432 c 0,46,47
 591 387 591 387 566.5 351 c 128,-1,48
 542 315 542 315 502 302 c 1,49,-1
 609 133 l 1,50,-1
 520 133 l 1,51,-1
 422 288 l 1,52,-1
 339 288 l 1,53,-1
 339 133 l 1,54,-1
 260 133 l 1,55,-1
 260 577 l 1,40,-1
448 357 m 2,56,57
 479 357 479 357 496 377.5 c 128,-1,58
 513 398 513 398 513 432 c 0,59,60
 513 467 513 467 493.5 486.5 c 128,-1,61
 474 506 474 506 445 506 c 2,62,-1
 339 506 l 1,63,-1
 339 357 l 1,64,-1
 448 357 l 2,56,57
EndSplineSet
EndChar

StartChar: macron
Encoding: 175 175 114
Width: 411
GlyphClass: 2
Flags: W
LayerCount: 2
Fore
SplineSet
58 644 m 1,0,-1
 58 714 l 1,1,-1
 354 714 l 1,2,-1
 354 644 l 1,3,-1
 58 644 l 1,0,-1
EndSplineSet
EndChar

StartChar: degree
Encoding: 176 176 115
Width: 278
GlyphClass: 2
Flags: W
LayerCount: 2
Fore
SplineSet
44 631 m 0,0,1
 44 671 44 671 71 697.5 c 128,-1,2
 98 724 98 724 139 724 c 0,3,4
 181 724 181 724 207.5 697.5 c 128,-1,5
 234 671 234 671 234 631 c 0,6,7
 234 587 234 587 207.5 560 c 128,-1,8
 181 533 181 533 139 533 c 0,9,10
 98 533 98 533 71 561 c 128,-1,11
 44 589 44 589 44 631 c 0,0,1
111 657 m 0,12,13
 99 643 99 643 99 629 c 0,14,15
 99 613 99 613 111 601 c 0,16,17
 121 589 121 589 139 589 c 0,18,19
 147 589 147 589 154.5 592 c 128,-1,20
 162 595 162 595 167 601 c 0,21,22
 179 613 179 613 179 629 c 0,23,24
 179 643 179 643 167 657 c 0,25,26
 162 663 162 663 154.5 665.5 c 128,-1,27
 147 668 147 668 139 668 c 0,28,29
 122 668 122 668 111 657 c 0,12,13
EndSplineSet
EndChar

StartChar: plusminus
Encoding: 177 177 116
Width: 469
GlyphClass: 2
Flags: W
LayerCount: 2
Fore
SplineSet
63 40 m 1,0,-1
 63 129 l 1,1,-1
 405 129 l 1,2,-1
 405 40 l 1,3,-1
 63 40 l 1,0,-1
406 417 m 1,4,-1
 406 328 l 1,5,-1
 284 328 l 1,6,-1
 284 196 l 1,7,-1
 185 196 l 1,8,-1
 185 328 l 1,9,-1
 63 328 l 1,10,-1
 63 417 l 1,11,-1
 185 417 l 1,12,-1
 185 548 l 1,13,-1
 284 548 l 1,14,-1
 284 417 l 1,15,-1
 406 417 l 1,4,-1
EndSplineSet
EndChar

StartChar: twosuperior
Encoding: 178 178 117
Width: 406
GlyphClass: 2
Flags: W
LayerCount: 2
Fore
SplineSet
32 395 m 1,0,1
 32 435 32 435 39 465 c 128,-1,2
 46 495 46 495 61.5 517.5 c 128,-1,3
 77 540 77 540 101.5 557 c 128,-1,4
 126 574 126 574 161 588 c 0,5,6
 184 597 184 597 208 606 c 128,-1,7
 232 615 232 615 251.5 626 c 128,-1,8
 271 637 271 637 283 651 c 128,-1,9
 295 665 295 665 295 686 c 0,10,11
 295 714 295 714 271.5 731 c 128,-1,12
 248 748 248 748 203 748 c 0,13,14
 157 748 157 748 126.5 731 c 128,-1,15
 96 714 96 714 79 697 c 1,16,-1
 36 745 l 1,17,18
 42 753 42 753 56.5 765 c 128,-1,19
 71 777 71 777 93.5 787.5 c 128,-1,20
 116 798 116 798 146 805.5 c 128,-1,21
 176 813 176 813 213 813 c 0,22,23
 291 813 291 813 330.5 778.5 c 128,-1,24
 370 744 370 744 370 685 c 0,25,26
 370 653 370 653 356.5 631 c 128,-1,27
 343 609 343 609 322.5 593.5 c 128,-1,28
 302 578 302 578 278.5 568.5 c 128,-1,29
 255 559 255 559 235 553 c 0,30,31
 178 535 178 535 151 510 c 128,-1,32
 124 485 124 485 124 460 c 1,33,-1
 361 460 l 1,34,-1
 361 395 l 1,35,-1
 32 395 l 1,0,1
EndSplineSet
EndChar

StartChar: threesuperior
Encoding: 179 179 118
Width: 400
GlyphClass: 2
Flags: W
LayerCount: 2
Fore
SplineSet
191 389 m 0,0,1
 128 389 128 389 85 410.5 c 128,-1,2
 42 432 42 432 30 471 c 1,3,-1
 67 519 l 1,4,5
 70 510 70 510 79.5 499 c 128,-1,6
 89 488 89 488 104.5 478.5 c 128,-1,7
 120 469 120 469 141.5 462.5 c 128,-1,8
 163 456 163 456 190 456 c 0,9,10
 235 456 235 456 266 471.5 c 128,-1,11
 297 487 297 487 297 515 c 0,12,13
 297 546 297 546 257 561.5 c 128,-1,14
 217 577 217 577 148 577 c 2,15,-1
 125 577 l 1,16,-1
 125 638 l 1,17,-1
 148 638 l 2,18,19
 210 638 210 638 246.5 652 c 128,-1,20
 283 666 283 666 283 696 c 0,21,22
 283 709 283 709 275 719.5 c 128,-1,23
 267 730 267 730 254 737 c 128,-1,24
 241 744 241 744 224 747.5 c 128,-1,25
 207 751 207 751 190 751 c 0,26,27
 149 751 149 751 121 737 c 128,-1,28
 93 723 93 723 76 700 c 1,29,-1
 32 752 l 1,30,31
 53 781 53 781 97 797 c 128,-1,32
 141 813 141 813 190 813 c 0,33,34
 225 813 225 813 255 804.5 c 128,-1,35
 285 796 285 796 307 780.5 c 128,-1,36
 329 765 329 765 341.5 744 c 128,-1,37
 354 723 354 723 354 699 c 0,38,39
 354 664 354 664 330 641.5 c 128,-1,40
 306 619 306 619 261 611 c 1,41,42
 309 604 309 604 337 574.5 c 128,-1,43
 365 545 365 545 365 505 c 0,44,45
 365 476 365 476 350.5 454.5 c 128,-1,46
 336 433 336 433 312 418.5 c 128,-1,47
 288 404 288 404 256.5 396.5 c 128,-1,48
 225 389 225 389 191 389 c 0,0,1
EndSplineSet
EndChar

StartChar: acute
Encoding: 180 180 119
Width: 243
GlyphClass: 2
Flags: W
LayerCount: 2
Fore
SplineSet
119 598 m 1,0,-1
 47 620 l 1,1,-1
 104 730 l 1,2,-1
 209 730 l 1,3,-1
 119 598 l 1,0,-1
EndSplineSet
EndChar

StartChar: mu
Encoding: 181 181 120
Width: 645
GlyphClass: 2
Flags: W
LayerCount: 2
Fore
SplineSet
77 523 m 1,0,-1
 187 523 l 1,1,-1
 187 225 l 2,2,3
 187 84 187 84 289 84 c 0,4,5
 334 84 334 84 376.5 113 c 128,-1,6
 419 142 419 142 442 197 c 1,7,-1
 442 523 l 1,8,-1
 552 523 l 1,9,-1
 552 130 l 2,10,11
 552 95 552 95 584 94 c 1,12,-1
 584 0 l 1,13,14
 566 -3 566 -3 554.5 -4 c 128,-1,15
 543 -5 543 -5 533 -5 c 0,16,17
 501 -5 501 -5 481.5 12.5 c 128,-1,18
 462 30 462 30 460 58 c 2,19,-1
 458 106 l 1,20,21
 448 85 448 85 429.5 64 c 128,-1,22
 411 43 411 43 388 26.5 c 128,-1,23
 365 10 365 10 338 0 c 128,-1,24
 311 -10 311 -10 283 -10 c 0,25,26
 240 -10 240 -10 215 11.5 c 128,-1,27
 190 33 190 33 181 58 c 1,28,-1
 181 -212 l 1,29,-1
 77 -212 l 1,30,-1
 77 523 l 1,0,-1
EndSplineSet
EndChar

StartChar: paragraph
Encoding: 182 182 121
Width: 637
GlyphClass: 2
Flags: W
LayerCount: 2
Fore
SplineSet
35 461 m 0,0,1
 35 579 35 579 109 644.5 c 128,-1,2
 183 710 183 710 317 710 c 2,3,-1
 592 710 l 1,4,-1
 592 626 l 1,5,-1
 522 626 l 1,6,-1
 522 -80 l 1,7,-1
 428 -80 l 1,8,-1
 428 216 l 1,9,-1
 369 216 l 1,10,-1
 369 -80 l 1,11,-1
 274 -80 l 1,12,-1
 274 216 l 1,13,14
 220 217 220 217 175.5 234.5 c 128,-1,15
 131 252 131 252 100 284 c 128,-1,16
 69 316 69 316 52 360.5 c 128,-1,17
 35 405 35 405 35 461 c 0,0,1
127 463 m 0,18,19
 127 424 127 424 138.5 394.5 c 128,-1,20
 150 365 150 365 170.5 345 c 128,-1,21
 191 325 191 325 217.5 313.5 c 128,-1,22
 244 302 244 302 274 300 c 1,23,-1
 274 626 l 1,24,25
 203 624 203 624 165 580 c 128,-1,26
 127 536 127 536 127 463 c 0,18,19
428 626 m 1,27,-1
 369 626 l 1,28,-1
 369 300 l 1,29,-1
 428 300 l 1,30,-1
 428 626 l 1,27,-1
EndSplineSet
EndChar

StartChar: periodcentered
Encoding: 183 183 122
Width: 213
GlyphClass: 2
Flags: W
LayerCount: 2
Fore
SplineSet
61 243 m 1,0,-1
 61 380 l 1,1,-1
 152 380 l 1,2,-1
 152 243 l 1,3,-1
 61 243 l 1,0,-1
EndSplineSet
EndChar

StartChar: cedilla
Encoding: 184 184 123
Width: 310
GlyphClass: 2
Flags: W
LayerCount: 2
Fore
SplineSet
45 -126 m 1,0,1
 57 -133 57 -133 82 -139.5 c 128,-1,2
 107 -146 107 -146 133 -146 c 256,3,4
 159 -146 159 -146 174.5 -138 c 128,-1,5
 190 -130 190 -130 190 -112 c 0,6,7
 190 -92 190 -92 175.5 -85 c 128,-1,8
 161 -78 161 -78 138 -78 c 0,9,10
 117 -78 117 -78 94 -82 c 128,-1,11
 71 -86 71 -86 58 -90 c 1,12,-1
 118 24 l 1,13,-1
 163 9 l 1,14,-1
 128 -45 l 1,15,16
 136 -43 136 -43 145 -42 c 128,-1,17
 154 -41 154 -41 162 -41 c 0,18,19
 197 -41 197 -41 220.5 -57 c 128,-1,20
 244 -73 244 -73 244 -108 c 0,21,22
 244 -144 244 -144 214.5 -166.5 c 128,-1,23
 185 -189 185 -189 125 -189 c 0,24,25
 93 -189 93 -189 67.5 -183 c 128,-1,26
 42 -177 42 -177 22 -169 c 1,27,-1
 45 -126 l 1,0,1
EndSplineSet
EndChar

StartChar: onesuperior
Encoding: 185 185 124
Width: 289
GlyphClass: 2
Flags: W
LayerCount: 2
Fore
SplineSet
268 461 m 1,0,-1
 268 395 l 1,1,-1
 49 395 l 1,2,-1
 49 461 l 1,3,-1
 128 461 l 1,4,-1
 128 740 l 1,5,6
 123 733 123 733 112 724.5 c 128,-1,7
 101 716 101 716 87.5 708.5 c 128,-1,8
 74 701 74 701 59.5 695.5 c 128,-1,9
 45 690 45 690 33 690 c 1,10,-1
 33 757 l 1,11,12
 49 757 49 757 65.5 765.5 c 128,-1,13
 82 774 82 774 96 784 c 128,-1,14
 110 794 110 794 119 803 c 128,-1,15
 128 812 128 812 128 813 c 2,16,-1
 195 813 l 1,17,-1
 195 461 l 1,18,-1
 268 461 l 1,0,-1
EndSplineSet
EndChar

StartChar: ordmasculine
Encoding: 186 186 125
Width: 446
GlyphClass: 2
Flags: W
LayerCount: 2
Fore
SplineSet
223 342 m 256,0,1
 181 342 181 342 147 357 c 128,-1,2
 113 372 113 372 89 397.5 c 128,-1,3
 65 423 65 423 52 456 c 128,-1,4
 39 489 39 489 39 526 c 0,5,6
 39 564 39 564 52 597.5 c 128,-1,7
 65 631 65 631 89 656.5 c 128,-1,8
 113 682 113 682 147 697 c 128,-1,9
 181 712 181 712 223 712 c 256,10,11
 265 712 265 712 299 697 c 128,-1,12
 333 682 333 682 357 656.5 c 128,-1,13
 381 631 381 631 394 597.5 c 128,-1,14
 407 564 407 564 407 526 c 0,15,16
 407 489 407 489 394 456 c 128,-1,17
 381 423 381 423 357 397.5 c 128,-1,18
 333 372 333 372 299 357 c 128,-1,19
 265 342 265 342 223 342 c 256,0,1
124 526 m 256,20,21
 124 502 124 502 131.5 481.5 c 128,-1,22
 139 461 139 461 152.5 446 c 128,-1,23
 166 431 166 431 184 422.5 c 128,-1,24
 202 414 202 414 223 414 c 256,25,26
 244 414 244 414 262 422.5 c 128,-1,27
 280 431 280 431 293.5 446 c 128,-1,28
 307 461 307 461 314.5 482 c 128,-1,29
 322 503 322 503 322 527 c 256,30,31
 322 551 322 551 314.5 571.5 c 128,-1,32
 307 592 307 592 293.5 607 c 128,-1,33
 280 622 280 622 262 630.5 c 128,-1,34
 244 639 244 639 223 639 c 256,35,36
 202 639 202 639 184 630.5 c 128,-1,37
 166 622 166 622 152.5 607 c 128,-1,38
 139 592 139 592 131.5 571 c 128,-1,39
 124 550 124 550 124 526 c 256,20,21
EndSplineSet
EndChar

StartChar: guillemotright
Encoding: 187 187 126
Width: 621
GlyphClass: 2
Flags: W
LayerCount: 2
Fore
SplineSet
583 229 m 1,0,-1
 325 54 l 1,1,-1
 325 144 l 1,2,-1
 496 259 l 1,3,-1
 325 378 l 1,4,-1
 325 469 l 1,5,-1
 583 284 l 1,6,-1
 583 229 l 1,0,-1
318 229 m 1,7,-1
 60 54 l 1,8,-1
 60 144 l 1,9,-1
 230 259 l 1,10,-1
 60 378 l 1,11,-1
 60 469 l 1,12,-1
 318 284 l 1,13,-1
 318 229 l 1,7,-1
EndSplineSet
EndChar

StartChar: onequarter
Encoding: 188 188 127
Width: 893
GlyphClass: 2
Flags: W
LayerCount: 2
Fore
SplineSet
732 0 m 1,0,-1
 732 97 l 1,1,-1
 508 97 l 1,2,-1
 508 161 l 1,3,-1
 752 414 l 1,4,-1
 798 414 l 1,5,-1
 798 162 l 1,6,-1
 858 162 l 1,7,-1
 858 97 l 1,8,-1
 798 97 l 1,9,-1
 798 0 l 1,10,-1
 732 0 l 1,0,-1
575 162 m 1,11,-1
 734 162 l 1,12,-1
 734 329 l 1,13,-1
 575 162 l 1,11,-1
161 40 m 1,14,-1
 442 373 l 1,15,-1
 706 716 l 1,16,-1
 758 671 l 1,17,-1
 482 342 l 1,18,-1
 212 -6 l 1,19,-1
 161 40 l 1,14,-1
278 379 m 1,20,-1
 278 313 l 1,21,-1
 59 313 l 1,22,-1
 59 379 l 1,23,-1
 138 379 l 1,24,-1
 138 658 l 1,25,26
 133 651 133 651 122 642.5 c 128,-1,27
 111 634 111 634 97.5 626.5 c 128,-1,28
 84 619 84 619 69.5 613.5 c 128,-1,29
 55 608 55 608 43 608 c 1,30,-1
 43 674 l 1,31,32
 59 674 59 674 75.5 682.5 c 128,-1,33
 92 691 92 691 106 701.5 c 128,-1,34
 120 712 120 712 129 721 c 128,-1,35
 138 730 138 730 138 731 c 2,36,-1
 205 731 l 1,37,-1
 205 379 l 1,38,-1
 278 379 l 1,20,-1
EndSplineSet
EndChar

StartChar: onehalf
Encoding: 189 189 128
Width: 922
GlyphClass: 2
Flags: W
LayerCount: 2
Fore
SplineSet
552 0 m 1,0,1
 552 40 552 40 559 70 c 128,-1,2
 566 100 566 100 581 122.5 c 128,-1,3
 596 145 596 145 620 162 c 128,-1,4
 644 179 644 179 678 193 c 0,5,6
 700 202 700 202 723.5 210.5 c 128,-1,7
 747 219 747 219 765.5 230 c 128,-1,8
 784 241 784 241 796 255.5 c 128,-1,9
 808 270 808 270 808 291 c 0,10,11
 808 320 808 320 785.5 336.5 c 128,-1,12
 763 353 763 353 718 353 c 256,13,14
 673 353 673 353 643.5 335.5 c 128,-1,15
 614 318 614 318 598 301 c 1,16,-1
 556 350 l 1,17,18
 562 358 562 358 576.5 370 c 128,-1,19
 591 382 591 382 612.5 392.5 c 128,-1,20
 634 403 634 403 663 410.5 c 128,-1,21
 692 418 692 418 728 418 c 0,22,23
 803 418 803 418 842 383.5 c 128,-1,24
 881 349 881 349 881 290 c 0,25,26
 881 258 881 258 868 236 c 128,-1,27
 855 214 855 214 835 199 c 128,-1,28
 815 184 815 184 792 175 c 128,-1,29
 769 166 769 166 750 160 c 0,30,31
 695 142 695 142 676 116 c 128,-1,32
 657 90 657 90 657 65 c 1,33,-1
 882 65 l 1,34,-1
 882 0 l 1,35,-1
 552 0 l 1,0,1
123 40 m 1,36,-1
 404 373 l 1,37,-1
 668 716 l 1,38,-1
 720 671 l 1,39,-1
 444 342 l 1,40,-1
 174 -6 l 1,41,-1
 123 40 l 1,36,-1
277 379 m 1,42,-1
 277 313 l 1,43,-1
 58 313 l 1,44,-1
 58 379 l 1,45,-1
 137 379 l 1,46,-1
 137 658 l 1,47,48
 132 651 132 651 121 642.5 c 128,-1,49
 110 634 110 634 96.5 626.5 c 128,-1,50
 83 619 83 619 68.5 613.5 c 128,-1,51
 54 608 54 608 42 608 c 1,52,-1
 42 674 l 1,53,54
 58 674 58 674 74.5 682.5 c 128,-1,55
 91 691 91 691 105 701.5 c 128,-1,56
 119 712 119 712 128 721 c 128,-1,57
 137 730 137 730 137 731 c 2,58,-1
 204 731 l 1,59,-1
 204 379 l 1,60,-1
 277 379 l 1,42,-1
EndSplineSet
EndChar

StartChar: threequarters
Encoding: 190 190 129
Width: 901
GlyphClass: 2
Flags: W
LayerCount: 2
Fore
SplineSet
200 306 m 0,0,1
 137 306 137 306 94 328 c 128,-1,2
 51 350 51 350 39 389 c 1,3,-1
 76 437 l 1,4,5
 79 427 79 427 89 416 c 128,-1,6
 99 405 99 405 115 395.5 c 128,-1,7
 131 386 131 386 152 380 c 128,-1,8
 173 374 173 374 199 374 c 0,9,10
 244 374 244 374 275 389.5 c 128,-1,11
 306 405 306 405 306 433 c 0,12,13
 306 464 306 464 266 479.5 c 128,-1,14
 226 495 226 495 157 495 c 2,15,-1
 134 495 l 1,16,-1
 134 556 l 1,17,-1
 157 556 l 2,18,19
 219 556 219 556 255.5 570 c 128,-1,20
 292 584 292 584 292 613 c 0,21,22
 292 627 292 627 284 637.5 c 128,-1,23
 276 648 276 648 263 655 c 128,-1,24
 250 662 250 662 233 665.5 c 128,-1,25
 216 669 216 669 199 669 c 0,26,27
 158 669 158 669 130 654.5 c 128,-1,28
 102 640 102 640 85 617 c 1,29,-1
 41 670 l 1,30,31
 62 699 62 699 106 715 c 128,-1,32
 150 731 150 731 199 731 c 0,33,34
 234 731 234 731 264 722.5 c 128,-1,35
 294 714 294 714 316 698.5 c 128,-1,36
 338 683 338 683 350.5 662 c 128,-1,37
 363 641 363 641 363 617 c 0,38,39
 363 582 363 582 339 559.5 c 128,-1,40
 315 537 315 537 270 529 c 1,41,42
 318 522 318 522 346 492.5 c 128,-1,43
 374 463 374 463 374 423 c 0,44,45
 374 394 374 394 359.5 372 c 128,-1,46
 345 350 345 350 321 335.5 c 128,-1,47
 297 321 297 321 265.5 313.5 c 128,-1,48
 234 306 234 306 200 306 c 0,0,1
739 0 m 1,49,-1
 739 97 l 1,50,-1
 515 97 l 1,51,-1
 515 161 l 1,52,-1
 759 414 l 1,53,-1
 805 414 l 1,54,-1
 805 162 l 1,55,-1
 865 162 l 1,56,-1
 865 97 l 1,57,-1
 805 97 l 1,58,-1
 805 0 l 1,59,-1
 739 0 l 1,49,-1
582 162 m 1,60,-1
 741 162 l 1,61,-1
 741 329 l 1,62,-1
 582 162 l 1,60,-1
192 40 m 1,63,-1
 473 373 l 1,64,-1
 737 716 l 1,65,-1
 789 671 l 1,66,-1
 513 342 l 1,67,-1
 243 -6 l 1,68,-1
 192 40 l 1,63,-1
EndSplineSet
EndChar

StartChar: questiondown
Encoding: 191 191 130
Width: 476
GlyphClass: 2
Flags: W
LayerCount: 2
Fore
SplineSet
345 285 m 1,0,1
 345 233 345 233 327.5 193 c 128,-1,2
 310 153 310 153 262 124 c 0,3,4
 245 114 245 114 222 101.5 c 128,-1,5
 199 89 199 89 178 72 c 128,-1,6
 157 55 157 55 142.5 32 c 128,-1,7
 128 9 128 9 128 -22 c 0,8,9
 128 -46 128 -46 137.5 -65 c 128,-1,10
 147 -84 147 -84 162 -97 c 128,-1,11
 177 -110 177 -110 197 -116.5 c 128,-1,12
 217 -123 217 -123 238 -123 c 0,13,14
 262 -123 262 -123 282 -115.5 c 128,-1,15
 302 -108 302 -108 319 -95.5 c 128,-1,16
 336 -83 336 -83 349.5 -67.5 c 128,-1,17
 363 -52 363 -52 372 -35 c 1,18,-1
 444 -84 l 1,19,20
 417 -146 417 -146 360 -179.5 c 128,-1,21
 303 -213 303 -213 235 -213 c 0,22,23
 197 -213 197 -213 161 -201.5 c 128,-1,24
 125 -190 125 -190 96 -166.5 c 128,-1,25
 67 -143 67 -143 49.5 -106 c 128,-1,26
 32 -69 32 -69 32 -18 c 0,27,28
 32 16 32 16 41 42 c 128,-1,29
 50 68 50 68 65.5 88.5 c 128,-1,30
 81 109 81 109 102.5 124 c 128,-1,31
 124 139 124 139 148 153 c 0,32,33
 168 164 168 164 187 175.5 c 128,-1,34
 206 187 206 187 220.5 202 c 128,-1,35
 235 217 235 217 244 237 c 128,-1,36
 253 257 253 257 253 285 c 1,37,-1
 345 285 l 1,0,1
345 506 m 1,38,-1
 345 380 l 1,39,-1
 253 380 l 1,40,-1
 253 506 l 1,41,-1
 345 506 l 1,38,-1
EndSplineSet
EndChar

StartChar: Agrave
Encoding: 192 192 131
Width: 675
GlyphClass: 2
Flags: W
LayerCount: 2
Fore
SplineSet
289 710 m 1,0,-1
 387 710 l 1,1,-1
 667 0 l 1,2,-1
 549 0 l 1,3,-1
 474 193 l 1,4,-1
 200 193 l 1,5,-1
 126 0 l 1,6,-1
 7 0 l 1,7,-1
 289 710 l 1,0,-1
452 276 m 1,8,-1
 338 581 l 1,9,-1
 220 276 l 1,10,-1
 452 276 l 1,8,-1
222 917 m 1,11,-1
 327 917 l 1,12,-1
 384 807 l 1,13,-1
 314 785 l 1,14,-1
 222 917 l 1,11,-1
EndSplineSet
EndChar

StartChar: Aacute
Encoding: 193 193 132
Width: 675
GlyphClass: 2
Flags: W
LayerCount: 2
Fore
SplineSet
289 710 m 1,0,-1
 387 710 l 1,1,-1
 667 0 l 1,2,-1
 549 0 l 1,3,-1
 474 193 l 1,4,-1
 200 193 l 1,5,-1
 126 0 l 1,6,-1
 7 0 l 1,7,-1
 289 710 l 1,0,-1
452 276 m 1,8,-1
 338 581 l 1,9,-1
 220 276 l 1,10,-1
 452 276 l 1,8,-1
362 784 m 1,11,-1
 290 806 l 1,12,-1
 347 916 l 1,13,-1
 452 916 l 1,14,-1
 362 784 l 1,11,-1
EndSplineSet
EndChar

StartChar: Acircumflex
Encoding: 194 194 133
Width: 675
GlyphClass: 2
Flags: W
LayerCount: 2
Fore
SplineSet
289 710 m 1,0,-1
 387 710 l 1,1,-1
 667 0 l 1,2,-1
 549 0 l 1,3,-1
 474 193 l 1,4,-1
 200 193 l 1,5,-1
 126 0 l 1,6,-1
 7 0 l 1,7,-1
 289 710 l 1,0,-1
452 276 m 1,8,-1
 338 581 l 1,9,-1
 220 276 l 1,10,-1
 452 276 l 1,8,-1
194 821 m 1,11,-1
 298 916 l 1,12,-1
 377 916 l 1,13,-1
 481 821 l 1,14,-1
 422 793 l 1,15,-1
 337 856 l 1,16,-1
 252 793 l 1,17,-1
 194 821 l 1,11,-1
EndSplineSet
EndChar

StartChar: Atilde
Encoding: 195 195 134
Width: 675
GlyphClass: 2
Flags: W
LayerCount: 2
Fore
SplineSet
289 710 m 1,0,-1
 387 710 l 1,1,-1
 667 0 l 1,2,-1
 549 0 l 1,3,-1
 474 193 l 1,4,-1
 200 193 l 1,5,-1
 126 0 l 1,6,-1
 7 0 l 1,7,-1
 289 710 l 1,0,-1
452 276 m 1,8,-1
 338 581 l 1,9,-1
 220 276 l 1,10,-1
 452 276 l 1,8,-1
401 801 m 0,11,12
 378 801 378 801 361 807.5 c 128,-1,13
 344 814 344 814 329.5 822.5 c 128,-1,14
 315 831 315 831 301 837.5 c 128,-1,15
 287 844 287 844 271 844 c 0,16,17
 254 844 254 844 244.5 837 c 128,-1,18
 235 830 235 830 230 821.5 c 128,-1,19
 225 813 225 813 223.5 805 c 128,-1,20
 222 797 222 797 222 796 c 2,21,-1
 160 796 l 1,22,23
 160 804 160 804 165 823 c 128,-1,24
 170 842 170 842 182.5 861.5 c 128,-1,25
 195 881 195 881 215.5 896 c 128,-1,26
 236 911 236 911 267 911 c 0,27,28
 289 911 289 911 305.5 904 c 128,-1,29
 322 897 322 897 336.5 889 c 128,-1,30
 351 881 351 881 365.5 874 c 128,-1,31
 380 867 380 867 398 867 c 256,32,33
 416 867 416 867 427 874 c 128,-1,34
 438 881 438 881 443.5 890 c 128,-1,35
 449 899 449 899 450.5 906.5 c 128,-1,36
 452 914 452 914 452 916 c 2,37,-1
 515 916 l 1,38,39
 515 910 515 910 509.5 891 c 128,-1,40
 504 872 504 872 491 852 c 128,-1,41
 478 832 478 832 456 816.5 c 128,-1,42
 434 801 434 801 401 801 c 0,11,12
EndSplineSet
EndChar

StartChar: Adieresis
Encoding: 196 196 135
Width: 675
GlyphClass: 2
Flags: W
LayerCount: 2
Fore
SplineSet
289 710 m 1,0,-1
 387 710 l 1,1,-1
 667 0 l 1,2,-1
 549 0 l 1,3,-1
 474 193 l 1,4,-1
 200 193 l 1,5,-1
 126 0 l 1,6,-1
 7 0 l 1,7,-1
 289 710 l 1,0,-1
452 276 m 1,8,-1
 338 581 l 1,9,-1
 220 276 l 1,10,-1
 452 276 l 1,8,-1
204 802 m 1,11,-1
 204 912 l 1,12,-1
 296 912 l 1,13,-1
 296 802 l 1,14,-1
 204 802 l 1,11,-1
381 802 m 1,15,-1
 381 912 l 1,16,-1
 473 912 l 1,17,-1
 473 802 l 1,18,-1
 381 802 l 1,15,-1
EndSplineSet
EndChar

StartChar: Aring
Encoding: 197 197 136
Width: 675
GlyphClass: 2
Flags: W
LayerCount: 2
Fore
SplineSet
289 710 m 1,0,-1
 387 710 l 1,1,-1
 667 0 l 1,2,-1
 549 0 l 1,3,-1
 474 193 l 1,4,-1
 200 193 l 1,5,-1
 126 0 l 1,6,-1
 7 0 l 1,7,-1
 289 710 l 1,0,-1
452 276 m 1,8,-1
 338 581 l 1,9,-1
 220 276 l 1,10,-1
 452 276 l 1,8,-1
249 843 m 0,11,12
 249 878 249 878 273.5 897 c 128,-1,13
 298 916 298 916 337 916 c 0,14,15
 377 916 377 916 401.5 897 c 128,-1,16
 426 878 426 878 426 843 c 0,17,18
 426 809 426 809 401.5 789.5 c 128,-1,19
 377 770 377 770 337 770 c 0,20,21
 298 770 298 770 273.5 789.5 c 128,-1,22
 249 809 249 809 249 843 c 0,11,12
337 880 m 256,23,24
 320 880 320 880 308.5 870 c 128,-1,25
 297 860 297 860 297 843 c 0,26,27
 297 828 297 828 308.5 817 c 128,-1,28
 320 806 320 806 337 806 c 256,29,30
 354 806 354 806 366 816.5 c 128,-1,31
 378 827 378 827 378 843 c 0,32,33
 378 860 378 860 366 870 c 128,-1,34
 354 880 354 880 337 880 c 256,23,24
EndSplineSet
EndChar

StartChar: AE
Encoding: 198 198 137
Width: 963
GlyphClass: 2
Flags: W
LayerCount: 2
Fore
SplineSet
423 710 m 1,0,-1
 919 710 l 1,1,-1
 919 611 l 1,2,-1
 565 611 l 1,3,-1
 565 411 l 1,4,-1
 865 411 l 1,5,-1
 865 312 l 1,6,-1
 565 312 l 1,7,-1
 565 99 l 1,8,-1
 928 99 l 1,9,-1
 928 0 l 1,10,-1
 453 0 l 1,11,-1
 453 193 l 1,12,-1
 214 193 l 1,13,-1
 96 0 l 1,14,-1
 -25 0 l 1,15,-1
 423 710 l 1,0,-1
445 293 m 1,16,-1
 445 581 l 1,17,-1
 263 293 l 1,18,-1
 445 293 l 1,16,-1
EndSplineSet
EndChar

StartChar: Ccedilla
Encoding: 199 199 138
Width: 682
GlyphClass: 2
Flags: W
LayerCount: 2
Fore
SplineSet
289 -126 m 1,0,1
 301 -133 301 -133 326 -139.5 c 128,-1,2
 351 -146 351 -146 377 -146 c 256,3,4
 403 -146 403 -146 418.5 -138 c 128,-1,5
 434 -130 434 -130 434 -112 c 0,6,7
 434 -92 434 -92 419.5 -85 c 128,-1,8
 405 -78 405 -78 382 -78 c 0,9,10
 361 -78 361 -78 338 -82 c 128,-1,11
 315 -86 315 -86 302 -90 c 1,12,-1
 347 -5 l 1,13,14
 277 0 277 0 219.5 33.5 c 128,-1,15
 162 67 162 67 120.5 118 c 128,-1,16
 79 169 79 169 56 232 c 128,-1,17
 33 295 33 295 33 360 c 0,18,19
 33 424 33 424 56 487.5 c 128,-1,20
 79 551 79 551 123.5 601.5 c 128,-1,21
 168 652 168 652 232 683 c 128,-1,22
 296 714 296 714 377 714 c 0,23,24
 474 714 474 714 543 671 c 128,-1,25
 612 628 612 628 647 559 c 1,26,-1
 559 500 l 1,27,28
 544 532 544 532 523 554 c 128,-1,29
 502 576 502 576 477 589 c 128,-1,30
 452 602 452 602 425 607.5 c 128,-1,31
 398 613 398 613 373 613 c 0,32,33
 317 613 317 613 275 590.5 c 128,-1,34
 233 568 233 568 204.5 531 c 128,-1,35
 176 494 176 494 161.5 448 c 128,-1,36
 147 402 147 402 147 356 c 0,37,38
 147 304 147 304 164 257 c 128,-1,39
 181 210 181 210 211.5 174 c 128,-1,40
 242 138 242 138 284 116.5 c 128,-1,41
 326 95 326 95 376 95 c 0,42,43
 402 95 402 95 429.5 101.5 c 128,-1,44
 457 108 457 108 482.5 122.5 c 128,-1,45
 508 137 508 137 529.5 159 c 128,-1,46
 551 181 551 181 565 212 c 1,47,-1
 658 159 l 1,48,49
 643 122 643 122 615 93 c 128,-1,50
 587 64 587 64 552 43 c 128,-1,51
 517 22 517 22 477 10 c 128,-1,52
 437 -2 437 -2 398 -5 c 1,53,-1
 372 -45 l 1,54,55
 380 -43 380 -43 389 -42 c 128,-1,56
 398 -41 398 -41 406 -41 c 0,57,58
 441 -41 441 -41 464.5 -57 c 128,-1,59
 488 -73 488 -73 488 -108 c 0,60,61
 488 -144 488 -144 458.5 -166.5 c 128,-1,62
 429 -189 429 -189 369 -189 c 0,63,64
 337 -189 337 -189 311.5 -183 c 128,-1,65
 286 -177 286 -177 266 -169 c 1,66,-1
 289 -126 l 1,0,1
EndSplineSet
EndChar

StartChar: Egrave
Encoding: 200 200 139
Width: 603
GlyphClass: 2
Flags: W
LayerCount: 2
Fore
SplineSet
567 99 m 1,0,-1
 567 0 l 1,1,-1
 80 0 l 1,2,-1
 80 710 l 1,3,-1
 558 710 l 1,4,-1
 558 611 l 1,5,-1
 192 611 l 1,6,-1
 192 409 l 1,7,-1
 509 409 l 1,8,-1
 509 316 l 1,9,-1
 192 316 l 1,10,-1
 192 99 l 1,11,-1
 567 99 l 1,0,-1
214 917 m 1,12,-1
 319 917 l 1,13,-1
 376 807 l 1,14,-1
 306 785 l 1,15,-1
 214 917 l 1,12,-1
EndSplineSet
EndChar

StartChar: Eacute
Encoding: 201 201 140
Width: 603
GlyphClass: 2
Flags: W
LayerCount: 2
Fore
SplineSet
355 784 m 1,0,-1
 283 806 l 1,1,-1
 340 916 l 1,2,-1
 445 916 l 1,3,-1
 355 784 l 1,0,-1
567 99 m 1,4,-1
 567 0 l 1,5,-1
 80 0 l 1,6,-1
 80 710 l 1,7,-1
 558 710 l 1,8,-1
 558 611 l 1,9,-1
 192 611 l 1,10,-1
 192 409 l 1,11,-1
 509 409 l 1,12,-1
 509 316 l 1,13,-1
 192 316 l 1,14,-1
 192 99 l 1,15,-1
 567 99 l 1,4,-1
EndSplineSet
EndChar

StartChar: Ecircumflex
Encoding: 202 202 141
Width: 603
GlyphClass: 2
Flags: W
LayerCount: 2
Fore
SplineSet
187 821 m 1,0,-1
 291 916 l 1,1,-1
 370 916 l 1,2,-1
 474 821 l 1,3,-1
 415 793 l 1,4,-1
 330 856 l 1,5,-1
 245 793 l 1,6,-1
 187 821 l 1,0,-1
567 99 m 1,7,-1
 567 0 l 1,8,-1
 80 0 l 1,9,-1
 80 710 l 1,10,-1
 558 710 l 1,11,-1
 558 611 l 1,12,-1
 192 611 l 1,13,-1
 192 409 l 1,14,-1
 509 409 l 1,15,-1
 509 316 l 1,16,-1
 192 316 l 1,17,-1
 192 99 l 1,18,-1
 567 99 l 1,7,-1
EndSplineSet
EndChar

StartChar: Edieresis
Encoding: 203 203 142
Width: 603
GlyphClass: 2
Flags: W
LayerCount: 2
Fore
SplineSet
196 802 m 1,0,-1
 196 912 l 1,1,-1
 288 912 l 1,2,-1
 288 802 l 1,3,-1
 196 802 l 1,0,-1
373 802 m 1,4,-1
 373 912 l 1,5,-1
 465 912 l 1,6,-1
 465 802 l 1,7,-1
 373 802 l 1,4,-1
567 99 m 1,8,-1
 567 0 l 1,9,-1
 80 0 l 1,10,-1
 80 710 l 1,11,-1
 558 710 l 1,12,-1
 558 611 l 1,13,-1
 192 611 l 1,14,-1
 192 409 l 1,15,-1
 509 409 l 1,16,-1
 509 316 l 1,17,-1
 192 316 l 1,18,-1
 192 99 l 1,19,-1
 567 99 l 1,8,-1
EndSplineSet
EndChar

StartChar: Igrave
Encoding: 204 204 143
Width: 272
GlyphClass: 2
Flags: W
LayerCount: 2
Fore
SplineSet
80 0 m 1,0,-1
 80 710 l 1,1,-1
 192 710 l 1,2,-1
 192 0 l 1,3,-1
 80 0 l 1,0,-1
20 917 m 1,4,-1
 125 917 l 1,5,-1
 182 807 l 1,6,-1
 112 785 l 1,7,-1
 20 917 l 1,4,-1
EndSplineSet
EndChar

StartChar: Iacute
Encoding: 205 205 144
Width: 272
GlyphClass: 2
Flags: W
LayerCount: 2
Fore
SplineSet
80 0 m 1,0,-1
 80 710 l 1,1,-1
 192 710 l 1,2,-1
 192 0 l 1,3,-1
 80 0 l 1,0,-1
161 784 m 1,4,-1
 89 806 l 1,5,-1
 146 916 l 1,6,-1
 251 916 l 1,7,-1
 161 784 l 1,4,-1
EndSplineSet
EndChar

StartChar: Icircumflex
Encoding: 206 206 145
Width: 272
GlyphClass: 2
Flags: W
LayerCount: 2
Fore
SplineSet
80 0 m 1,0,-1
 80 710 l 1,1,-1
 192 710 l 1,2,-1
 192 0 l 1,3,-1
 80 0 l 1,0,-1
-7 821 m 1,4,-1
 97 916 l 1,5,-1
 176 916 l 1,6,-1
 280 821 l 1,7,-1
 221 793 l 1,8,-1
 136 856 l 1,9,-1
 51 793 l 1,10,-1
 -7 821 l 1,4,-1
EndSplineSet
EndChar

StartChar: Idieresis
Encoding: 207 207 146
Width: 272
GlyphClass: 2
Flags: W
LayerCount: 2
Fore
SplineSet
80 0 m 1,0,-1
 80 710 l 1,1,-1
 192 710 l 1,2,-1
 192 0 l 1,3,-1
 80 0 l 1,0,-1
2 802 m 1,4,-1
 2 912 l 1,5,-1
 94 912 l 1,6,-1
 94 802 l 1,7,-1
 2 802 l 1,4,-1
179 802 m 1,8,-1
 179 912 l 1,9,-1
 271 912 l 1,10,-1
 271 802 l 1,11,-1
 179 802 l 1,8,-1
EndSplineSet
EndChar

StartChar: Eth
Encoding: 208 208 147
Width: 722
GlyphClass: 2
Flags: W
LayerCount: 2
Fore
SplineSet
86 0 m 1,0,-1
 86 315 l 1,1,-1
 33 315 l 1,2,-1
 33 399 l 1,3,-1
 86 399 l 1,4,-1
 86 710 l 1,5,-1
 338 710 l 2,6,7
 424 710 424 710 488.5 682 c 128,-1,8
 553 654 553 654 596.5 606 c 128,-1,9
 640 558 640 558 662 493.5 c 128,-1,10
 684 429 684 429 684 356 c 0,11,12
 684 275 684 275 659.5 209.5 c 128,-1,13
 635 144 635 144 590 97.5 c 128,-1,14
 545 51 545 51 481 25.5 c 128,-1,15
 417 0 417 0 338 0 c 2,16,-1
 86 0 l 1,0,-1
570 356 m 0,17,18
 570 412 570 412 554.5 459 c 128,-1,19
 539 506 539 506 509 539.5 c 128,-1,20
 479 573 479 573 436 592 c 128,-1,21
 393 611 393 611 338 611 c 2,22,-1
 198 611 l 1,23,-1
 198 399 l 1,24,-1
 349 399 l 1,25,-1
 349 315 l 1,26,-1
 198 315 l 1,27,-1
 198 99 l 1,28,-1
 338 99 l 2,29,30
 394 99 394 99 437.5 118.5 c 128,-1,31
 481 138 481 138 510.5 172.5 c 128,-1,32
 540 207 540 207 555 254 c 128,-1,33
 570 301 570 301 570 356 c 0,17,18
EndSplineSet
EndChar

StartChar: Ntilde
Encoding: 209 209 148
Width: 767
GlyphClass: 2
Flags: W
LayerCount: 2
Fore
SplineSet
192 500 m 1,0,-1
 192 0 l 1,1,-1
 80 0 l 1,2,-1
 80 710 l 1,3,-1
 168 710 l 1,4,-1
 574 198 l 1,5,-1
 574 709 l 1,6,-1
 687 709 l 1,7,-1
 687 0 l 1,8,-1
 594 0 l 1,9,-1
 192 500 l 1,0,-1
447 800 m 0,10,11
 424 800 424 800 407 806.5 c 128,-1,12
 390 813 390 813 375.5 821.5 c 128,-1,13
 361 830 361 830 347 836.5 c 128,-1,14
 333 843 333 843 317 843 c 0,15,16
 300 843 300 843 290.5 836 c 128,-1,17
 281 829 281 829 276 820.5 c 128,-1,18
 271 812 271 812 269.5 804 c 128,-1,19
 268 796 268 796 268 795 c 2,20,-1
 206 795 l 1,21,22
 206 803 206 803 211 822 c 128,-1,23
 216 841 216 841 228.5 860.5 c 128,-1,24
 241 880 241 880 261.5 895 c 128,-1,25
 282 910 282 910 313 910 c 0,26,27
 335 910 335 910 351.5 903 c 128,-1,28
 368 896 368 896 382.5 888 c 128,-1,29
 397 880 397 880 411.5 873 c 128,-1,30
 426 866 426 866 444 866 c 256,31,32
 462 866 462 866 473 873 c 128,-1,33
 484 880 484 880 489.5 889 c 128,-1,34
 495 898 495 898 496.5 905.5 c 128,-1,35
 498 913 498 913 498 915 c 2,36,-1
 561 915 l 1,37,38
 561 909 561 909 555.5 890 c 128,-1,39
 550 871 550 871 537 851 c 128,-1,40
 524 831 524 831 502 815.5 c 128,-1,41
 480 800 480 800 447 800 c 0,10,11
EndSplineSet
EndChar

StartChar: Ograve
Encoding: 210 210 149
Width: 752
GlyphClass: 2
Flags: W
LayerCount: 2
Fore
SplineSet
375 -5 m 0,0,1
 299 -5 299 -5 236.5 25.5 c 128,-1,2
 174 56 174 56 129 106.5 c 128,-1,3
 84 157 84 157 59.5 222 c 128,-1,4
 35 287 35 287 35 355 c 0,5,6
 35 426 35 426 61 491 c 128,-1,7
 87 556 87 556 132.5 606 c 128,-1,8
 178 656 178 656 240.5 685.5 c 128,-1,9
 303 715 303 715 377 715 c 0,10,11
 453 715 453 715 515.5 683.5 c 128,-1,12
 578 652 578 652 622.5 601 c 128,-1,13
 667 550 667 550 691.5 485.5 c 128,-1,14
 716 421 716 421 716 354 c 0,15,16
 716 283 716 283 690.5 218 c 128,-1,17
 665 153 665 153 619 103.5 c 128,-1,18
 573 54 573 54 510.5 24.5 c 128,-1,19
 448 -5 448 -5 375 -5 c 0,0,1
149 355 m 0,20,21
 149 305 149 305 165 258 c 128,-1,22
 181 211 181 211 210.5 175 c 128,-1,23
 240 139 240 139 282 117.5 c 128,-1,24
 324 96 324 96 376 96 c 0,25,26
 430 96 430 96 471.5 118.5 c 128,-1,27
 513 141 513 141 542 178 c 128,-1,28
 571 215 571 215 586 261 c 128,-1,29
 601 307 601 307 601 355 c 0,30,31
 601 406 601 406 585 452.5 c 128,-1,32
 569 499 569 499 539.5 534.5 c 128,-1,33
 510 570 510 570 468.5 591.5 c 128,-1,34
 427 613 427 613 376 613 c 0,35,36
 322 613 322 613 280 590.5 c 128,-1,37
 238 568 238 568 209 532 c 128,-1,38
 180 496 180 496 164.5 449.5 c 128,-1,39
 149 403 149 403 149 355 c 0,20,21
262 917 m 1,40,-1
 367 917 l 1,41,-1
 424 807 l 1,42,-1
 354 785 l 1,43,-1
 262 917 l 1,40,-1
EndSplineSet
EndChar

StartChar: Oacute
Encoding: 211 211 150
Width: 752
GlyphClass: 2
Flags: W
LayerCount: 2
Fore
SplineSet
403 784 m 1,0,-1
 331 806 l 1,1,-1
 388 916 l 1,2,-1
 493 916 l 1,3,-1
 403 784 l 1,0,-1
375 -5 m 0,4,5
 299 -5 299 -5 236.5 25.5 c 128,-1,6
 174 56 174 56 129 106.5 c 128,-1,7
 84 157 84 157 59.5 222 c 128,-1,8
 35 287 35 287 35 355 c 0,9,10
 35 426 35 426 61 491 c 128,-1,11
 87 556 87 556 132.5 606 c 128,-1,12
 178 656 178 656 240.5 685.5 c 128,-1,13
 303 715 303 715 377 715 c 0,14,15
 453 715 453 715 515.5 683.5 c 128,-1,16
 578 652 578 652 622.5 601 c 128,-1,17
 667 550 667 550 691.5 485.5 c 128,-1,18
 716 421 716 421 716 354 c 0,19,20
 716 283 716 283 690.5 218 c 128,-1,21
 665 153 665 153 619 103.5 c 128,-1,22
 573 54 573 54 510.5 24.5 c 128,-1,23
 448 -5 448 -5 375 -5 c 0,4,5
149 355 m 0,24,25
 149 305 149 305 165 258 c 128,-1,26
 181 211 181 211 210.5 175 c 128,-1,27
 240 139 240 139 282 117.5 c 128,-1,28
 324 96 324 96 376 96 c 0,29,30
 430 96 430 96 471.5 118.5 c 128,-1,31
 513 141 513 141 542 178 c 128,-1,32
 571 215 571 215 586 261 c 128,-1,33
 601 307 601 307 601 355 c 0,34,35
 601 406 601 406 585 452.5 c 128,-1,36
 569 499 569 499 539.5 534.5 c 128,-1,37
 510 570 510 570 468.5 591.5 c 128,-1,38
 427 613 427 613 376 613 c 0,39,40
 322 613 322 613 280 590.5 c 128,-1,41
 238 568 238 568 209 532 c 128,-1,42
 180 496 180 496 164.5 449.5 c 128,-1,43
 149 403 149 403 149 355 c 0,24,25
EndSplineSet
EndChar

StartChar: Ocircumflex
Encoding: 212 212 151
Width: 752
GlyphClass: 2
Flags: W
LayerCount: 2
Fore
SplineSet
233 821 m 1,0,-1
 337 916 l 1,1,-1
 416 916 l 1,2,-1
 520 821 l 1,3,-1
 461 793 l 1,4,-1
 376 856 l 1,5,-1
 291 793 l 1,6,-1
 233 821 l 1,0,-1
375 -5 m 0,7,8
 299 -5 299 -5 236.5 25.5 c 128,-1,9
 174 56 174 56 129 106.5 c 128,-1,10
 84 157 84 157 59.5 222 c 128,-1,11
 35 287 35 287 35 355 c 0,12,13
 35 426 35 426 61 491 c 128,-1,14
 87 556 87 556 132.5 606 c 128,-1,15
 178 656 178 656 240.5 685.5 c 128,-1,16
 303 715 303 715 377 715 c 0,17,18
 453 715 453 715 515.5 683.5 c 128,-1,19
 578 652 578 652 622.5 601 c 128,-1,20
 667 550 667 550 691.5 485.5 c 128,-1,21
 716 421 716 421 716 354 c 0,22,23
 716 283 716 283 690.5 218 c 128,-1,24
 665 153 665 153 619 103.5 c 128,-1,25
 573 54 573 54 510.5 24.5 c 128,-1,26
 448 -5 448 -5 375 -5 c 0,7,8
149 355 m 0,27,28
 149 305 149 305 165 258 c 128,-1,29
 181 211 181 211 210.5 175 c 128,-1,30
 240 139 240 139 282 117.5 c 128,-1,31
 324 96 324 96 376 96 c 0,32,33
 430 96 430 96 471.5 118.5 c 128,-1,34
 513 141 513 141 542 178 c 128,-1,35
 571 215 571 215 586 261 c 128,-1,36
 601 307 601 307 601 355 c 0,37,38
 601 406 601 406 585 452.5 c 128,-1,39
 569 499 569 499 539.5 534.5 c 128,-1,40
 510 570 510 570 468.5 591.5 c 128,-1,41
 427 613 427 613 376 613 c 0,42,43
 322 613 322 613 280 590.5 c 128,-1,44
 238 568 238 568 209 532 c 128,-1,45
 180 496 180 496 164.5 449.5 c 128,-1,46
 149 403 149 403 149 355 c 0,27,28
EndSplineSet
EndChar

StartChar: Otilde
Encoding: 213 213 152
Width: 752
GlyphClass: 2
Flags: W
LayerCount: 2
Fore
SplineSet
375 -5 m 0,0,1
 299 -5 299 -5 236.5 25.5 c 128,-1,2
 174 56 174 56 129 106.5 c 128,-1,3
 84 157 84 157 59.5 222 c 128,-1,4
 35 287 35 287 35 355 c 0,5,6
 35 426 35 426 61 491 c 128,-1,7
 87 556 87 556 132.5 606 c 128,-1,8
 178 656 178 656 240.5 685.5 c 128,-1,9
 303 715 303 715 377 715 c 0,10,11
 453 715 453 715 515.5 683.5 c 128,-1,12
 578 652 578 652 622.5 601 c 128,-1,13
 667 550 667 550 691.5 485.5 c 128,-1,14
 716 421 716 421 716 354 c 0,15,16
 716 283 716 283 690.5 218 c 128,-1,17
 665 153 665 153 619 103.5 c 128,-1,18
 573 54 573 54 510.5 24.5 c 128,-1,19
 448 -5 448 -5 375 -5 c 0,0,1
149 355 m 0,20,21
 149 305 149 305 165 258 c 128,-1,22
 181 211 181 211 210.5 175 c 128,-1,23
 240 139 240 139 282 117.5 c 128,-1,24
 324 96 324 96 376 96 c 0,25,26
 430 96 430 96 471.5 118.5 c 128,-1,27
 513 141 513 141 542 178 c 128,-1,28
 571 215 571 215 586 261 c 128,-1,29
 601 307 601 307 601 355 c 0,30,31
 601 406 601 406 585 452.5 c 128,-1,32
 569 499 569 499 539.5 534.5 c 128,-1,33
 510 570 510 570 468.5 591.5 c 128,-1,34
 427 613 427 613 376 613 c 0,35,36
 322 613 322 613 280 590.5 c 128,-1,37
 238 568 238 568 209 532 c 128,-1,38
 180 496 180 496 164.5 449.5 c 128,-1,39
 149 403 149 403 149 355 c 0,20,21
441 801 m 0,40,41
 418 801 418 801 401 807.5 c 128,-1,42
 384 814 384 814 369.5 822.5 c 128,-1,43
 355 831 355 831 341 837.5 c 128,-1,44
 327 844 327 844 311 844 c 0,45,46
 294 844 294 844 284.5 837 c 128,-1,47
 275 830 275 830 270 821.5 c 128,-1,48
 265 813 265 813 263.5 805 c 128,-1,49
 262 797 262 797 262 796 c 2,50,-1
 200 796 l 1,51,52
 200 804 200 804 205 823 c 128,-1,53
 210 842 210 842 222.5 861.5 c 128,-1,54
 235 881 235 881 255.5 896 c 128,-1,55
 276 911 276 911 307 911 c 0,56,57
 329 911 329 911 345.5 904 c 128,-1,58
 362 897 362 897 376.5 889 c 128,-1,59
 391 881 391 881 405.5 874 c 128,-1,60
 420 867 420 867 438 867 c 256,61,62
 456 867 456 867 467 874 c 128,-1,63
 478 881 478 881 483.5 890 c 128,-1,64
 489 899 489 899 490.5 906.5 c 128,-1,65
 492 914 492 914 492 916 c 2,66,-1
 555 916 l 1,67,68
 555 910 555 910 549.5 891 c 128,-1,69
 544 872 544 872 531 852 c 128,-1,70
 518 832 518 832 496 816.5 c 128,-1,71
 474 801 474 801 441 801 c 0,40,41
EndSplineSet
EndChar

StartChar: Odieresis
Encoding: 214 214 153
Width: 752
GlyphClass: 2
Flags: W
LayerCount: 2
Fore
SplineSet
243 802 m 1,0,-1
 243 912 l 1,1,-1
 335 912 l 1,2,-1
 335 802 l 1,3,-1
 243 802 l 1,0,-1
420 802 m 1,4,-1
 420 912 l 1,5,-1
 512 912 l 1,6,-1
 512 802 l 1,7,-1
 420 802 l 1,4,-1
375 -5 m 0,8,9
 299 -5 299 -5 236.5 25.5 c 128,-1,10
 174 56 174 56 129 106.5 c 128,-1,11
 84 157 84 157 59.5 222 c 128,-1,12
 35 287 35 287 35 355 c 0,13,14
 35 426 35 426 61 491 c 128,-1,15
 87 556 87 556 132.5 606 c 128,-1,16
 178 656 178 656 240.5 685.5 c 128,-1,17
 303 715 303 715 377 715 c 0,18,19
 453 715 453 715 515.5 683.5 c 128,-1,20
 578 652 578 652 622.5 601 c 128,-1,21
 667 550 667 550 691.5 485.5 c 128,-1,22
 716 421 716 421 716 354 c 0,23,24
 716 283 716 283 690.5 218 c 128,-1,25
 665 153 665 153 619 103.5 c 128,-1,26
 573 54 573 54 510.5 24.5 c 128,-1,27
 448 -5 448 -5 375 -5 c 0,8,9
149 355 m 0,28,29
 149 305 149 305 165 258 c 128,-1,30
 181 211 181 211 210.5 175 c 128,-1,31
 240 139 240 139 282 117.5 c 128,-1,32
 324 96 324 96 376 96 c 0,33,34
 430 96 430 96 471.5 118.5 c 128,-1,35
 513 141 513 141 542 178 c 128,-1,36
 571 215 571 215 586 261 c 128,-1,37
 601 307 601 307 601 355 c 0,38,39
 601 406 601 406 585 452.5 c 128,-1,40
 569 499 569 499 539.5 534.5 c 128,-1,41
 510 570 510 570 468.5 591.5 c 128,-1,42
 427 613 427 613 376 613 c 0,43,44
 322 613 322 613 280 590.5 c 128,-1,45
 238 568 238 568 209 532 c 128,-1,46
 180 496 180 496 164.5 449.5 c 128,-1,47
 149 403 149 403 149 355 c 0,28,29
EndSplineSet
EndChar

StartChar: multiply
Encoding: 215 215 154
Width: 470
GlyphClass: 2
Flags: W
LayerCount: 2
Fore
SplineSet
414 164 m 1,0,-1
 345 96 l 1,1,-1
 235 205 l 1,2,-1
 125 96 l 1,3,-1
 57 165 l 1,4,-1
 165 274 l 1,5,-1
 60 381 l 1,6,-1
 129 449 l 1,7,-1
 235 343 l 1,8,-1
 342 450 l 1,9,-1
 410 381 l 1,10,-1
 304 274 l 1,11,-1
 414 164 l 1,0,-1
EndSplineSet
EndChar

StartChar: Oslash
Encoding: 216 216 155
Width: 751
GlyphClass: 2
Flags: W
LayerCount: 2
Fore
SplineSet
680 710 m 1,0,-1
 613 612 l 1,1,2
 662 560 662 560 689 492 c 128,-1,3
 716 424 716 424 716 354 c 0,4,5
 716 283 716 283 690.5 218 c 128,-1,6
 665 153 665 153 619 103.5 c 128,-1,7
 573 54 573 54 510.5 24.5 c 128,-1,8
 448 -5 448 -5 375 -5 c 0,9,10
 330 -5 330 -5 291 5.5 c 128,-1,11
 252 16 252 16 217 35 c 1,12,-1
 193 0 l 1,13,-1
 71 0 l 1,14,-1
 137 97 l 1,15,16
 88 148 88 148 61.5 215.5 c 128,-1,17
 35 283 35 283 35 355 c 0,18,19
 35 426 35 426 61 491 c 128,-1,20
 87 556 87 556 132.5 606 c 128,-1,21
 178 656 178 656 240.5 685.5 c 128,-1,22
 303 715 303 715 377 715 c 0,23,24
 421 715 421 715 460 704.5 c 128,-1,25
 499 694 499 694 533 674 c 1,26,-1
 558 710 l 1,27,-1
 680 710 l 1,0,-1
149 355 m 0,28,29
 149 309 149 309 162 266 c 128,-1,30
 175 223 175 223 200 188 c 1,31,-1
 474 588 l 1,32,33
 429 613 429 613 376 613 c 0,34,35
 322 613 322 613 280 590.5 c 128,-1,36
 238 568 238 568 209 532 c 128,-1,37
 180 496 180 496 164.5 449.5 c 128,-1,38
 149 403 149 403 149 355 c 0,28,29
601 355 m 0,39,40
 601 401 601 401 588 443.5 c 128,-1,41
 575 486 575 486 550 521 c 1,42,-1
 276 120 l 1,43,44
 298 109 298 109 323 102.5 c 128,-1,45
 348 96 348 96 376 96 c 0,46,47
 430 96 430 96 471.5 118.5 c 128,-1,48
 513 141 513 141 542 178 c 128,-1,49
 571 215 571 215 586 261 c 128,-1,50
 601 307 601 307 601 355 c 0,39,40
EndSplineSet
EndChar

StartChar: Ugrave
Encoding: 217 217 156
Width: 752
GlyphClass: 2
Flags: W
LayerCount: 2
Fore
SplineSet
376 96 m 0,0,1
 432 96 432 96 469 118 c 128,-1,2
 506 140 506 140 528.5 175.5 c 128,-1,3
 551 211 551 211 560.5 256.5 c 128,-1,4
 570 302 570 302 570 350 c 2,5,-1
 570 710 l 1,6,-1
 683 710 l 1,7,-1
 683 350 l 2,8,9
 683 277 683 277 666 212.5 c 128,-1,10
 649 148 649 148 612 99.5 c 128,-1,11
 575 51 575 51 516.5 23 c 128,-1,12
 458 -5 458 -5 376 -5 c 0,13,14
 291 -5 291 -5 232.5 24.5 c 128,-1,15
 174 54 174 54 138 103.5 c 128,-1,16
 102 153 102 153 86 217 c 128,-1,17
 70 281 70 281 70 350 c 2,18,-1
 70 710 l 1,19,-1
 182 710 l 1,20,-1
 182 350 l 2,21,22
 182 301 182 301 191.5 255.5 c 128,-1,23
 201 210 201 210 223.5 174.5 c 128,-1,24
 246 139 246 139 283.5 117.5 c 128,-1,25
 321 96 321 96 376 96 c 0,0,1
261 917 m 1,26,-1
 366 917 l 1,27,-1
 423 807 l 1,28,-1
 353 785 l 1,29,-1
 261 917 l 1,26,-1
EndSplineSet
EndChar

StartChar: Uacute
Encoding: 218 218 157
Width: 752
GlyphClass: 2
Flags: W
LayerCount: 2
Fore
SplineSet
401 784 m 1,0,-1
 329 806 l 1,1,-1
 386 916 l 1,2,-1
 491 916 l 1,3,-1
 401 784 l 1,0,-1
376 96 m 0,4,5
 432 96 432 96 469 118 c 128,-1,6
 506 140 506 140 528.5 175.5 c 128,-1,7
 551 211 551 211 560.5 256.5 c 128,-1,8
 570 302 570 302 570 350 c 2,9,-1
 570 710 l 1,10,-1
 683 710 l 1,11,-1
 683 350 l 2,12,13
 683 277 683 277 666 212.5 c 128,-1,14
 649 148 649 148 612 99.5 c 128,-1,15
 575 51 575 51 516.5 23 c 128,-1,16
 458 -5 458 -5 376 -5 c 0,17,18
 291 -5 291 -5 232.5 24.5 c 128,-1,19
 174 54 174 54 138 103.5 c 128,-1,20
 102 153 102 153 86 217 c 128,-1,21
 70 281 70 281 70 350 c 2,22,-1
 70 710 l 1,23,-1
 182 710 l 1,24,-1
 182 350 l 2,25,26
 182 301 182 301 191.5 255.5 c 128,-1,27
 201 210 201 210 223.5 174.5 c 128,-1,28
 246 139 246 139 283.5 117.5 c 128,-1,29
 321 96 321 96 376 96 c 0,4,5
EndSplineSet
EndChar

StartChar: Ucircumflex
Encoding: 219 219 158
Width: 752
GlyphClass: 2
Flags: W
LayerCount: 2
Fore
SplineSet
233 821 m 1,0,-1
 337 916 l 1,1,-1
 416 916 l 1,2,-1
 520 821 l 1,3,-1
 461 793 l 1,4,-1
 376 856 l 1,5,-1
 291 793 l 1,6,-1
 233 821 l 1,0,-1
376 96 m 0,7,8
 432 96 432 96 469 118 c 128,-1,9
 506 140 506 140 528.5 175.5 c 128,-1,10
 551 211 551 211 560.5 256.5 c 128,-1,11
 570 302 570 302 570 350 c 2,12,-1
 570 710 l 1,13,-1
 683 710 l 1,14,-1
 683 350 l 2,15,16
 683 277 683 277 666 212.5 c 128,-1,17
 649 148 649 148 612 99.5 c 128,-1,18
 575 51 575 51 516.5 23 c 128,-1,19
 458 -5 458 -5 376 -5 c 0,20,21
 291 -5 291 -5 232.5 24.5 c 128,-1,22
 174 54 174 54 138 103.5 c 128,-1,23
 102 153 102 153 86 217 c 128,-1,24
 70 281 70 281 70 350 c 2,25,-1
 70 710 l 1,26,-1
 182 710 l 1,27,-1
 182 350 l 2,28,29
 182 301 182 301 191.5 255.5 c 128,-1,30
 201 210 201 210 223.5 174.5 c 128,-1,31
 246 139 246 139 283.5 117.5 c 128,-1,32
 321 96 321 96 376 96 c 0,7,8
EndSplineSet
EndChar

StartChar: Udieresis
Encoding: 220 220 159
Width: 752
GlyphClass: 2
Flags: W
LayerCount: 2
Fore
SplineSet
242 802 m 1,0,-1
 242 912 l 1,1,-1
 334 912 l 1,2,-1
 334 802 l 1,3,-1
 242 802 l 1,0,-1
419 802 m 1,4,-1
 419 912 l 1,5,-1
 511 912 l 1,6,-1
 511 802 l 1,7,-1
 419 802 l 1,4,-1
376 96 m 0,8,9
 432 96 432 96 469 118 c 128,-1,10
 506 140 506 140 528.5 175.5 c 128,-1,11
 551 211 551 211 560.5 256.5 c 128,-1,12
 570 302 570 302 570 350 c 2,13,-1
 570 710 l 1,14,-1
 683 710 l 1,15,-1
 683 350 l 2,16,17
 683 277 683 277 666 212.5 c 128,-1,18
 649 148 649 148 612 99.5 c 128,-1,19
 575 51 575 51 516.5 23 c 128,-1,20
 458 -5 458 -5 376 -5 c 0,21,22
 291 -5 291 -5 232.5 24.5 c 128,-1,23
 174 54 174 54 138 103.5 c 128,-1,24
 102 153 102 153 86 217 c 128,-1,25
 70 281 70 281 70 350 c 2,26,-1
 70 710 l 1,27,-1
 182 710 l 1,28,-1
 182 350 l 2,29,30
 182 301 182 301 191.5 255.5 c 128,-1,31
 201 210 201 210 223.5 174.5 c 128,-1,32
 246 139 246 139 283.5 117.5 c 128,-1,33
 321 96 321 96 376 96 c 0,8,9
EndSplineSet
EndChar

StartChar: Yacute
Encoding: 221 221 160
Width: 657
GlyphClass: 2
Flags: W
LayerCount: 2
Fore
SplineSet
132 710 m 1,0,-1
 328 354 l 1,1,-1
 526 710 l 1,2,-1
 649 710 l 1,3,-1
 384 254 l 1,4,-1
 384 0 l 1,5,-1
 272 0 l 1,6,-1
 272 256 l 1,7,-1
 9 710 l 1,8,-1
 132 710 l 1,0,-1
353 784 m 1,9,-1
 281 806 l 1,10,-1
 338 916 l 1,11,-1
 443 916 l 1,12,-1
 353 784 l 1,9,-1
EndSplineSet
EndChar

StartChar: Thorn
Encoding: 222 222 161
Width: 604
GlyphClass: 2
Flags: W
LayerCount: 2
Fore
SplineSet
361 577 m 2,0,1
 409 577 409 577 449.5 557 c 128,-1,2
 490 537 490 537 519 504.5 c 128,-1,3
 548 472 548 472 564.5 430.5 c 128,-1,4
 581 389 581 389 581 346 c 0,5,6
 581 301 581 301 565.5 259 c 128,-1,7
 550 217 550 217 522 185 c 128,-1,8
 494 153 494 153 454 133.5 c 128,-1,9
 414 114 414 114 366 114 c 2,10,-1
 192 114 l 1,11,-1
 192 0 l 1,12,-1
 80 0 l 1,13,-1
 80 710 l 1,14,-1
 192 710 l 1,15,-1
 192 577 l 1,16,-1
 361 577 l 2,0,1
361 214 m 2,17,18
 385 214 385 214 404.5 225 c 128,-1,19
 424 236 424 236 438.5 254 c 128,-1,20
 453 272 453 272 460.5 296 c 128,-1,21
 468 320 468 320 468 346 c 0,22,23
 468 374 468 374 459 398 c 128,-1,24
 450 422 450 422 434.5 440 c 128,-1,25
 419 458 419 458 398.5 468 c 128,-1,26
 378 478 378 478 355 478 c 2,27,-1
 192 478 l 1,28,-1
 192 214 l 1,29,-1
 361 214 l 2,17,18
EndSplineSet
EndChar

StartChar: germandbls
Encoding: 223 223 162
Width: 555
GlyphClass: 2
Flags: W
LayerCount: 2
Fore
SplineSet
244 95 m 1,0,1
 280 96 280 96 310.5 103.5 c 128,-1,2
 341 111 341 111 362.5 126 c 128,-1,3
 384 141 384 141 396.5 164.5 c 128,-1,4
 409 188 409 188 409 220 c 0,5,6
 409 249 409 249 399 272.5 c 128,-1,7
 389 296 389 296 371 312 c 128,-1,8
 353 328 353 328 328.5 336.5 c 128,-1,9
 304 345 304 345 276 345 c 2,10,-1
 256 345 l 1,11,-1
 256 445 l 1,12,-1
 275 445 l 2,13,14
 317 445 317 445 342.5 469.5 c 128,-1,15
 368 494 368 494 368 534 c 0,16,17
 368 557 368 557 359.5 573.5 c 128,-1,18
 351 590 351 590 337.5 600.5 c 128,-1,19
 324 611 324 611 307.5 615.5 c 128,-1,20
 291 620 291 620 274 620 c 0,21,22
 246 620 246 620 226.5 609.5 c 128,-1,23
 207 599 207 599 194.5 582.5 c 128,-1,24
 182 566 182 566 176.5 544.5 c 128,-1,25
 171 523 171 523 171 501 c 2,26,-1
 171 0 l 1,27,-1
 66 0 l 1,28,-1
 66 520 l 2,29,30
 66 562 66 562 82 598 c 128,-1,31
 98 634 98 634 126.5 659.5 c 128,-1,32
 155 685 155 685 194.5 699.5 c 128,-1,33
 234 714 234 714 280 714 c 0,34,35
 321 714 321 714 356.5 702.5 c 128,-1,36
 392 691 392 691 417.5 669.5 c 128,-1,37
 443 648 443 648 457.5 618 c 128,-1,38
 472 588 472 588 472 551 c 0,39,40
 472 525 472 525 464.5 500.5 c 128,-1,41
 457 476 457 476 444.5 456 c 128,-1,42
 432 436 432 436 415 422 c 128,-1,43
 398 408 398 408 379 402 c 1,44,45
 447 385 447 385 485.5 333 c 128,-1,46
 524 281 524 281 524 209 c 0,47,48
 524 155 524 155 502 115 c 128,-1,49
 480 75 480 75 442 48.5 c 128,-1,50
 404 22 404 22 353 8.5 c 128,-1,51
 302 -5 302 -5 244 -6 c 1,52,-1
 244 95 l 1,0,1
EndSplineSet
EndChar

StartChar: agrave
Encoding: 224 224 163
Width: 564
GlyphClass: 2
Flags: W
LayerCount: 2
Fore
SplineSet
205 -10 m 0,0,1
 167 -10 167 -10 134.5 2.5 c 128,-1,2
 102 15 102 15 78.5 37 c 128,-1,3
 55 59 55 59 41.5 89 c 128,-1,4
 28 119 28 119 28 154 c 0,5,6
 28 191 28 191 44 221 c 128,-1,7
 60 251 60 251 89.5 273 c 128,-1,8
 119 295 119 295 159.5 307 c 128,-1,9
 200 319 200 319 249 319 c 0,10,11
 286 319 286 319 322 312.5 c 128,-1,12
 358 306 358 306 387 295 c 1,13,-1
 387 331 l 2,14,15
 387 389 387 389 354 421.5 c 128,-1,16
 321 454 321 454 259 454 c 0,17,18
 217 454 217 454 176.5 438.5 c 128,-1,19
 136 423 136 423 93 394 c 1,20,-1
 59 464 l 1,21,22
 160 532 160 532 269 532 c 0,23,24
 377 532 377 532 437 477 c 128,-1,25
 497 422 497 422 497 319 c 2,26,-1
 497 130 l 2,27,28
 497 95 497 95 526 94 c 1,29,-1
 526 0 l 1,30,31
 510 -3 510 -3 498.5 -4 c 128,-1,32
 487 -5 487 -5 476 -5 c 0,33,34
 444 -5 444 -5 426.5 11 c 128,-1,35
 409 27 409 27 405 52 c 2,36,-1
 402 85 l 1,37,38
 367 39 367 39 315.5 14.5 c 128,-1,39
 264 -10 264 -10 205 -10 c 0,0,1
235 71 m 0,40,41
 275 71 275 71 310.5 85.5 c 128,-1,42
 346 100 346 100 366 126 c 1,43,44
 387 144 387 144 387 164 c 2,45,-1
 387 233 l 1,46,47
 359 244 359 244 327.5 250 c 128,-1,48
 296 256 296 256 266 256 c 0,49,50
 207 256 207 256 169.5 230.5 c 128,-1,51
 132 205 132 205 132 163 c 0,52,53
 132 124 132 124 161 97.5 c 128,-1,54
 190 71 190 71 235 71 c 0,40,41
153 730 m 1,55,-1
 258 730 l 1,56,-1
 315 620 l 1,57,-1
 245 598 l 1,58,-1
 153 730 l 1,55,-1
EndSplineSet
EndChar

StartChar: aacute
Encoding: 225 225 164
Width: 564
GlyphClass: 2
Flags: W
LayerCount: 2
Fore
SplineSet
205 -10 m 0,0,1
 167 -10 167 -10 134.5 2.5 c 128,-1,2
 102 15 102 15 78.5 37 c 128,-1,3
 55 59 55 59 41.5 89 c 128,-1,4
 28 119 28 119 28 154 c 0,5,6
 28 191 28 191 44 221 c 128,-1,7
 60 251 60 251 89.5 273 c 128,-1,8
 119 295 119 295 159.5 307 c 128,-1,9
 200 319 200 319 249 319 c 0,10,11
 286 319 286 319 322 312.5 c 128,-1,12
 358 306 358 306 387 295 c 1,13,-1
 387 331 l 2,14,15
 387 389 387 389 354 421.5 c 128,-1,16
 321 454 321 454 259 454 c 0,17,18
 217 454 217 454 176.5 438.5 c 128,-1,19
 136 423 136 423 93 394 c 1,20,-1
 59 464 l 1,21,22
 160 532 160 532 269 532 c 0,23,24
 377 532 377 532 437 477 c 128,-1,25
 497 422 497 422 497 319 c 2,26,-1
 497 130 l 2,27,28
 497 95 497 95 526 94 c 1,29,-1
 526 0 l 1,30,31
 510 -3 510 -3 498.5 -4 c 128,-1,32
 487 -5 487 -5 476 -5 c 0,33,34
 444 -5 444 -5 426.5 11 c 128,-1,35
 409 27 409 27 405 52 c 2,36,-1
 402 85 l 1,37,38
 367 39 367 39 315.5 14.5 c 128,-1,39
 264 -10 264 -10 205 -10 c 0,0,1
235 71 m 0,40,41
 275 71 275 71 310.5 85.5 c 128,-1,42
 346 100 346 100 366 126 c 1,43,44
 387 144 387 144 387 164 c 2,45,-1
 387 233 l 1,46,47
 359 244 359 244 327.5 250 c 128,-1,48
 296 256 296 256 266 256 c 0,49,50
 207 256 207 256 169.5 230.5 c 128,-1,51
 132 205 132 205 132 163 c 0,52,53
 132 124 132 124 161 97.5 c 128,-1,54
 190 71 190 71 235 71 c 0,40,41
294 598 m 1,55,-1
 222 620 l 1,56,-1
 279 730 l 1,57,-1
 384 730 l 1,58,-1
 294 598 l 1,55,-1
EndSplineSet
EndChar

StartChar: acircumflex
Encoding: 226 226 165
Width: 564
GlyphClass: 2
Flags: W
LayerCount: 2
Fore
SplineSet
205 -10 m 0,0,1
 167 -10 167 -10 134.5 2.5 c 128,-1,2
 102 15 102 15 78.5 37 c 128,-1,3
 55 59 55 59 41.5 89 c 128,-1,4
 28 119 28 119 28 154 c 0,5,6
 28 191 28 191 44 221 c 128,-1,7
 60 251 60 251 89.5 273 c 128,-1,8
 119 295 119 295 159.5 307 c 128,-1,9
 200 319 200 319 249 319 c 0,10,11
 286 319 286 319 322 312.5 c 128,-1,12
 358 306 358 306 387 295 c 1,13,-1
 387 331 l 2,14,15
 387 389 387 389 354 421.5 c 128,-1,16
 321 454 321 454 259 454 c 0,17,18
 217 454 217 454 176.5 438.5 c 128,-1,19
 136 423 136 423 93 394 c 1,20,-1
 59 464 l 1,21,22
 160 532 160 532 269 532 c 0,23,24
 377 532 377 532 437 477 c 128,-1,25
 497 422 497 422 497 319 c 2,26,-1
 497 130 l 2,27,28
 497 95 497 95 526 94 c 1,29,-1
 526 0 l 1,30,31
 510 -3 510 -3 498.5 -4 c 128,-1,32
 487 -5 487 -5 476 -5 c 0,33,34
 444 -5 444 -5 426.5 11 c 128,-1,35
 409 27 409 27 405 52 c 2,36,-1
 402 85 l 1,37,38
 367 39 367 39 315.5 14.5 c 128,-1,39
 264 -10 264 -10 205 -10 c 0,0,1
235 71 m 0,40,41
 275 71 275 71 310.5 85.5 c 128,-1,42
 346 100 346 100 366 126 c 1,43,44
 387 144 387 144 387 164 c 2,45,-1
 387 233 l 1,46,47
 359 244 359 244 327.5 250 c 128,-1,48
 296 256 296 256 266 256 c 0,49,50
 207 256 207 256 169.5 230.5 c 128,-1,51
 132 205 132 205 132 163 c 0,52,53
 132 124 132 124 161 97.5 c 128,-1,54
 190 71 190 71 235 71 c 0,40,41
126 635 m 1,55,-1
 230 730 l 1,56,-1
 309 730 l 1,57,-1
 413 635 l 1,58,-1
 354 607 l 1,59,-1
 269 670 l 1,60,-1
 184 607 l 1,61,-1
 126 635 l 1,55,-1
EndSplineSet
EndChar

StartChar: atilde
Encoding: 227 227 166
Width: 564
GlyphClass: 2
Flags: W
LayerCount: 2
Fore
SplineSet
205 -10 m 0,0,1
 167 -10 167 -10 134.5 2.5 c 128,-1,2
 102 15 102 15 78.5 37 c 128,-1,3
 55 59 55 59 41.5 89 c 128,-1,4
 28 119 28 119 28 154 c 0,5,6
 28 191 28 191 44 221 c 128,-1,7
 60 251 60 251 89.5 273 c 128,-1,8
 119 295 119 295 159.5 307 c 128,-1,9
 200 319 200 319 249 319 c 0,10,11
 286 319 286 319 322 312.5 c 128,-1,12
 358 306 358 306 387 295 c 1,13,-1
 387 331 l 2,14,15
 387 389 387 389 354 421.5 c 128,-1,16
 321 454 321 454 259 454 c 0,17,18
 217 454 217 454 176.5 438.5 c 128,-1,19
 136 423 136 423 93 394 c 1,20,-1
 59 464 l 1,21,22
 160 532 160 532 269 532 c 0,23,24
 377 532 377 532 437 477 c 128,-1,25
 497 422 497 422 497 319 c 2,26,-1
 497 130 l 2,27,28
 497 95 497 95 526 94 c 1,29,-1
 526 0 l 1,30,31
 510 -3 510 -3 498.5 -4 c 128,-1,32
 487 -5 487 -5 476 -5 c 0,33,34
 444 -5 444 -5 426.5 11 c 128,-1,35
 409 27 409 27 405 52 c 2,36,-1
 402 85 l 1,37,38
 367 39 367 39 315.5 14.5 c 128,-1,39
 264 -10 264 -10 205 -10 c 0,0,1
235 71 m 0,40,41
 275 71 275 71 310.5 85.5 c 128,-1,42
 346 100 346 100 366 126 c 1,43,44
 387 144 387 144 387 164 c 2,45,-1
 387 233 l 1,46,47
 359 244 359 244 327.5 250 c 128,-1,48
 296 256 296 256 266 256 c 0,49,50
 207 256 207 256 169.5 230.5 c 128,-1,51
 132 205 132 205 132 163 c 0,52,53
 132 124 132 124 161 97.5 c 128,-1,54
 190 71 190 71 235 71 c 0,40,41
332 615 m 0,55,56
 309 615 309 615 292 621.5 c 128,-1,57
 275 628 275 628 260.5 636.5 c 128,-1,58
 246 645 246 645 232 651.5 c 128,-1,59
 218 658 218 658 202 658 c 0,60,61
 185 658 185 658 175.5 651 c 128,-1,62
 166 644 166 644 161 635.5 c 128,-1,63
 156 627 156 627 154.5 619 c 128,-1,64
 153 611 153 611 153 610 c 2,65,-1
 91 610 l 1,66,67
 91 618 91 618 96 637 c 128,-1,68
 101 656 101 656 113.5 675.5 c 128,-1,69
 126 695 126 695 146.5 710 c 128,-1,70
 167 725 167 725 198 725 c 0,71,72
 220 725 220 725 236.5 718 c 128,-1,73
 253 711 253 711 267.5 703 c 128,-1,74
 282 695 282 695 296.5 688 c 128,-1,75
 311 681 311 681 329 681 c 256,76,77
 347 681 347 681 358 688 c 128,-1,78
 369 695 369 695 374.5 704 c 128,-1,79
 380 713 380 713 381.5 720.5 c 128,-1,80
 383 728 383 728 383 730 c 2,81,-1
 446 730 l 1,82,83
 446 724 446 724 440.5 705 c 128,-1,84
 435 686 435 686 422 666 c 128,-1,85
 409 646 409 646 387 630.5 c 128,-1,86
 365 615 365 615 332 615 c 0,55,56
EndSplineSet
EndChar

StartChar: adieresis
Encoding: 228 228 167
Width: 564
GlyphClass: 2
Flags: W
LayerCount: 2
Fore
SplineSet
205 -10 m 0,0,1
 167 -10 167 -10 134.5 2.5 c 128,-1,2
 102 15 102 15 78.5 37 c 128,-1,3
 55 59 55 59 41.5 89 c 128,-1,4
 28 119 28 119 28 154 c 0,5,6
 28 191 28 191 44 221 c 128,-1,7
 60 251 60 251 89.5 273 c 128,-1,8
 119 295 119 295 159.5 307 c 128,-1,9
 200 319 200 319 249 319 c 0,10,11
 286 319 286 319 322 312.5 c 128,-1,12
 358 306 358 306 387 295 c 1,13,-1
 387 331 l 2,14,15
 387 389 387 389 354 421.5 c 128,-1,16
 321 454 321 454 259 454 c 0,17,18
 217 454 217 454 176.5 438.5 c 128,-1,19
 136 423 136 423 93 394 c 1,20,-1
 59 464 l 1,21,22
 160 532 160 532 269 532 c 0,23,24
 377 532 377 532 437 477 c 128,-1,25
 497 422 497 422 497 319 c 2,26,-1
 497 130 l 2,27,28
 497 95 497 95 526 94 c 1,29,-1
 526 0 l 1,30,31
 510 -3 510 -3 498.5 -4 c 128,-1,32
 487 -5 487 -5 476 -5 c 0,33,34
 444 -5 444 -5 426.5 11 c 128,-1,35
 409 27 409 27 405 52 c 2,36,-1
 402 85 l 1,37,38
 367 39 367 39 315.5 14.5 c 128,-1,39
 264 -10 264 -10 205 -10 c 0,0,1
235 71 m 0,40,41
 275 71 275 71 310.5 85.5 c 128,-1,42
 346 100 346 100 366 126 c 1,43,44
 387 144 387 144 387 164 c 2,45,-1
 387 233 l 1,46,47
 359 244 359 244 327.5 250 c 128,-1,48
 296 256 296 256 266 256 c 0,49,50
 207 256 207 256 169.5 230.5 c 128,-1,51
 132 205 132 205 132 163 c 0,52,53
 132 124 132 124 161 97.5 c 128,-1,54
 190 71 190 71 235 71 c 0,40,41
135 615 m 1,55,-1
 135 725 l 1,56,-1
 227 725 l 1,57,-1
 227 615 l 1,58,-1
 135 615 l 1,55,-1
312 615 m 1,59,-1
 312 725 l 1,60,-1
 404 725 l 1,61,-1
 404 615 l 1,62,-1
 312 615 l 1,59,-1
EndSplineSet
EndChar

StartChar: aring
Encoding: 229 229 168
Width: 564
GlyphClass: 2
Flags: W
LayerCount: 2
Fore
SplineSet
205 -10 m 0,0,1
 167 -10 167 -10 134.5 2.5 c 128,-1,2
 102 15 102 15 78.5 37 c 128,-1,3
 55 59 55 59 41.5 89 c 128,-1,4
 28 119 28 119 28 154 c 0,5,6
 28 191 28 191 44 221 c 128,-1,7
 60 251 60 251 89.5 273 c 128,-1,8
 119 295 119 295 159.5 307 c 128,-1,9
 200 319 200 319 249 319 c 0,10,11
 286 319 286 319 322 312.5 c 128,-1,12
 358 306 358 306 387 295 c 1,13,-1
 387 331 l 2,14,15
 387 389 387 389 354 421.5 c 128,-1,16
 321 454 321 454 259 454 c 0,17,18
 217 454 217 454 176.5 438.5 c 128,-1,19
 136 423 136 423 93 394 c 1,20,-1
 59 464 l 1,21,22
 160 532 160 532 269 532 c 0,23,24
 377 532 377 532 437 477 c 128,-1,25
 497 422 497 422 497 319 c 2,26,-1
 497 130 l 2,27,28
 497 95 497 95 526 94 c 1,29,-1
 526 0 l 1,30,31
 510 -3 510 -3 498.5 -4 c 128,-1,32
 487 -5 487 -5 476 -5 c 0,33,34
 444 -5 444 -5 426.5 11 c 128,-1,35
 409 27 409 27 405 52 c 2,36,-1
 402 85 l 1,37,38
 367 39 367 39 315.5 14.5 c 128,-1,39
 264 -10 264 -10 205 -10 c 0,0,1
235 71 m 0,40,41
 275 71 275 71 310.5 85.5 c 128,-1,42
 346 100 346 100 366 126 c 1,43,44
 387 144 387 144 387 164 c 2,45,-1
 387 233 l 1,46,47
 359 244 359 244 327.5 250 c 128,-1,48
 296 256 296 256 266 256 c 0,49,50
 207 256 207 256 169.5 230.5 c 128,-1,51
 132 205 132 205 132 163 c 0,52,53
 132 124 132 124 161 97.5 c 128,-1,54
 190 71 190 71 235 71 c 0,40,41
180 657 m 0,55,56
 180 692 180 692 204.5 711 c 128,-1,57
 229 730 229 730 268 730 c 0,58,59
 308 730 308 730 332.5 711 c 128,-1,60
 357 692 357 692 357 657 c 0,61,62
 357 623 357 623 332.5 603.5 c 128,-1,63
 308 584 308 584 268 584 c 0,64,65
 229 584 229 584 204.5 603.5 c 128,-1,66
 180 623 180 623 180 657 c 0,55,56
268 694 m 256,67,68
 251 694 251 694 239.5 684 c 128,-1,69
 228 674 228 674 228 657 c 0,70,71
 228 642 228 642 239.5 631 c 128,-1,72
 251 620 251 620 268 620 c 256,73,74
 285 620 285 620 297 630.5 c 128,-1,75
 309 641 309 641 309 657 c 0,76,77
 309 674 309 674 297 684 c 128,-1,78
 285 694 285 694 268 694 c 256,67,68
EndSplineSet
EndChar

StartChar: ae
Encoding: 230 230 169
Width: 935
GlyphClass: 2
Flags: W
LayerCount: 2
Fore
SplineSet
204 -10 m 0,0,1
 166 -10 166 -10 134 2.5 c 128,-1,2
 102 15 102 15 78.5 37 c 128,-1,3
 55 59 55 59 41.5 89 c 128,-1,4
 28 119 28 119 28 154 c 0,5,6
 28 191 28 191 44 221 c 128,-1,7
 60 251 60 251 89 273 c 128,-1,8
 118 295 118 295 158.5 307 c 128,-1,9
 199 319 199 319 248 319 c 0,10,11
 281 319 281 319 313.5 314 c 128,-1,12
 346 309 346 309 372 299 c 1,13,14
 374 312 374 312 376 328 c 128,-1,15
 378 344 378 344 383 355 c 1,16,17
 377 403 377 403 345.5 428.5 c 128,-1,18
 314 454 314 454 258 454 c 0,19,20
 217 454 217 454 176.5 438.5 c 128,-1,21
 136 423 136 423 93 394 c 1,22,-1
 58 464 l 1,23,24
 161 532 161 532 268 532 c 0,25,26
 331 532 331 532 377.5 510 c 128,-1,27
 424 488 424 488 450 447 c 1,28,29
 483 485 483 485 532 508.5 c 128,-1,30
 581 532 581 532 641 532 c 0,31,32
 702 532 702 532 752 510.5 c 128,-1,33
 802 489 802 489 837 452 c 128,-1,34
 872 415 872 415 891.5 365.5 c 128,-1,35
 911 316 911 316 911 261 c 0,36,37
 911 253 911 253 910.5 242.5 c 128,-1,38
 910 232 910 232 908 225 c 1,39,-1
 481 225 l 1,40,41
 484 190 484 190 498 162 c 128,-1,42
 512 134 512 134 534.5 113.5 c 128,-1,43
 557 93 557 93 586 82 c 128,-1,44
 615 71 615 71 647 71 c 0,45,46
 669 71 669 71 690.5 76.5 c 128,-1,47
 712 82 712 82 730 92.5 c 128,-1,48
 748 103 748 103 762 118 c 128,-1,49
 776 133 776 133 784 151 c 1,50,-1
 878 124 l 1,51,52
 865 95 865 95 842 70.5 c 128,-1,53
 819 46 819 46 788.5 28 c 128,-1,54
 758 10 758 10 721 0 c 128,-1,55
 684 -10 684 -10 643 -10 c 0,56,57
 571 -10 571 -10 514 20 c 128,-1,58
 457 50 457 50 422 101 c 1,59,60
 405 71 405 71 379 50 c 128,-1,61
 353 29 353 29 323.5 15.5 c 128,-1,62
 294 2 294 2 263 -4 c 128,-1,63
 232 -10 232 -10 204 -10 c 0,0,1
234 71 m 0,64,65
 275 71 275 71 310.5 85.5 c 128,-1,66
 346 100 346 100 366 126 c 1,67,68
 385 142 385 142 387 161 c 1,69,70
 380 174 380 174 376.5 198.5 c 128,-1,71
 373 223 373 223 372 238 c 1,72,73
 347 246 347 246 319.5 251 c 128,-1,74
 292 256 292 256 266 256 c 0,75,76
 206 256 206 256 168.5 230.5 c 128,-1,77
 131 205 131 205 131 163 c 0,78,79
 131 143 131 143 139 126.5 c 128,-1,80
 147 110 147 110 161 97.5 c 128,-1,81
 175 85 175 85 193.5 78 c 128,-1,82
 212 71 212 71 234 71 c 0,64,65
801 295 m 1,83,84
 798 329 798 329 784.5 358 c 128,-1,85
 771 387 771 387 750 407.5 c 128,-1,86
 729 428 729 428 700.5 439.5 c 128,-1,87
 672 451 672 451 639 451 c 256,88,89
 606 451 606 451 577.5 439.5 c 128,-1,90
 549 428 549 428 528 407 c 128,-1,91
 507 386 507 386 494 357.5 c 128,-1,92
 481 329 481 329 479 295 c 1,93,-1
 801 295 l 1,83,84
EndSplineSet
EndChar

StartChar: ccedilla
Encoding: 231 231 170
Width: 559
GlyphClass: 2
Flags: W
LayerCount: 2
Fore
SplineSet
225 -126 m 1,0,1
 237 -133 237 -133 262 -139.5 c 128,-1,2
 287 -146 287 -146 313 -146 c 256,3,4
 339 -146 339 -146 354.5 -138 c 128,-1,5
 370 -130 370 -130 370 -112 c 0,6,7
 370 -92 370 -92 355.5 -85 c 128,-1,8
 341 -78 341 -78 318 -78 c 0,9,10
 297 -78 297 -78 274 -82 c 128,-1,11
 251 -86 251 -86 238 -90 c 1,12,-1
 280 -9 l 1,13,14
 224 -5 224 -5 178 18.5 c 128,-1,15
 132 42 132 42 99.5 78.5 c 128,-1,16
 67 115 67 115 49.5 162.5 c 128,-1,17
 32 210 32 210 32 262 c 0,18,19
 32 317 32 317 51 366 c 128,-1,20
 70 415 70 415 105.5 452 c 128,-1,21
 141 489 141 489 191 510.5 c 128,-1,22
 241 532 241 532 303 532 c 0,23,24
 384 532 384 532 442.5 496.5 c 128,-1,25
 501 461 501 461 530 402 c 1,26,-1
 423 368 l 1,27,28
 404 401 404 401 372 419.5 c 128,-1,29
 340 438 340 438 301 438 c 0,30,31
 268 438 268 438 239.5 425 c 128,-1,32
 211 412 211 412 190 388.5 c 128,-1,33
 169 365 169 365 157 333 c 128,-1,34
 145 301 145 301 145 262 c 0,35,36
 145 224 145 224 157.5 191.5 c 128,-1,37
 170 159 170 159 191.5 135 c 128,-1,38
 213 111 213 111 241.5 97.5 c 128,-1,39
 270 84 270 84 302 84 c 0,40,41
 322 84 322 84 342 89.5 c 128,-1,42
 362 95 362 95 378.5 105 c 128,-1,43
 395 115 395 115 407.5 128 c 128,-1,44
 420 141 420 141 426 156 c 1,45,-1
 534 124 l 1,46,47
 511 70 511 70 457.5 34 c 128,-1,48
 404 -2 404 -2 331 -9 c 1,49,-1
 308 -45 l 1,50,51
 316 -43 316 -43 325 -42 c 128,-1,52
 334 -41 334 -41 342 -41 c 0,53,54
 377 -41 377 -41 400.5 -57 c 128,-1,55
 424 -73 424 -73 424 -108 c 0,56,57
 424 -144 424 -144 394.5 -166.5 c 128,-1,58
 365 -189 365 -189 305 -189 c 0,59,60
 273 -189 273 -189 247.5 -183 c 128,-1,61
 222 -177 222 -177 202 -169 c 1,62,-1
 225 -126 l 1,0,1
EndSplineSet
EndChar

StartChar: egrave
Encoding: 232 232 171
Width: 595
GlyphClass: 2
Flags: W
LayerCount: 2
Fore
SplineSet
303 -10 m 0,0,1
 242 -10 242 -10 192 11.5 c 128,-1,2
 142 33 142 33 106.5 70 c 128,-1,3
 71 107 71 107 51.5 156 c 128,-1,4
 32 205 32 205 32 260 c 256,5,6
 32 315 32 315 51.5 364.5 c 128,-1,7
 71 414 71 414 106.5 451.5 c 128,-1,8
 142 489 142 489 192 510.5 c 128,-1,9
 242 532 242 532 304 532 c 0,10,11
 365 532 365 532 414.5 510 c 128,-1,12
 464 488 464 488 499 451.5 c 128,-1,13
 534 415 534 415 552.5 366.5 c 128,-1,14
 571 318 571 318 571 265 c 0,15,16
 571 253 571 253 570 242.5 c 128,-1,17
 569 232 569 232 568 225 c 1,18,-1
 149 225 l 1,19,20
 152 190 152 190 165.5 162 c 128,-1,21
 179 134 179 134 200.5 113.5 c 128,-1,22
 222 93 222 93 249.5 82 c 128,-1,23
 277 71 277 71 307 71 c 0,24,25
 329 71 329 71 350.5 76.5 c 128,-1,26
 372 82 372 82 390 92.5 c 128,-1,27
 408 103 408 103 422 118 c 128,-1,28
 436 133 436 133 444 151 c 1,29,-1
 538 124 l 1,30,31
 511 65 511 65 448.5 27.5 c 128,-1,32
 386 -10 386 -10 303 -10 c 0,0,1
462 301 m 1,33,34
 459 334 459 334 445.5 362 c 128,-1,35
 432 390 432 390 411 409.5 c 128,-1,36
 390 429 390 429 362 440 c 128,-1,37
 334 451 334 451 303 451 c 256,38,39
 272 451 272 451 244.5 440 c 128,-1,40
 217 429 217 429 196 409.5 c 128,-1,41
 175 390 175 390 162 362 c 128,-1,42
 149 334 149 334 146 301 c 1,43,-1
 462 301 l 1,33,34
185 730 m 1,44,-1
 290 730 l 1,45,-1
 347 620 l 1,46,-1
 277 598 l 1,47,-1
 185 730 l 1,44,-1
EndSplineSet
EndChar

StartChar: eacute
Encoding: 233 233 172
Width: 595
GlyphClass: 2
Flags: W
LayerCount: 2
Fore
SplineSet
325 598 m 1,0,-1
 253 620 l 1,1,-1
 310 730 l 1,2,-1
 415 730 l 1,3,-1
 325 598 l 1,0,-1
303 -10 m 0,4,5
 242 -10 242 -10 192 11.5 c 128,-1,6
 142 33 142 33 106.5 70 c 128,-1,7
 71 107 71 107 51.5 156 c 128,-1,8
 32 205 32 205 32 260 c 256,9,10
 32 315 32 315 51.5 364.5 c 128,-1,11
 71 414 71 414 106.5 451.5 c 128,-1,12
 142 489 142 489 192 510.5 c 128,-1,13
 242 532 242 532 304 532 c 0,14,15
 365 532 365 532 414.5 510 c 128,-1,16
 464 488 464 488 499 451.5 c 128,-1,17
 534 415 534 415 552.5 366.5 c 128,-1,18
 571 318 571 318 571 265 c 0,19,20
 571 253 571 253 570 242.5 c 128,-1,21
 569 232 569 232 568 225 c 1,22,-1
 149 225 l 1,23,24
 152 190 152 190 165.5 162 c 128,-1,25
 179 134 179 134 200.5 113.5 c 128,-1,26
 222 93 222 93 249.5 82 c 128,-1,27
 277 71 277 71 307 71 c 0,28,29
 329 71 329 71 350.5 76.5 c 128,-1,30
 372 82 372 82 390 92.5 c 128,-1,31
 408 103 408 103 422 118 c 128,-1,32
 436 133 436 133 444 151 c 1,33,-1
 538 124 l 1,34,35
 511 65 511 65 448.5 27.5 c 128,-1,36
 386 -10 386 -10 303 -10 c 0,4,5
462 301 m 1,37,38
 459 334 459 334 445.5 362 c 128,-1,39
 432 390 432 390 411 409.5 c 128,-1,40
 390 429 390 429 362 440 c 128,-1,41
 334 451 334 451 303 451 c 256,42,43
 272 451 272 451 244.5 440 c 128,-1,44
 217 429 217 429 196 409.5 c 128,-1,45
 175 390 175 390 162 362 c 128,-1,46
 149 334 149 334 146 301 c 1,47,-1
 462 301 l 1,37,38
EndSplineSet
EndChar

StartChar: ecircumflex
Encoding: 234 234 173
Width: 595
GlyphClass: 2
Flags: W
LayerCount: 2
Fore
SplineSet
157 635 m 1,0,-1
 261 730 l 1,1,-1
 340 730 l 1,2,-1
 444 635 l 1,3,-1
 385 607 l 1,4,-1
 300 670 l 1,5,-1
 215 607 l 1,6,-1
 157 635 l 1,0,-1
303 -10 m 0,7,8
 242 -10 242 -10 192 11.5 c 128,-1,9
 142 33 142 33 106.5 70 c 128,-1,10
 71 107 71 107 51.5 156 c 128,-1,11
 32 205 32 205 32 260 c 256,12,13
 32 315 32 315 51.5 364.5 c 128,-1,14
 71 414 71 414 106.5 451.5 c 128,-1,15
 142 489 142 489 192 510.5 c 128,-1,16
 242 532 242 532 304 532 c 0,17,18
 365 532 365 532 414.5 510 c 128,-1,19
 464 488 464 488 499 451.5 c 128,-1,20
 534 415 534 415 552.5 366.5 c 128,-1,21
 571 318 571 318 571 265 c 0,22,23
 571 253 571 253 570 242.5 c 128,-1,24
 569 232 569 232 568 225 c 1,25,-1
 149 225 l 1,26,27
 152 190 152 190 165.5 162 c 128,-1,28
 179 134 179 134 200.5 113.5 c 128,-1,29
 222 93 222 93 249.5 82 c 128,-1,30
 277 71 277 71 307 71 c 0,31,32
 329 71 329 71 350.5 76.5 c 128,-1,33
 372 82 372 82 390 92.5 c 128,-1,34
 408 103 408 103 422 118 c 128,-1,35
 436 133 436 133 444 151 c 1,36,-1
 538 124 l 1,37,38
 511 65 511 65 448.5 27.5 c 128,-1,39
 386 -10 386 -10 303 -10 c 0,7,8
462 301 m 1,40,41
 459 334 459 334 445.5 362 c 128,-1,42
 432 390 432 390 411 409.5 c 128,-1,43
 390 429 390 429 362 440 c 128,-1,44
 334 451 334 451 303 451 c 256,45,46
 272 451 272 451 244.5 440 c 128,-1,47
 217 429 217 429 196 409.5 c 128,-1,48
 175 390 175 390 162 362 c 128,-1,49
 149 334 149 334 146 301 c 1,50,-1
 462 301 l 1,40,41
EndSplineSet
EndChar

StartChar: edieresis
Encoding: 235 235 174
Width: 595
GlyphClass: 2
Flags: W
LayerCount: 2
Fore
SplineSet
166 615 m 1,0,-1
 166 725 l 1,1,-1
 258 725 l 1,2,-1
 258 615 l 1,3,-1
 166 615 l 1,0,-1
343 615 m 1,4,-1
 343 725 l 1,5,-1
 435 725 l 1,6,-1
 435 615 l 1,7,-1
 343 615 l 1,4,-1
303 -10 m 0,8,9
 242 -10 242 -10 192 11.5 c 128,-1,10
 142 33 142 33 106.5 70 c 128,-1,11
 71 107 71 107 51.5 156 c 128,-1,12
 32 205 32 205 32 260 c 256,13,14
 32 315 32 315 51.5 364.5 c 128,-1,15
 71 414 71 414 106.5 451.5 c 128,-1,16
 142 489 142 489 192 510.5 c 128,-1,17
 242 532 242 532 304 532 c 0,18,19
 365 532 365 532 414.5 510 c 128,-1,20
 464 488 464 488 499 451.5 c 128,-1,21
 534 415 534 415 552.5 366.5 c 128,-1,22
 571 318 571 318 571 265 c 0,23,24
 571 253 571 253 570 242.5 c 128,-1,25
 569 232 569 232 568 225 c 1,26,-1
 149 225 l 1,27,28
 152 190 152 190 165.5 162 c 128,-1,29
 179 134 179 134 200.5 113.5 c 128,-1,30
 222 93 222 93 249.5 82 c 128,-1,31
 277 71 277 71 307 71 c 0,32,33
 329 71 329 71 350.5 76.5 c 128,-1,34
 372 82 372 82 390 92.5 c 128,-1,35
 408 103 408 103 422 118 c 128,-1,36
 436 133 436 133 444 151 c 1,37,-1
 538 124 l 1,38,39
 511 65 511 65 448.5 27.5 c 128,-1,40
 386 -10 386 -10 303 -10 c 0,8,9
462 301 m 1,41,42
 459 334 459 334 445.5 362 c 128,-1,43
 432 390 432 390 411 409.5 c 128,-1,44
 390 429 390 429 362 440 c 128,-1,45
 334 451 334 451 303 451 c 256,46,47
 272 451 272 451 244.5 440 c 128,-1,48
 217 429 217 429 196 409.5 c 128,-1,49
 175 390 175 390 162 362 c 128,-1,50
 149 334 149 334 146 301 c 1,51,-1
 462 301 l 1,41,42
EndSplineSet
EndChar

StartChar: igrave
Encoding: 236 236 175
Width: 242
GlyphClass: 2
Flags: W
LayerCount: 2
Fore
SplineSet
66 0 m 1,0,-1
 66 523 l 1,1,-1
 176 523 l 1,2,-1
 176 0 l 1,3,-1
 66 0 l 1,0,-1
5 730 m 1,4,-1
 110 730 l 1,5,-1
 167 620 l 1,6,-1
 97 598 l 1,7,-1
 5 730 l 1,4,-1
EndSplineSet
EndChar

StartChar: iacute
Encoding: 237 237 176
Width: 242
GlyphClass: 2
Flags: W
LayerCount: 2
Fore
SplineSet
146 598 m 1,0,-1
 74 620 l 1,1,-1
 131 730 l 1,2,-1
 236 730 l 1,3,-1
 146 598 l 1,0,-1
66 0 m 1,4,-1
 66 523 l 1,5,-1
 176 523 l 1,6,-1
 176 0 l 1,7,-1
 66 0 l 1,4,-1
EndSplineSet
EndChar

StartChar: icircumflex
Encoding: 238 238 177
Width: 242
GlyphClass: 2
Flags: W
LayerCount: 2
Fore
SplineSet
-22 635 m 1,0,-1
 82 730 l 1,1,-1
 161 730 l 1,2,-1
 265 635 l 1,3,-1
 206 607 l 1,4,-1
 121 670 l 1,5,-1
 36 607 l 1,6,-1
 -22 635 l 1,0,-1
66 0 m 1,7,-1
 66 523 l 1,8,-1
 176 523 l 1,9,-1
 176 0 l 1,10,-1
 66 0 l 1,7,-1
EndSplineSet
EndChar

StartChar: idieresis
Encoding: 239 239 178
Width: 242
GlyphClass: 2
Flags: W
LayerCount: 2
Fore
SplineSet
-13 615 m 1,0,-1
 -13 725 l 1,1,-1
 79 725 l 1,2,-1
 79 615 l 1,3,-1
 -13 615 l 1,0,-1
164 615 m 1,4,-1
 164 725 l 1,5,-1
 256 725 l 1,6,-1
 256 615 l 1,7,-1
 164 615 l 1,4,-1
66 0 m 1,8,-1
 66 523 l 1,9,-1
 176 523 l 1,10,-1
 176 0 l 1,11,-1
 66 0 l 1,8,-1
EndSplineSet
EndChar

StartChar: eth
Encoding: 240 240 179
Width: 609
GlyphClass: 2
Flags: W
LayerCount: 2
Fore
SplineSet
515 668 m 1,0,-1
 441 626 l 1,1,2
 476 587 476 587 501 544.5 c 128,-1,3
 526 502 526 502 542 458.5 c 128,-1,4
 558 415 558 415 565.5 372 c 128,-1,5
 573 329 573 329 573 290 c 0,6,7
 573 220 573 220 551.5 164.5 c 128,-1,8
 530 109 530 109 493.5 70 c 128,-1,9
 457 31 457 31 407 10.5 c 128,-1,10
 357 -10 357 -10 300 -10 c 0,11,12
 245 -10 245 -10 196.5 8.5 c 128,-1,13
 148 27 148 27 112 60 c 128,-1,14
 76 93 76 93 55.5 137.5 c 128,-1,15
 35 182 35 182 35 233 c 0,16,17
 35 282 35 282 54 326 c 128,-1,18
 73 370 73 370 106 402.5 c 128,-1,19
 139 435 139 435 183 454 c 128,-1,20
 227 473 227 473 278 473 c 0,21,22
 336 473 336 473 384.5 447.5 c 128,-1,23
 433 422 433 422 460 380 c 1,24,25
 449 434 449 434 425.5 485 c 128,-1,26
 402 536 402 536 357 585 c 1,27,-1
 256 527 l 1,28,-1
 224 572 l 1,29,-1
 316 625 l 1,30,31
 256 678 256 678 162 730 c 1,32,-1
 309 730 l 1,33,34
 360 702 360 702 401 665 c 1,35,-1
 483 713 l 1,36,-1
 515 668 l 1,0,-1
148 233 m 0,37,38
 148 201 148 201 160 174 c 128,-1,39
 172 147 172 147 193 127 c 128,-1,40
 214 107 214 107 242 95.5 c 128,-1,41
 270 84 270 84 302 84 c 0,42,43
 336 84 336 84 365 96 c 128,-1,44
 394 108 394 108 415 129 c 128,-1,45
 436 150 436 150 448 178 c 128,-1,46
 460 206 460 206 460 238 c 0,47,48
 460 269 460 269 448 296 c 128,-1,49
 436 323 436 323 415 342.5 c 128,-1,50
 394 362 394 362 366 373 c 128,-1,51
 338 384 338 384 305 384 c 256,52,53
 272 384 272 384 243 372 c 128,-1,54
 214 360 214 360 193 340 c 128,-1,55
 172 320 172 320 160 292 c 128,-1,56
 148 264 148 264 148 233 c 0,37,38
EndSplineSet
EndChar

StartChar: ntilde
Encoding: 241 241 180
Width: 597
GlyphClass: 2
Flags: W
LayerCount: 2
Fore
SplineSet
535 0 m 1,0,-1
 425 0 l 1,1,-1
 425 293 l 2,2,3
 425 367 425 367 401.5 400.5 c 128,-1,4
 378 434 378 434 332 434 c 0,5,6
 308 434 308 434 284 425 c 128,-1,7
 260 416 260 416 239 399.5 c 128,-1,8
 218 383 218 383 201.5 360.5 c 128,-1,9
 185 338 185 338 176 311 c 1,10,-1
 176 0 l 1,11,-1
 66 0 l 1,12,-1
 66 523 l 1,13,-1
 166 523 l 1,14,-1
 166 418 l 1,15,16
 196 471 196 471 253 501.5 c 128,-1,17
 310 532 310 532 379 532 c 0,18,19
 426 532 426 532 456 515 c 128,-1,20
 486 498 486 498 503.5 468.5 c 128,-1,21
 521 439 521 439 528 400.5 c 128,-1,22
 535 362 535 362 535 319 c 2,23,-1
 535 0 l 1,0,-1
372 615 m 0,24,25
 349 615 349 615 332 621.5 c 128,-1,26
 315 628 315 628 300.5 636.5 c 128,-1,27
 286 645 286 645 272 651.5 c 128,-1,28
 258 658 258 658 242 658 c 0,29,30
 225 658 225 658 215.5 651 c 128,-1,31
 206 644 206 644 201 635.5 c 128,-1,32
 196 627 196 627 194.5 619 c 128,-1,33
 193 611 193 611 193 610 c 2,34,-1
 131 610 l 1,35,36
 131 618 131 618 136 637 c 128,-1,37
 141 656 141 656 153.5 675.5 c 128,-1,38
 166 695 166 695 186.5 710 c 128,-1,39
 207 725 207 725 238 725 c 0,40,41
 260 725 260 725 276.5 718 c 128,-1,42
 293 711 293 711 307.5 703 c 128,-1,43
 322 695 322 695 336.5 688 c 128,-1,44
 351 681 351 681 369 681 c 256,45,46
 387 681 387 681 398 688 c 128,-1,47
 409 695 409 695 414.5 704 c 128,-1,48
 420 713 420 713 421.5 720.5 c 128,-1,49
 423 728 423 728 423 730 c 2,50,-1
 486 730 l 1,51,52
 486 724 486 724 480.5 705 c 128,-1,53
 475 686 475 686 462 666 c 128,-1,54
 449 646 449 646 427 630.5 c 128,-1,55
 405 615 405 615 372 615 c 0,24,25
EndSplineSet
EndChar

StartChar: ograve
Encoding: 242 242 181
Width: 602
GlyphClass: 2
Flags: W
LayerCount: 2
Fore
SplineSet
301 -10 m 0,0,1
 239 -10 239 -10 189.5 12 c 128,-1,2
 140 34 140 34 105 71 c 128,-1,3
 70 108 70 108 51 157.5 c 128,-1,4
 32 207 32 207 32 261 c 256,5,6
 32 315 32 315 51 364.5 c 128,-1,7
 70 414 70 414 105.5 451 c 128,-1,8
 141 488 141 488 190.5 510 c 128,-1,9
 240 532 240 532 301 532 c 256,10,11
 362 532 362 532 411.5 510 c 128,-1,12
 461 488 461 488 496.5 451 c 128,-1,13
 532 414 532 414 551 364.5 c 128,-1,14
 570 315 570 315 570 261 c 256,15,16
 570 207 570 207 551 157.5 c 128,-1,17
 532 108 532 108 496.5 71 c 128,-1,18
 461 34 461 34 411.5 12 c 128,-1,19
 362 -10 362 -10 301 -10 c 0,0,1
145 260 m 0,20,21
 145 222 145 222 157 190 c 128,-1,22
 169 158 169 158 190 134.5 c 128,-1,23
 211 111 211 111 239.5 97.5 c 128,-1,24
 268 84 268 84 301 84 c 256,25,26
 334 84 334 84 362.5 97.5 c 128,-1,27
 391 111 391 111 412 135 c 128,-1,28
 433 159 433 159 445 191 c 128,-1,29
 457 223 457 223 457 261 c 0,30,31
 457 298 457 298 445 330.5 c 128,-1,32
 433 363 433 363 412 387 c 128,-1,33
 391 411 391 411 362.5 424.5 c 128,-1,34
 334 438 334 438 301 438 c 0,35,36
 269 438 269 438 240.5 424 c 128,-1,37
 212 410 212 410 191 386 c 128,-1,38
 170 362 170 362 157.5 329.5 c 128,-1,39
 145 297 145 297 145 260 c 0,20,21
186 730 m 1,40,-1
 291 730 l 1,41,-1
 348 620 l 1,42,-1
 278 598 l 1,43,-1
 186 730 l 1,40,-1
EndSplineSet
EndChar

StartChar: oacute
Encoding: 243 243 182
Width: 602
GlyphClass: 2
Flags: W
LayerCount: 2
Fore
SplineSet
325 598 m 1,0,-1
 253 620 l 1,1,-1
 310 730 l 1,2,-1
 415 730 l 1,3,-1
 325 598 l 1,0,-1
301 -10 m 0,4,5
 239 -10 239 -10 189.5 12 c 128,-1,6
 140 34 140 34 105 71 c 128,-1,7
 70 108 70 108 51 157.5 c 128,-1,8
 32 207 32 207 32 261 c 256,9,10
 32 315 32 315 51 364.5 c 128,-1,11
 70 414 70 414 105.5 451 c 128,-1,12
 141 488 141 488 190.5 510 c 128,-1,13
 240 532 240 532 301 532 c 256,14,15
 362 532 362 532 411.5 510 c 128,-1,16
 461 488 461 488 496.5 451 c 128,-1,17
 532 414 532 414 551 364.5 c 128,-1,18
 570 315 570 315 570 261 c 256,19,20
 570 207 570 207 551 157.5 c 128,-1,21
 532 108 532 108 496.5 71 c 128,-1,22
 461 34 461 34 411.5 12 c 128,-1,23
 362 -10 362 -10 301 -10 c 0,4,5
145 260 m 0,24,25
 145 222 145 222 157 190 c 128,-1,26
 169 158 169 158 190 134.5 c 128,-1,27
 211 111 211 111 239.5 97.5 c 128,-1,28
 268 84 268 84 301 84 c 256,29,30
 334 84 334 84 362.5 97.5 c 128,-1,31
 391 111 391 111 412 135 c 128,-1,32
 433 159 433 159 445 191 c 128,-1,33
 457 223 457 223 457 261 c 0,34,35
 457 298 457 298 445 330.5 c 128,-1,36
 433 363 433 363 412 387 c 128,-1,37
 391 411 391 411 362.5 424.5 c 128,-1,38
 334 438 334 438 301 438 c 0,39,40
 269 438 269 438 240.5 424 c 128,-1,41
 212 410 212 410 191 386 c 128,-1,42
 170 362 170 362 157.5 329.5 c 128,-1,43
 145 297 145 297 145 260 c 0,24,25
EndSplineSet
EndChar

StartChar: ocircumflex
Encoding: 244 244 183
Width: 602
GlyphClass: 2
Flags: W
LayerCount: 2
Fore
SplineSet
157 635 m 1,0,-1
 261 730 l 1,1,-1
 340 730 l 1,2,-1
 444 635 l 1,3,-1
 385 607 l 1,4,-1
 300 670 l 1,5,-1
 215 607 l 1,6,-1
 157 635 l 1,0,-1
301 -10 m 0,7,8
 239 -10 239 -10 189.5 12 c 128,-1,9
 140 34 140 34 105 71 c 128,-1,10
 70 108 70 108 51 157.5 c 128,-1,11
 32 207 32 207 32 261 c 256,12,13
 32 315 32 315 51 364.5 c 128,-1,14
 70 414 70 414 105.5 451 c 128,-1,15
 141 488 141 488 190.5 510 c 128,-1,16
 240 532 240 532 301 532 c 256,17,18
 362 532 362 532 411.5 510 c 128,-1,19
 461 488 461 488 496.5 451 c 128,-1,20
 532 414 532 414 551 364.5 c 128,-1,21
 570 315 570 315 570 261 c 256,22,23
 570 207 570 207 551 157.5 c 128,-1,24
 532 108 532 108 496.5 71 c 128,-1,25
 461 34 461 34 411.5 12 c 128,-1,26
 362 -10 362 -10 301 -10 c 0,7,8
145 260 m 0,27,28
 145 222 145 222 157 190 c 128,-1,29
 169 158 169 158 190 134.5 c 128,-1,30
 211 111 211 111 239.5 97.5 c 128,-1,31
 268 84 268 84 301 84 c 256,32,33
 334 84 334 84 362.5 97.5 c 128,-1,34
 391 111 391 111 412 135 c 128,-1,35
 433 159 433 159 445 191 c 128,-1,36
 457 223 457 223 457 261 c 0,37,38
 457 298 457 298 445 330.5 c 128,-1,39
 433 363 433 363 412 387 c 128,-1,40
 391 411 391 411 362.5 424.5 c 128,-1,41
 334 438 334 438 301 438 c 0,42,43
 269 438 269 438 240.5 424 c 128,-1,44
 212 410 212 410 191 386 c 128,-1,45
 170 362 170 362 157.5 329.5 c 128,-1,46
 145 297 145 297 145 260 c 0,27,28
EndSplineSet
EndChar

StartChar: otilde
Encoding: 245 245 184
Width: 602
GlyphClass: 2
Flags: W
LayerCount: 2
Fore
SplineSet
301 -10 m 0,0,1
 239 -10 239 -10 189.5 12 c 128,-1,2
 140 34 140 34 105 71 c 128,-1,3
 70 108 70 108 51 157.5 c 128,-1,4
 32 207 32 207 32 261 c 256,5,6
 32 315 32 315 51 364.5 c 128,-1,7
 70 414 70 414 105.5 451 c 128,-1,8
 141 488 141 488 190.5 510 c 128,-1,9
 240 532 240 532 301 532 c 256,10,11
 362 532 362 532 411.5 510 c 128,-1,12
 461 488 461 488 496.5 451 c 128,-1,13
 532 414 532 414 551 364.5 c 128,-1,14
 570 315 570 315 570 261 c 256,15,16
 570 207 570 207 551 157.5 c 128,-1,17
 532 108 532 108 496.5 71 c 128,-1,18
 461 34 461 34 411.5 12 c 128,-1,19
 362 -10 362 -10 301 -10 c 0,0,1
145 260 m 0,20,21
 145 222 145 222 157 190 c 128,-1,22
 169 158 169 158 190 134.5 c 128,-1,23
 211 111 211 111 239.5 97.5 c 128,-1,24
 268 84 268 84 301 84 c 256,25,26
 334 84 334 84 362.5 97.5 c 128,-1,27
 391 111 391 111 412 135 c 128,-1,28
 433 159 433 159 445 191 c 128,-1,29
 457 223 457 223 457 261 c 0,30,31
 457 298 457 298 445 330.5 c 128,-1,32
 433 363 433 363 412 387 c 128,-1,33
 391 411 391 411 362.5 424.5 c 128,-1,34
 334 438 334 438 301 438 c 0,35,36
 269 438 269 438 240.5 424 c 128,-1,37
 212 410 212 410 191 386 c 128,-1,38
 170 362 170 362 157.5 329.5 c 128,-1,39
 145 297 145 297 145 260 c 0,20,21
364 615 m 0,40,41
 341 615 341 615 324 621.5 c 128,-1,42
 307 628 307 628 292.5 636.5 c 128,-1,43
 278 645 278 645 264 651.5 c 128,-1,44
 250 658 250 658 234 658 c 0,45,46
 217 658 217 658 207.5 651 c 128,-1,47
 198 644 198 644 193 635.5 c 128,-1,48
 188 627 188 627 186.5 619 c 128,-1,49
 185 611 185 611 185 610 c 2,50,-1
 123 610 l 1,51,52
 123 618 123 618 128 637 c 128,-1,53
 133 656 133 656 145.5 675.5 c 128,-1,54
 158 695 158 695 178.5 710 c 128,-1,55
 199 725 199 725 230 725 c 0,56,57
 252 725 252 725 268.5 718 c 128,-1,58
 285 711 285 711 299.5 703 c 128,-1,59
 314 695 314 695 328.5 688 c 128,-1,60
 343 681 343 681 361 681 c 256,61,62
 379 681 379 681 390 688 c 128,-1,63
 401 695 401 695 406.5 704 c 128,-1,64
 412 713 412 713 413.5 720.5 c 128,-1,65
 415 728 415 728 415 730 c 2,66,-1
 478 730 l 1,67,68
 478 724 478 724 472.5 705 c 128,-1,69
 467 686 467 686 454 666 c 128,-1,70
 441 646 441 646 419 630.5 c 128,-1,71
 397 615 397 615 364 615 c 0,40,41
EndSplineSet
EndChar

StartChar: odieresis
Encoding: 246 246 185
Width: 602
GlyphClass: 2
Flags: W
LayerCount: 2
Fore
SplineSet
166 615 m 1,0,-1
 166 725 l 1,1,-1
 258 725 l 1,2,-1
 258 615 l 1,3,-1
 166 615 l 1,0,-1
343 615 m 1,4,-1
 343 725 l 1,5,-1
 435 725 l 1,6,-1
 435 615 l 1,7,-1
 343 615 l 1,4,-1
301 -10 m 0,8,9
 239 -10 239 -10 189.5 12 c 128,-1,10
 140 34 140 34 105 71 c 128,-1,11
 70 108 70 108 51 157.5 c 128,-1,12
 32 207 32 207 32 261 c 256,13,14
 32 315 32 315 51 364.5 c 128,-1,15
 70 414 70 414 105.5 451 c 128,-1,16
 141 488 141 488 190.5 510 c 128,-1,17
 240 532 240 532 301 532 c 256,18,19
 362 532 362 532 411.5 510 c 128,-1,20
 461 488 461 488 496.5 451 c 128,-1,21
 532 414 532 414 551 364.5 c 128,-1,22
 570 315 570 315 570 261 c 256,23,24
 570 207 570 207 551 157.5 c 128,-1,25
 532 108 532 108 496.5 71 c 128,-1,26
 461 34 461 34 411.5 12 c 128,-1,27
 362 -10 362 -10 301 -10 c 0,8,9
145 260 m 0,28,29
 145 222 145 222 157 190 c 128,-1,30
 169 158 169 158 190 134.5 c 128,-1,31
 211 111 211 111 239.5 97.5 c 128,-1,32
 268 84 268 84 301 84 c 256,33,34
 334 84 334 84 362.5 97.5 c 128,-1,35
 391 111 391 111 412 135 c 128,-1,36
 433 159 433 159 445 191 c 128,-1,37
 457 223 457 223 457 261 c 0,38,39
 457 298 457 298 445 330.5 c 128,-1,40
 433 363 433 363 412 387 c 128,-1,41
 391 411 391 411 362.5 424.5 c 128,-1,42
 334 438 334 438 301 438 c 0,43,44
 269 438 269 438 240.5 424 c 128,-1,45
 212 410 212 410 191 386 c 128,-1,46
 170 362 170 362 157.5 329.5 c 128,-1,47
 145 297 145 297 145 260 c 0,28,29
EndSplineSet
EndChar

StartChar: divide
Encoding: 247 247 186
Width: 523
GlyphClass: 2
Flags: W
LayerCount: 2
Fore
SplineSet
215 411 m 1,0,-1
 215 526 l 1,1,-1
 308 526 l 1,2,-1
 308 411 l 1,3,-1
 215 411 l 1,0,-1
215 58 m 1,4,-1
 215 172 l 1,5,-1
 308 172 l 1,6,-1
 308 58 l 1,7,-1
 215 58 l 1,4,-1
60 248 m 1,8,-1
 60 336 l 1,9,-1
 463 336 l 1,10,-1
 463 248 l 1,11,-1
 60 248 l 1,8,-1
EndSplineSet
EndChar

StartChar: oslash
Encoding: 248 248 187
Width: 602
GlyphClass: 2
Flags: W
LayerCount: 2
Fore
SplineSet
66 -3 m 1,0,-1
 117 59 l 1,1,2
 75 97 75 97 53.5 149 c 128,-1,3
 32 201 32 201 32 261 c 0,4,5
 32 315 32 315 51 364.5 c 128,-1,6
 70 414 70 414 105.5 451 c 128,-1,7
 141 488 141 488 190.5 510 c 128,-1,8
 240 532 240 532 301 532 c 0,9,10
 342 532 342 532 377 522 c 128,-1,11
 412 512 412 512 442 494 c 1,12,-1
 467 526 l 1,13,-1
 533 526 l 1,14,-1
 482 464 l 1,15,16
 524 426 524 426 547 373.5 c 128,-1,17
 570 321 570 321 570 261 c 0,18,19
 570 207 570 207 551 157.5 c 128,-1,20
 532 108 532 108 496.5 71 c 128,-1,21
 461 34 461 34 411.5 12 c 128,-1,22
 362 -10 362 -10 301 -10 c 0,23,24
 218 -10 218 -10 156 29 c 1,25,-1
 130 -3 l 1,26,-1
 66 -3 l 1,0,-1
301 84 m 0,27,28
 334 84 334 84 362.5 97.5 c 128,-1,29
 391 111 391 111 412 135 c 128,-1,30
 433 159 433 159 445 191 c 128,-1,31
 457 223 457 223 457 261 c 0,32,33
 457 296 457 296 446 327 c 128,-1,34
 435 358 435 358 416 382 c 1,35,-1
 218 110 l 1,36,37
 255 84 255 84 301 84 c 0,27,28
145 260 m 0,38,39
 145 225 145 225 155.5 194 c 128,-1,40
 166 163 166 163 185 140 c 1,41,-1
 381 413 l 1,42,43
 343 438 343 438 301 438 c 0,44,45
 269 438 269 438 240.5 424 c 128,-1,46
 212 410 212 410 191 386 c 128,-1,47
 170 362 170 362 157.5 329.5 c 128,-1,48
 145 297 145 297 145 260 c 0,38,39
EndSplineSet
EndChar

StartChar: ugrave
Encoding: 249 249 188
Width: 609
GlyphClass: 2
Flags: W
LayerCount: 2
Fore
SplineSet
227 -10 m 0,0,1
 145 -10 145 -10 103 43.5 c 128,-1,2
 61 97 61 97 61 203 c 2,3,-1
 61 523 l 1,4,-1
 171 523 l 1,5,-1
 171 225 l 2,6,7
 171 84 171 84 271 84 c 0,8,9
 318 84 318 84 360 113 c 128,-1,10
 402 142 402 142 425 197 c 1,11,-1
 425 523 l 1,12,-1
 535 523 l 1,13,-1
 535 130 l 2,14,15
 535 111 535 111 541.5 103 c 128,-1,16
 548 95 548 95 565 94 c 1,17,-1
 565 0 l 1,18,19
 548 -3 548 -3 537 -4 c 128,-1,20
 526 -5 526 -5 516 -5 c 0,21,22
 486 -5 486 -5 465 11.5 c 128,-1,23
 444 28 444 28 443 54 c 2,24,-1
 441 106 l 1,25,26
 406 49 406 49 350 19.5 c 128,-1,27
 294 -10 294 -10 227 -10 c 0,0,1
182 730 m 1,28,-1
 287 730 l 1,29,-1
 344 620 l 1,30,-1
 274 598 l 1,31,-1
 182 730 l 1,28,-1
EndSplineSet
EndChar

StartChar: uacute
Encoding: 250 250 189
Width: 609
GlyphClass: 2
Flags: W
LayerCount: 2
Fore
SplineSet
322 598 m 1,0,-1
 250 620 l 1,1,-1
 307 730 l 1,2,-1
 412 730 l 1,3,-1
 322 598 l 1,0,-1
227 -10 m 0,4,5
 145 -10 145 -10 103 43.5 c 128,-1,6
 61 97 61 97 61 203 c 2,7,-1
 61 523 l 1,8,-1
 171 523 l 1,9,-1
 171 225 l 2,10,11
 171 84 171 84 271 84 c 0,12,13
 318 84 318 84 360 113 c 128,-1,14
 402 142 402 142 425 197 c 1,15,-1
 425 523 l 1,16,-1
 535 523 l 1,17,-1
 535 130 l 2,18,19
 535 111 535 111 541.5 103 c 128,-1,20
 548 95 548 95 565 94 c 1,21,-1
 565 0 l 1,22,23
 548 -3 548 -3 537 -4 c 128,-1,24
 526 -5 526 -5 516 -5 c 0,25,26
 486 -5 486 -5 465 11.5 c 128,-1,27
 444 28 444 28 443 54 c 2,28,-1
 441 106 l 1,29,30
 406 49 406 49 350 19.5 c 128,-1,31
 294 -10 294 -10 227 -10 c 0,4,5
EndSplineSet
EndChar

StartChar: ucircumflex
Encoding: 251 251 190
Width: 609
GlyphClass: 2
Flags: W
LayerCount: 2
Fore
SplineSet
154 635 m 1,0,-1
 258 730 l 1,1,-1
 337 730 l 1,2,-1
 441 635 l 1,3,-1
 382 607 l 1,4,-1
 297 670 l 1,5,-1
 212 607 l 1,6,-1
 154 635 l 1,0,-1
227 -10 m 0,7,8
 145 -10 145 -10 103 43.5 c 128,-1,9
 61 97 61 97 61 203 c 2,10,-1
 61 523 l 1,11,-1
 171 523 l 1,12,-1
 171 225 l 2,13,14
 171 84 171 84 271 84 c 0,15,16
 318 84 318 84 360 113 c 128,-1,17
 402 142 402 142 425 197 c 1,18,-1
 425 523 l 1,19,-1
 535 523 l 1,20,-1
 535 130 l 2,21,22
 535 111 535 111 541.5 103 c 128,-1,23
 548 95 548 95 565 94 c 1,24,-1
 565 0 l 1,25,26
 548 -3 548 -3 537 -4 c 128,-1,27
 526 -5 526 -5 516 -5 c 0,28,29
 486 -5 486 -5 465 11.5 c 128,-1,30
 444 28 444 28 443 54 c 2,31,-1
 441 106 l 1,32,33
 406 49 406 49 350 19.5 c 128,-1,34
 294 -10 294 -10 227 -10 c 0,7,8
EndSplineSet
EndChar

StartChar: udieresis
Encoding: 252 252 191
Width: 609
GlyphClass: 2
Flags: W
LayerCount: 2
Fore
SplineSet
163 615 m 1,0,-1
 163 725 l 1,1,-1
 255 725 l 1,2,-1
 255 615 l 1,3,-1
 163 615 l 1,0,-1
340 615 m 1,4,-1
 340 725 l 1,5,-1
 432 725 l 1,6,-1
 432 615 l 1,7,-1
 340 615 l 1,4,-1
227 -10 m 0,8,9
 145 -10 145 -10 103 43.5 c 128,-1,10
 61 97 61 97 61 203 c 2,11,-1
 61 523 l 1,12,-1
 171 523 l 1,13,-1
 171 225 l 2,14,15
 171 84 171 84 271 84 c 0,16,17
 318 84 318 84 360 113 c 128,-1,18
 402 142 402 142 425 197 c 1,19,-1
 425 523 l 1,20,-1
 535 523 l 1,21,-1
 535 130 l 2,22,23
 535 111 535 111 541.5 103 c 128,-1,24
 548 95 548 95 565 94 c 1,25,-1
 565 0 l 1,26,27
 548 -3 548 -3 537 -4 c 128,-1,28
 526 -5 526 -5 516 -5 c 0,29,30
 486 -5 486 -5 465 11.5 c 128,-1,31
 444 28 444 28 443 54 c 2,32,-1
 441 106 l 1,33,34
 406 49 406 49 350 19.5 c 128,-1,35
 294 -10 294 -10 227 -10 c 0,8,9
EndSplineSet
EndChar

StartChar: yacute
Encoding: 253 253 192
Width: 547
GlyphClass: 2
Flags: W
LayerCount: 2
Fore
SplineSet
84 -123 m 1,0,1
 99 -126 99 -126 113.5 -128 c 128,-1,2
 128 -130 128 -130 137 -130 c 0,3,4
 150 -130 150 -130 159.5 -124.5 c 128,-1,5
 169 -119 169 -119 179 -105 c 128,-1,6
 189 -91 189 -91 199.5 -65.5 c 128,-1,7
 210 -40 210 -40 224 0 c 1,8,-1
 9 523 l 1,9,-1
 122 523 l 1,10,-1
 284 97 l 1,11,-1
 428 523 l 1,12,-1
 532 523 l 1,13,-1
 295 -121 l 2,14,15
 279 -166 279 -166 239.5 -196.5 c 128,-1,16
 200 -227 200 -227 138 -227 c 0,17,18
 126 -227 126 -227 113 -225.5 c 128,-1,19
 100 -224 100 -224 84 -219 c 1,20,-1
 84 -123 l 1,0,1
308 598 m 1,21,-1
 236 620 l 1,22,-1
 293 730 l 1,23,-1
 398 730 l 1,24,-1
 308 598 l 1,21,-1
EndSplineSet
EndChar

StartChar: thorn
Encoding: 254 254 193
Width: 602
GlyphClass: 2
Flags: W
LayerCount: 2
Fore
SplineSet
571 257 m 0,0,1
 570 202 570 202 549.5 151.5 c 128,-1,2
 529 101 529 101 493.5 63 c 128,-1,3
 458 25 458 25 411 2 c 128,-1,4
 364 -21 364 -21 310 -21 c 0,5,6
 262 -21 262 -21 227.5 -0.5 c 128,-1,7
 193 20 193 20 179 44 c 1,8,-1
 179 -213 l 1,9,-1
 66 -213 l 1,10,-1
 66 710 l 1,11,-1
 179 710 l 1,12,-1
 179 465 l 1,13,14
 198 492 198 492 231 514 c 128,-1,15
 264 536 264 536 319 536 c 0,16,17
 377 536 377 536 423.5 511 c 128,-1,18
 470 486 470 486 503 446.5 c 128,-1,19
 536 407 536 407 553.5 357 c 128,-1,20
 571 307 571 307 571 257 c 0,0,1
458 258 m 256,21,22
 458 294 458 294 447.5 326 c 128,-1,23
 437 358 437 358 418 383 c 128,-1,24
 399 408 399 408 372 422.5 c 128,-1,25
 345 437 345 437 312 437 c 0,26,27
 264 437 264 437 231.5 408.5 c 128,-1,28
 199 380 199 380 179 340 c 1,29,-1
 179 174 l 2,30,31
 179 157 179 157 191 140 c 128,-1,32
 203 123 203 123 221.5 109.5 c 128,-1,33
 240 96 240 96 263 87.5 c 128,-1,34
 286 79 286 79 307 79 c 0,35,36
 340 79 340 79 367.5 93.5 c 128,-1,37
 395 108 395 108 415.5 133 c 128,-1,38
 436 158 436 158 447 190 c 128,-1,39
 458 222 458 222 458 258 c 256,21,22
EndSplineSet
EndChar

StartChar: ydieresis
Encoding: 255 255 194
Width: 547
GlyphClass: 2
Flags: W
LayerCount: 2
Fore
SplineSet
84 -123 m 1,0,1
 99 -126 99 -126 113.5 -128 c 128,-1,2
 128 -130 128 -130 137 -130 c 0,3,4
 150 -130 150 -130 159.5 -124.5 c 128,-1,5
 169 -119 169 -119 179 -105 c 128,-1,6
 189 -91 189 -91 199.5 -65.5 c 128,-1,7
 210 -40 210 -40 224 0 c 1,8,-1
 9 523 l 1,9,-1
 122 523 l 1,10,-1
 284 97 l 1,11,-1
 428 523 l 1,12,-1
 532 523 l 1,13,-1
 295 -121 l 2,14,15
 279 -166 279 -166 239.5 -196.5 c 128,-1,16
 200 -227 200 -227 138 -227 c 0,17,18
 126 -227 126 -227 113 -225.5 c 128,-1,19
 100 -224 100 -224 84 -219 c 1,20,-1
 84 -123 l 1,0,1
149 615 m 1,21,-1
 149 725 l 1,22,-1
 241 725 l 1,23,-1
 241 615 l 1,24,-1
 149 615 l 1,21,-1
326 615 m 1,25,-1
 326 725 l 1,26,-1
 418 725 l 1,27,-1
 418 615 l 1,28,-1
 326 615 l 1,25,-1
EndSplineSet
EndChar

StartChar: Amacron
Encoding: 256 256 195
Width: 675
GlyphClass: 2
Flags: W
LayerCount: 2
Fore
SplineSet
289 710 m 1,0,-1
 387 710 l 1,1,-1
 667 0 l 1,2,-1
 549 0 l 1,3,-1
 474 193 l 1,4,-1
 200 193 l 1,5,-1
 126 0 l 1,6,-1
 7 0 l 1,7,-1
 289 710 l 1,0,-1
452 276 m 1,8,-1
 338 581 l 1,9,-1
 220 276 l 1,10,-1
 452 276 l 1,8,-1
190 830 m 1,11,-1
 190 900 l 1,12,-1
 486 900 l 1,13,-1
 486 830 l 1,14,-1
 190 830 l 1,11,-1
EndSplineSet
EndChar

StartChar: amacron
Encoding: 257 257 196
Width: 564
GlyphClass: 2
Flags: W
LayerCount: 2
Fore
SplineSet
205 -10 m 0,0,1
 167 -10 167 -10 134.5 2.5 c 128,-1,2
 102 15 102 15 78.5 37 c 128,-1,3
 55 59 55 59 41.5 89 c 128,-1,4
 28 119 28 119 28 154 c 0,5,6
 28 191 28 191 44 221 c 128,-1,7
 60 251 60 251 89.5 273 c 128,-1,8
 119 295 119 295 159.5 307 c 128,-1,9
 200 319 200 319 249 319 c 0,10,11
 286 319 286 319 322 312.5 c 128,-1,12
 358 306 358 306 387 295 c 1,13,-1
 387 331 l 2,14,15
 387 389 387 389 354 421.5 c 128,-1,16
 321 454 321 454 259 454 c 0,17,18
 217 454 217 454 176.5 438.5 c 128,-1,19
 136 423 136 423 93 394 c 1,20,-1
 59 464 l 1,21,22
 160 532 160 532 269 532 c 0,23,24
 377 532 377 532 437 477 c 128,-1,25
 497 422 497 422 497 319 c 2,26,-1
 497 130 l 2,27,28
 497 95 497 95 526 94 c 1,29,-1
 526 0 l 1,30,31
 510 -3 510 -3 498.5 -4 c 128,-1,32
 487 -5 487 -5 476 -5 c 0,33,34
 444 -5 444 -5 426.5 11 c 128,-1,35
 409 27 409 27 405 52 c 2,36,-1
 402 85 l 1,37,38
 367 39 367 39 315.5 14.5 c 128,-1,39
 264 -10 264 -10 205 -10 c 0,0,1
235 71 m 0,40,41
 275 71 275 71 310.5 85.5 c 128,-1,42
 346 100 346 100 366 126 c 1,43,44
 387 144 387 144 387 164 c 2,45,-1
 387 233 l 1,46,47
 359 244 359 244 327.5 250 c 128,-1,48
 296 256 296 256 266 256 c 0,49,50
 207 256 207 256 169.5 230.5 c 128,-1,51
 132 205 132 205 132 163 c 0,52,53
 132 124 132 124 161 97.5 c 128,-1,54
 190 71 190 71 235 71 c 0,40,41
122 644 m 1,55,-1
 122 714 l 1,56,-1
 418 714 l 1,57,-1
 418 644 l 1,58,-1
 122 644 l 1,55,-1
EndSplineSet
EndChar

StartChar: Abreve
Encoding: 258 258 197
Width: 675
GlyphClass: 2
Flags: W
LayerCount: 2
Fore
SplineSet
289 710 m 1,0,-1
 387 710 l 1,1,-1
 667 0 l 1,2,-1
 549 0 l 1,3,-1
 474 193 l 1,4,-1
 200 193 l 1,5,-1
 126 0 l 1,6,-1
 7 0 l 1,7,-1
 289 710 l 1,0,-1
452 276 m 1,8,-1
 338 581 l 1,9,-1
 220 276 l 1,10,-1
 452 276 l 1,8,-1
338 845 m 0,11,12
 360 845 360 845 376.5 865 c 128,-1,13
 393 885 393 885 396 916 c 1,14,-1
 457 916 l 1,15,16
 457 890 457 890 448 867.5 c 128,-1,17
 439 845 439 845 423 828.5 c 128,-1,18
 407 812 407 812 385 803 c 128,-1,19
 363 794 363 794 338 794 c 0,20,21
 312 794 312 794 290.5 803 c 128,-1,22
 269 812 269 812 253 828.5 c 128,-1,23
 237 845 237 845 228 867.5 c 128,-1,24
 219 890 219 890 219 916 c 1,25,-1
 280 916 l 1,26,27
 280 887 280 887 297.5 866 c 128,-1,28
 315 845 315 845 338 845 c 0,11,12
EndSplineSet
EndChar

StartChar: abreve
Encoding: 259 259 198
Width: 564
GlyphClass: 2
Flags: W
LayerCount: 2
Fore
SplineSet
205 -10 m 0,0,1
 167 -10 167 -10 134.5 2.5 c 128,-1,2
 102 15 102 15 78.5 37 c 128,-1,3
 55 59 55 59 41.5 89 c 128,-1,4
 28 119 28 119 28 154 c 0,5,6
 28 191 28 191 44 221 c 128,-1,7
 60 251 60 251 89.5 273 c 128,-1,8
 119 295 119 295 159.5 307 c 128,-1,9
 200 319 200 319 249 319 c 0,10,11
 286 319 286 319 322 312.5 c 128,-1,12
 358 306 358 306 387 295 c 1,13,-1
 387 331 l 2,14,15
 387 389 387 389 354 421.5 c 128,-1,16
 321 454 321 454 259 454 c 0,17,18
 217 454 217 454 176.5 438.5 c 128,-1,19
 136 423 136 423 93 394 c 1,20,-1
 59 464 l 1,21,22
 160 532 160 532 269 532 c 0,23,24
 377 532 377 532 437 477 c 128,-1,25
 497 422 497 422 497 319 c 2,26,-1
 497 130 l 2,27,28
 497 95 497 95 526 94 c 1,29,-1
 526 0 l 1,30,31
 510 -3 510 -3 498.5 -4 c 128,-1,32
 487 -5 487 -5 476 -5 c 0,33,34
 444 -5 444 -5 426.5 11 c 128,-1,35
 409 27 409 27 405 52 c 2,36,-1
 402 85 l 1,37,38
 367 39 367 39 315.5 14.5 c 128,-1,39
 264 -10 264 -10 205 -10 c 0,0,1
235 71 m 0,40,41
 275 71 275 71 310.5 85.5 c 128,-1,42
 346 100 346 100 366 126 c 1,43,44
 387 144 387 144 387 164 c 2,45,-1
 387 233 l 1,46,47
 359 244 359 244 327.5 250 c 128,-1,48
 296 256 296 256 266 256 c 0,49,50
 207 256 207 256 169.5 230.5 c 128,-1,51
 132 205 132 205 132 163 c 0,52,53
 132 124 132 124 161 97.5 c 128,-1,54
 190 71 190 71 235 71 c 0,40,41
269 659 m 0,55,56
 291 659 291 659 307.5 679 c 128,-1,57
 324 699 324 699 327 730 c 1,58,-1
 388 730 l 1,59,60
 388 704 388 704 379 681.5 c 128,-1,61
 370 659 370 659 354 642.5 c 128,-1,62
 338 626 338 626 316 617 c 128,-1,63
 294 608 294 608 269 608 c 0,64,65
 243 608 243 608 221.5 617 c 128,-1,66
 200 626 200 626 184 642.5 c 128,-1,67
 168 659 168 659 159 681.5 c 128,-1,68
 150 704 150 704 150 730 c 1,69,-1
 211 730 l 1,70,71
 211 701 211 701 228.5 680 c 128,-1,72
 246 659 246 659 269 659 c 0,55,56
EndSplineSet
EndChar

StartChar: Aogonek
Encoding: 260 260 199
Width: 677
GlyphClass: 2
Flags: W
LayerCount: 2
Fore
SplineSet
620 -188 m 1,0,1
 571 -180 571 -180 546 -157.5 c 128,-1,2
 521 -135 521 -135 521 -106 c 0,3,4
 521 -51 521 -51 600 0 c 1,5,-1
 549 0 l 1,6,-1
 474 193 l 1,7,-1
 200 193 l 1,8,-1
 126 0 l 1,9,-1
 7 0 l 1,10,-1
 289 710 l 1,11,-1
 387 710 l 1,12,-1
 667 0 l 1,13,14
 625 -26 625 -26 606 -47 c 128,-1,15
 587 -68 587 -68 587 -89 c 0,16,17
 587 -126 587 -126 645 -130 c 1,18,-1
 620 -188 l 1,0,1
452 276 m 1,19,-1
 338 581 l 1,20,-1
 220 276 l 1,21,-1
 452 276 l 1,19,-1
EndSplineSet
EndChar

StartChar: aogonek
Encoding: 261 261 200
Width: 564
GlyphClass: 2
Flags: W
LayerCount: 2
Fore
SplineSet
479 -188 m 1,0,1
 430 -180 430 -180 405 -157.5 c 128,-1,2
 380 -135 380 -135 380 -106 c 0,3,4
 380 -53 380 -53 455 -3 c 1,5,6
 433 2 433 2 420.5 17 c 128,-1,7
 408 32 408 32 405 52 c 2,8,-1
 402 85 l 1,9,10
 367 39 367 39 315.5 14.5 c 128,-1,11
 264 -10 264 -10 205 -10 c 0,12,13
 167 -10 167 -10 134.5 2.5 c 128,-1,14
 102 15 102 15 78.5 37 c 128,-1,15
 55 59 55 59 41.5 89 c 128,-1,16
 28 119 28 119 28 154 c 0,17,18
 28 191 28 191 44 221 c 128,-1,19
 60 251 60 251 89.5 273 c 128,-1,20
 119 295 119 295 159.5 307 c 128,-1,21
 200 319 200 319 249 319 c 0,22,23
 286 319 286 319 322 312.5 c 128,-1,24
 358 306 358 306 387 295 c 1,25,-1
 387 331 l 2,26,27
 387 389 387 389 354 421.5 c 128,-1,28
 321 454 321 454 259 454 c 0,29,30
 217 454 217 454 176.5 438.5 c 128,-1,31
 136 423 136 423 93 394 c 1,32,-1
 59 464 l 1,33,34
 160 532 160 532 269 532 c 0,35,36
 377 532 377 532 437 477 c 128,-1,37
 497 422 497 422 497 319 c 2,38,-1
 497 130 l 2,39,40
 497 95 497 95 526 94 c 1,41,-1
 526 0 l 1,42,43
 484 -26 484 -26 465 -47 c 128,-1,44
 446 -68 446 -68 446 -89 c 0,45,46
 446 -126 446 -126 504 -130 c 1,47,-1
 479 -188 l 1,0,1
235 71 m 0,48,49
 275 71 275 71 310.5 85.5 c 128,-1,50
 346 100 346 100 366 126 c 1,51,52
 387 144 387 144 387 164 c 2,53,-1
 387 233 l 1,54,55
 359 244 359 244 327.5 250 c 128,-1,56
 296 256 296 256 266 256 c 0,57,58
 207 256 207 256 169.5 230.5 c 128,-1,59
 132 205 132 205 132 163 c 0,60,61
 132 124 132 124 161 97.5 c 128,-1,62
 190 71 190 71 235 71 c 0,48,49
EndSplineSet
EndChar

StartChar: Cacute
Encoding: 262 262 201
Width: 684
GlyphClass: 2
Flags: W
LayerCount: 2
Fore
SplineSet
404 784 m 1,0,-1
 332 806 l 1,1,-1
 389 916 l 1,2,-1
 494 916 l 1,3,-1
 404 784 l 1,0,-1
35 360 m 0,4,5
 35 424 35 424 58 487.5 c 128,-1,6
 81 551 81 551 125.5 601.5 c 128,-1,7
 170 652 170 652 234 683 c 128,-1,8
 298 714 298 714 379 714 c 0,9,10
 476 714 476 714 545 671 c 128,-1,11
 614 628 614 628 649 559 c 1,12,-1
 561 500 l 1,13,14
 546 532 546 532 525 554 c 128,-1,15
 504 576 504 576 479 589 c 128,-1,16
 454 602 454 602 427 607.5 c 128,-1,17
 400 613 400 613 375 613 c 0,18,19
 319 613 319 613 277 590.5 c 128,-1,20
 235 568 235 568 206.5 531 c 128,-1,21
 178 494 178 494 163.5 448 c 128,-1,22
 149 402 149 402 149 356 c 0,23,24
 149 304 149 304 166 257 c 128,-1,25
 183 210 183 210 213.5 174 c 128,-1,26
 244 138 244 138 286 116.5 c 128,-1,27
 328 95 328 95 378 95 c 0,28,29
 404 95 404 95 431.5 101.5 c 128,-1,30
 459 108 459 108 484.5 122.5 c 128,-1,31
 510 137 510 137 531.5 159 c 128,-1,32
 553 181 553 181 567 212 c 1,33,-1
 660 159 l 1,34,35
 643 119 643 119 612 88.5 c 128,-1,36
 581 58 581 58 542 37 c 128,-1,37
 503 16 503 16 459.5 5 c 128,-1,38
 416 -6 416 -6 374 -6 c 0,39,40
 299 -6 299 -6 237 26 c 128,-1,41
 175 58 175 58 130 109.5 c 128,-1,42
 85 161 85 161 60 226.5 c 128,-1,43
 35 292 35 292 35 360 c 0,4,5
EndSplineSet
EndChar

StartChar: cacute
Encoding: 263 263 202
Width: 559
GlyphClass: 2
Flags: W
LayerCount: 2
Fore
SplineSet
326 598 m 1,0,-1
 254 620 l 1,1,-1
 311 730 l 1,2,-1
 416 730 l 1,3,-1
 326 598 l 1,0,-1
32 262 m 256,4,5
 32 317 32 317 51 366 c 128,-1,6
 70 415 70 415 105.5 452 c 128,-1,7
 141 489 141 489 191 510.5 c 128,-1,8
 241 532 241 532 303 532 c 0,9,10
 384 532 384 532 442.5 496.5 c 128,-1,11
 501 461 501 461 530 402 c 1,12,-1
 423 368 l 1,13,14
 404 401 404 401 372 419.5 c 128,-1,15
 340 438 340 438 301 438 c 0,16,17
 268 438 268 438 239.5 425 c 128,-1,18
 211 412 211 412 190 388.5 c 128,-1,19
 169 365 169 365 157 333 c 128,-1,20
 145 301 145 301 145 262 c 0,21,22
 145 224 145 224 157.5 191.5 c 128,-1,23
 170 159 170 159 191.5 135 c 128,-1,24
 213 111 213 111 241.5 97.5 c 128,-1,25
 270 84 270 84 302 84 c 0,26,27
 322 84 322 84 342 89.5 c 128,-1,28
 362 95 362 95 378.5 105 c 128,-1,29
 395 115 395 115 407.5 128 c 128,-1,30
 420 141 420 141 426 156 c 1,31,-1
 534 124 l 1,32,33
 508 65 508 65 447 27.5 c 128,-1,34
 386 -10 386 -10 303 -10 c 0,35,36
 242 -10 242 -10 192 12 c 128,-1,37
 142 34 142 34 106.5 71.5 c 128,-1,38
 71 109 71 109 51.5 158 c 128,-1,39
 32 207 32 207 32 262 c 256,4,5
EndSplineSet
EndChar

StartChar: Ccircumflex
Encoding: 264 264 203
Width: 684
GlyphClass: 2
Flags: W
LayerCount: 2
Fore
SplineSet
234 821 m 1,0,-1
 338 916 l 1,1,-1
 417 916 l 1,2,-1
 521 821 l 1,3,-1
 462 793 l 1,4,-1
 377 856 l 1,5,-1
 292 793 l 1,6,-1
 234 821 l 1,0,-1
35 360 m 0,7,8
 35 424 35 424 58 487.5 c 128,-1,9
 81 551 81 551 125.5 601.5 c 128,-1,10
 170 652 170 652 234 683 c 128,-1,11
 298 714 298 714 379 714 c 0,12,13
 476 714 476 714 545 671 c 128,-1,14
 614 628 614 628 649 559 c 1,15,-1
 561 500 l 1,16,17
 546 532 546 532 525 554 c 128,-1,18
 504 576 504 576 479 589 c 128,-1,19
 454 602 454 602 427 607.5 c 128,-1,20
 400 613 400 613 375 613 c 0,21,22
 319 613 319 613 277 590.5 c 128,-1,23
 235 568 235 568 206.5 531 c 128,-1,24
 178 494 178 494 163.5 448 c 128,-1,25
 149 402 149 402 149 356 c 0,26,27
 149 304 149 304 166 257 c 128,-1,28
 183 210 183 210 213.5 174 c 128,-1,29
 244 138 244 138 286 116.5 c 128,-1,30
 328 95 328 95 378 95 c 0,31,32
 404 95 404 95 431.5 101.5 c 128,-1,33
 459 108 459 108 484.5 122.5 c 128,-1,34
 510 137 510 137 531.5 159 c 128,-1,35
 553 181 553 181 567 212 c 1,36,-1
 660 159 l 1,37,38
 643 119 643 119 612 88.5 c 128,-1,39
 581 58 581 58 542 37 c 128,-1,40
 503 16 503 16 459.5 5 c 128,-1,41
 416 -6 416 -6 374 -6 c 0,42,43
 299 -6 299 -6 237 26 c 128,-1,44
 175 58 175 58 130 109.5 c 128,-1,45
 85 161 85 161 60 226.5 c 128,-1,46
 35 292 35 292 35 360 c 0,7,8
EndSplineSet
EndChar

StartChar: ccircumflex
Encoding: 265 265 204
Width: 559
GlyphClass: 2
Flags: W
LayerCount: 2
Fore
SplineSet
158 635 m 1,0,-1
 262 730 l 1,1,-1
 341 730 l 1,2,-1
 445 635 l 1,3,-1
 386 607 l 1,4,-1
 301 670 l 1,5,-1
 216 607 l 1,6,-1
 158 635 l 1,0,-1
32 262 m 256,7,8
 32 317 32 317 51 366 c 128,-1,9
 70 415 70 415 105.5 452 c 128,-1,10
 141 489 141 489 191 510.5 c 128,-1,11
 241 532 241 532 303 532 c 0,12,13
 384 532 384 532 442.5 496.5 c 128,-1,14
 501 461 501 461 530 402 c 1,15,-1
 423 368 l 1,16,17
 404 401 404 401 372 419.5 c 128,-1,18
 340 438 340 438 301 438 c 0,19,20
 268 438 268 438 239.5 425 c 128,-1,21
 211 412 211 412 190 388.5 c 128,-1,22
 169 365 169 365 157 333 c 128,-1,23
 145 301 145 301 145 262 c 0,24,25
 145 224 145 224 157.5 191.5 c 128,-1,26
 170 159 170 159 191.5 135 c 128,-1,27
 213 111 213 111 241.5 97.5 c 128,-1,28
 270 84 270 84 302 84 c 0,29,30
 322 84 322 84 342 89.5 c 128,-1,31
 362 95 362 95 378.5 105 c 128,-1,32
 395 115 395 115 407.5 128 c 128,-1,33
 420 141 420 141 426 156 c 1,34,-1
 534 124 l 1,35,36
 508 65 508 65 447 27.5 c 128,-1,37
 386 -10 386 -10 303 -10 c 0,38,39
 242 -10 242 -10 192 12 c 128,-1,40
 142 34 142 34 106.5 71.5 c 128,-1,41
 71 109 71 109 51.5 158 c 128,-1,42
 32 207 32 207 32 262 c 256,7,8
EndSplineSet
EndChar

StartChar: Cdotaccent
Encoding: 266 266 205
Width: 684
GlyphClass: 2
Flags: W
LayerCount: 2
Fore
SplineSet
35 360 m 0,0,1
 35 424 35 424 58 487.5 c 128,-1,2
 81 551 81 551 125.5 601.5 c 128,-1,3
 170 652 170 652 234 683 c 128,-1,4
 298 714 298 714 379 714 c 0,5,6
 476 714 476 714 545 671 c 128,-1,7
 614 628 614 628 649 559 c 1,8,-1
 561 500 l 1,9,10
 546 532 546 532 525 554 c 128,-1,11
 504 576 504 576 479 589 c 128,-1,12
 454 602 454 602 427 607.5 c 128,-1,13
 400 613 400 613 375 613 c 0,14,15
 319 613 319 613 277 590.5 c 128,-1,16
 235 568 235 568 206.5 531 c 128,-1,17
 178 494 178 494 163.5 448 c 128,-1,18
 149 402 149 402 149 356 c 0,19,20
 149 304 149 304 166 257 c 128,-1,21
 183 210 183 210 213.5 174 c 128,-1,22
 244 138 244 138 286 116.5 c 128,-1,23
 328 95 328 95 378 95 c 0,24,25
 404 95 404 95 431.5 101.5 c 128,-1,26
 459 108 459 108 484.5 122.5 c 128,-1,27
 510 137 510 137 531.5 159 c 128,-1,28
 553 181 553 181 567 212 c 1,29,-1
 660 159 l 1,30,31
 643 119 643 119 612 88.5 c 128,-1,32
 581 58 581 58 542 37 c 128,-1,33
 503 16 503 16 459.5 5 c 128,-1,34
 416 -6 416 -6 374 -6 c 0,35,36
 299 -6 299 -6 237 26 c 128,-1,37
 175 58 175 58 130 109.5 c 128,-1,38
 85 161 85 161 60 226.5 c 128,-1,39
 35 292 35 292 35 360 c 0,0,1
329 801 m 1,40,-1
 329 916 l 1,41,-1
 428 916 l 1,42,-1
 428 801 l 1,43,-1
 329 801 l 1,40,-1
EndSplineSet
EndChar

StartChar: cdotaccent
Encoding: 267 267 206
Width: 559
GlyphClass: 2
Flags: W
LayerCount: 2
Fore
SplineSet
32 262 m 256,0,1
 32 317 32 317 51 366 c 128,-1,2
 70 415 70 415 105.5 452 c 128,-1,3
 141 489 141 489 191 510.5 c 128,-1,4
 241 532 241 532 303 532 c 0,5,6
 384 532 384 532 442.5 496.5 c 128,-1,7
 501 461 501 461 530 402 c 1,8,-1
 423 368 l 1,9,10
 404 401 404 401 372 419.5 c 128,-1,11
 340 438 340 438 301 438 c 0,12,13
 268 438 268 438 239.5 425 c 128,-1,14
 211 412 211 412 190 388.5 c 128,-1,15
 169 365 169 365 157 333 c 128,-1,16
 145 301 145 301 145 262 c 0,17,18
 145 224 145 224 157.5 191.5 c 128,-1,19
 170 159 170 159 191.5 135 c 128,-1,20
 213 111 213 111 241.5 97.5 c 128,-1,21
 270 84 270 84 302 84 c 0,22,23
 322 84 322 84 342 89.5 c 128,-1,24
 362 95 362 95 378.5 105 c 128,-1,25
 395 115 395 115 407.5 128 c 128,-1,26
 420 141 420 141 426 156 c 1,27,-1
 534 124 l 1,28,29
 508 65 508 65 447 27.5 c 128,-1,30
 386 -10 386 -10 303 -10 c 0,31,32
 242 -10 242 -10 192 12 c 128,-1,33
 142 34 142 34 106.5 71.5 c 128,-1,34
 71 109 71 109 51.5 158 c 128,-1,35
 32 207 32 207 32 262 c 256,0,1
252 615 m 1,36,-1
 252 730 l 1,37,-1
 351 730 l 1,38,-1
 351 615 l 1,39,-1
 252 615 l 1,36,-1
EndSplineSet
EndChar

